<?xml version="1.0" encoding="utf-8"?>
<!-- Generator: Adobe Illustrator 23.0.1, SVG Export Plug-In . SVG Version: 6.00 Build 0)  -->
<svg version="1.1" xmlns="http://www.w3.org/2000/svg" xmlns:xlink="http://www.w3.org/1999/xlink" x="0px" y="0px"
	 viewBox="45 20 675 455" xml:space="preserve">
<style type="text/css">
	g[class='chart'] {filter: drop-shadow(0 5px 5px rgba(0,0,0,0.8));}
	.st0{fill:none;}
	.st1{fill:#EAF0F6;}
	.st2{fill:skyblue;}
	.st3{opacity:0.4;fill:#FFFFFF;}
	.st4{opacity:0.2;fill:#FFFFFF;}
	.st5{fill:#FFFFFF;}
	.st6{fill:#1A2E35;}
	.st7{opacity:0.3;fill:#FFFFFF;}
	.st8{fill:#253342;}
	.st9{fill:#33475B;}
	.st10{fill:#CBD6E2;}
	.st11{opacity:0.2;}
	.st12{fill:#6A78D1;}
	.st13{fill:#00A4BD;}
	.st14{fill:#007CFF;}
	.st15{fill:#7C98B6;}
	.st16{fill:lightgrey;}
	.st17{opacity:0.6;fill:#e94196;}
	.st18{fill:#FFBCB6;}
	.st19{fill:#F74F4C;}
	.st20{opacity:0.2;}
	.st21{opacity:0.3;}
	.st22{opacity:0.1;fill:#FFFFFF;}
	.st23{opacity:0.5;fill:#FFFFFF;}
	.st24{opacity:0.2;fill:#FFFFFF;}
	.st25{opacity:0;fill:#FFFFFF;}
	.st26{opacity:0.6;}
	.st27{opacity:0.4;}
	.st28{fill:#FFAF66;}
	.st29{fill:#FF8031;}
	.st30{opacity:0.7;fill:#FFFFFF;}
	.st31{fill:#1A2E35;}
	.st32{fill:#314456;}
	.st33{fill:none;stroke:#000000;stroke-width:0;stroke-linecap:round;stroke-linejoin:round;}
	.st34{fill:#647D8E;}
	.st35{fill:black;}
	.st36{opacity:0.2;fill:#070707; animation: aaa 2s infinite linear;}

	.st37{fill:#B28769; animation: aaa 2s infinite linear;}
	.st38{fill:#DDAC85; animation: aaa 2s infinite linear;}
	.st39{fill:#BA8E70; animation: aaa 2s infinite linear;}
	.st40{opacity:0.8;fill:#B28566; animation: aaa 2s infinite linear;}
	.st41{fill:#C99877; animation: aaa 2s infinite linear;}
	.st42{fill:#B28566; animation: aaa 2s infinite linear;}
	.st43{fill:#EABEB5; animation: aaa 2s infinite linear;}
	.st44{fill:#F4D8C3; animation: aaa 2s infinite linear;}
	.st45{opacity:0.1;fill:#DDAC85; animation: aaa 2s infinite linear;}
	.st46{fill:#FF7A59; animation: aaa 2s infinite linear;}
	.st47{opacity:0.3;fill:#000007; animation: aaa 2s infinite linear;}
	.st48{fill:#D6A47F; animation: aaa 2s infinite linear;}
	.st49{fill:#FF8000; animation: aaa 2s infinite linear;}
	.st50{fill:#333333; animation: aaa 2s infinite linear;}
	.st51{fill:#C15F06; animation: aaa 2s infinite linear;}

	.whitehand { animation: aaa 2s infinite linear;}

	@keyframes aaa {
	  0%,100% {
	    transform: translate(0%);
	  }
	  25%,75% {
	    transform: translate(2%, -2.7%);
	  }
	  50% {
	    transform: translate(0%, 0%);
	  }
	}
</style>
<g id="BG">
	<rect x="0" y="0" class="st0" width="750" height="420"/>
</g>
<g id="Layer_1" class="chart">
	<g>
		<g>
			<g>
				<g>
					<path class="st1" d="M523.3,375c0,5.2-105.1,9.5-234.7,9.5S53.8,380.2,53.8,375c0-5.2,105.1-9.5,234.7-9.5
						S523.3,369.7,523.3,375z"/>
				</g>
			</g>
			<g>
				<g>
					<g>
						<g>
							<g>
								<path class="st2" d="M481,36.6c-14.1-0.2-25.6,11.1-25.8,25.2c-0.1,7.6,3.3,14.9,9.1,19.8c1.1,0.9,2.7,2,2.7,4.2
									c0,0.1,0.1,5.6,0.1,5.6H494c0,0,0.1-5.7,0.1-5.8c0-2,1.5-2.8,2.6-3.7c5.9-4.8,9.4-11.9,9.5-19.5
									C506.4,48.3,495.1,36.7,481,36.6z"/>
								<path class="st3" d="M481,36.6c-14.1-0.2-25.6,11.1-25.8,25.2c-0.1,7.6,3.3,14.9,9.1,19.8c1.1,0.9,2.7,2,2.7,4.2
									c0,0.1,0.1,5.6,0.1,5.6H494c0,0,0.1-5.7,0.1-5.8c0-2,1.5-2.8,2.6-3.7c5.9-4.8,9.4-11.9,9.5-19.5
									C506.4,48.3,495.1,36.7,481,36.6z"/>
								<path class="st4" d="M493.7,47.6c0,5-5.8,9-13,9c-7.2,0-13-4-13-9c0-5,5.8-9,13-9C487.9,38.6,493.7,42.6,493.7,47.6z"/>
							</g>
							<path class="st5" d="M461.1,71.9c-2.3-3.9-3.1-8.4-2.5-12.9c0.7-4.4,2.8-8.6,6.1-11.6l0.3,0.3c-3.2,3-5.3,7-6,11.4
								c-0.6,4.3,0.2,8.8,2.4,12.6L461.1,71.9z"/>
							<path class="st6" d="M488.1,85.9c-1.3-3.4-2.4-6.9-3.2-10.5c-1.3,1.1-2.8,1.7-4.1,1.6c-1.1-0.1-2.2-0.5-3.4-1.4
								c-0.2,3.5-0.8,6.9-1.7,10.3l-0.8-0.2c1-3.5,1.6-7.1,1.7-10.7c-0.2-0.2-0.4-0.4-0.6-0.6c-2.9-3-4.2-6.7-3.6-9.9
								c0.2-1.2,1-2.4,2.1-2.4c0,0,0,0,0,0c1,0,1.8,1,2.1,2.8c0.6,3.2,0.9,6.4,0.8,9.6c1.2,1,2.3,1.6,3.4,1.6c1.6,0.1,3-0.9,3.9-1.8
								c-0.6-2.7-1.1-5.5-1.5-8.3c-0.1-1-0.2-2,0-3c0.3-1.2,1-2.1,2-2.3c1.6-0.3,2.9,1.3,3.3,3.2c0.9,3.7-0.2,7.8-2.8,10.6
								c0,0,0,0-0.1,0.1c0.9,3.7,2,7.4,3.3,10.9L488.1,85.9z M474.5,63c-0.6,0-1,0.9-1.2,1.7c-0.6,2.9,0.7,6.3,3.3,9.1
								c0-2.9-0.2-5.8-0.8-8.6C475.7,64.6,475.3,63,474.5,63C474.5,63,474.5,63,474.5,63z M485.6,61.7c-0.1,0-0.1,0-0.2,0
								c-0.7,0.1-1.1,0.9-1.3,1.6c-0.2,0.8-0.1,1.7,0,2.7c0.3,2.6,0.8,5.1,1.3,7.7c2.1-2.5,3-6.3,2.2-9.4
								C487.3,62.9,486.5,61.7,485.6,61.7z"/>
						</g>
					</g>
					<path class="st6" d="M495.6,93h-30c-0.8,0-1.4-0.6-1.4-1.4v-0.4c0-0.8,0.6-1.4,1.4-1.4h30c0.8,0,1.4,0.6,1.4,1.4v0.4
						C497,92.4,496.4,93,495.6,93z"/>
					<path class="st7" d="M495.6,93h-30c-0.8,0-1.4-0.6-1.4-1.4v-0.4c0-0.8,0.6-1.4,1.4-1.4h30c0.8,0,1.4,0.6,1.4,1.4v0.4
						C497,92.4,496.4,93,495.6,93z"/>
					<path class="st6" d="M495.1,95.8h-29c-0.8,0-1.4-0.6-1.4-1.4v-0.3c0-0.8,0.6-1.4,1.4-1.4h29c0.8,0,1.4,0.6,1.4,1.4v0.3
						C496.5,95.2,495.9,95.8,495.1,95.8z"/>
					<path class="st7" d="M495.1,95.8h-29c-0.8,0-1.4-0.6-1.4-1.4v-0.3c0-0.8,0.6-1.4,1.4-1.4h29c0.8,0,1.4,0.6,1.4,1.4v0.3
						C496.5,95.2,495.9,95.8,495.1,95.8z"/>
					<g>
						<path class="st8" d="M470.6,100.3c2,3.7,6.2,7.6,10.4,7.3c4.2-0.2,8.1-3.8,9.7-7.7L470.6,100.3z"/>
					</g>
					<path class="st6" d="M493.2,101.5h-25.1c-0.8,0-1.4-0.6-1.4-1.4v-0.3c0-0.8,0.6-1.4,1.4-1.4h25.1c0.8,0,1.4,0.6,1.4,1.4v0.3
						C494.6,100.9,493.9,101.5,493.2,101.5z"/>
					<path class="st7" d="M493.2,101.5h-25.1c-0.8,0-1.4-0.6-1.4-1.4v-0.3c0-0.8,0.6-1.4,1.4-1.4h25.1c0.8,0,1.4,0.6,1.4,1.4v0.3
						C494.6,100.9,493.9,101.5,493.2,101.5z"/>
					<path class="st6" d="M494.7,98.6h-28.1c-0.8,0-1.4-0.6-1.4-1.4v-0.3c0-0.8,0.6-1.4,1.4-1.4h28.1c0.8,0,1.4,0.6,1.4,1.4v0.3
						C496.1,98,495.5,98.6,494.7,98.6z"/>
					<path class="st7" d="M494.7,98.6h-28.1c-0.8,0-1.4-0.6-1.4-1.4v-0.3c0-0.8,0.6-1.4,1.4-1.4h28.1c0.8,0,1.4,0.6,1.4,1.4v0.3
						C496.1,98,495.5,98.6,494.7,98.6z"/>
				</g>
				<path class="st6" d="M466.6,27.3c1.9,1.9,3.9,3.9,5.8,5.8c0.3,0.3,0.8-0.2,0.5-0.5c-1.9-1.9-3.9-3.9-5.8-5.8
					C466.7,26.6,466.3,27,466.6,27.3L466.6,27.3z"/>
				<path class="st6" d="M481.8,30.9c0-3.7,0-7.3,0-11c0-0.4-0.7-0.4-0.7,0c0,3.7,0,7.3,0,11C481.1,31.3,481.8,31.3,481.8,30.9
					L481.8,30.9z"/>
				<path class="st6" d="M489.8,33.6c2.1-2.1,4.2-4.2,6.3-6.3c0.3-0.3-0.2-0.8-0.5-0.5c-2.1,2.1-4.2,4.2-6.3,6.3
					C489.1,33.5,489.5,33.9,489.8,33.6L489.8,33.6z"/>
			</g>
			<g>
				<rect x="92" y="56.4" class="st9" width="375.2" height="261.3"/>
				<rect x="100.1" y="63" class="st3" width="360.8" height="212.3"/>
				<rect x="100.1" y="63" class="st3" width="360.8" height="12.1"/>
				<path class="st5" d="M108,68.8c0,1.2-1,2.2-2.2,2.2c-1.2,0-2.2-1-2.2-2.2c0-1.2,1-2.2,2.2-2.2C107,66.6,108,67.6,108,68.8z"/>
				<path class="st5" d="M114.2,68.8c0,1.2-1,2.2-2.2,2.2c-1.2,0-2.2-1-2.2-2.2c0-1.2,1-2.2,2.2-2.2
					C113.2,66.6,114.2,67.6,114.2,68.8z"/>
				<path class="st5" d="M120.7,68.8c0,1.2-1,2.2-2.2,2.2c-1.2,0-2.2-1-2.2-2.2c0-1.2,1-2.2,2.2-2.2
					C119.7,66.6,120.7,67.6,120.7,68.8z"/>
				<rect x="92" y="275.1" class="st10" width="375.2" height="42.6"/>
				<g>
					<polygon class="st6" points="359.6,366.9 207.2,366.9 217.4,317.7 346.8,317.7 					"/>
					<polygon class="st10" points="359.6,366.9 207.2,366.9 217.4,317.7 346.8,317.7 					"/>
					<polygon class="st11" points="349.3,327.6 215.3,327.6 217.4,317.7 346.8,317.7 					"/>
				</g>
			</g>
			<rect x="151.5" y="96.1" class="st5" width="285.9" height="156.8"/>
			<g>
				<path class="st12" d="M187.8,181h-3v8.2h-11v-32.7h15.7c9.1,0,14.9,4.8,14.9,12.3c0,4.7-2.2,8.3-6.2,10.3l6.9,10.1h-11.8
					L187.8,181z M188.9,165h-4v7.7h4c3,0,4.5-1.4,4.5-3.8C193.4,166.5,191.9,165,188.9,165z"/>
				<path class="st12" d="M235.8,180.9v8.3h-27.2v-32.7h26.6v8.3h-15.7v3.8h13.8v7.9h-13.8v4.3H235.8z"/>
				<path class="st13" d="M270.4,180.4c0,5.6-4.2,8.8-12.5,8.8h-15.6v-32.7h14.7c7.5,0,11.7,3.2,11.7,8.4c0,3.5-1.8,6-4.4,7.3
					C268,173.3,270.4,176,270.4,180.4z M246.9,160.3v10.5h9.6c4.8,0,7.5-1.8,7.5-5.2c0-3.5-2.7-5.2-7.5-5.2H246.9z M265.7,180
					c0-3.8-2.8-5.5-8-5.5h-10.7v10.9h10.7C262.9,185.4,265.7,183.8,265.7,180z"/>
				<path class="st13" d="M299.5,189.2l-7-10c-0.7,0-1.4,0.1-2.1,0.1h-8.1v9.9h-4.7v-32.7h12.7c8.5,0,13.6,4.3,13.6,11.4
					c0,5-2.6,8.7-7.2,10.3l7.7,11H299.5z M299.3,167.9c0-4.7-3.1-7.3-9.1-7.3h-7.9v14.7h7.9C296.2,175.3,299.3,172.6,299.3,167.9z"
					/>
				<path class="st13" d="M332.4,181H315l-3.6,8.2h-4.8l14.8-32.7h4.6l14.8,32.7H336L332.4,181z M330.7,177.3l-7-16l-7,16H330.7z"/>
				<path class="st13" d="M373.8,156.5v32.7H370l-19.6-24.4v24.4h-4.7v-32.7h3.8l19.6,24.4v-24.4H373.8z"/>
				<path class="st13" d="M383.6,156.5h13.8c10.5,0,17.6,6.6,17.6,16.3c0,9.7-7.1,16.3-17.6,16.3h-13.8V156.5z M397.1,185.1
					c8.1,0,13.3-4.9,13.3-12.3c0-7.3-5.2-12.3-13.3-12.3h-8.8v24.6H397.1z"/>
			</g>
			<g>
				<g>
					<rect x="331.2" y="207" class="st13" width="28.7" height="28.7"/>
					<path class="st5" d="M348.4,233.9c-0.2,0,9.5-9.5,9.5-9.5v9.5H348.4z"/>
				</g>
				<g>
					<rect x="370.5" y="207" class="st14" width="28.7" height="28.7"/>
					<rect x="370.5" y="207" class="st15" width="28.7" height="28.7"/>
					<path class="st5" d="M387.8,233.9c-0.2,0,9.5-9.5,9.5-9.5v9.5H387.8z"/>
				</g>
				<g>
					<rect x="291" y="207" class="st12" width="28.7" height="28.7"/>
					<path class="st5" d="M308.6,233.9c-0.2,0,9.5-9.5,9.5-9.5v9.5H308.6z"/>
				</g>
			</g>
			<g>
				<rect x="112.1" y="101.7" class="st16" width="29.5" height="140.6"/>
				<rect x="112" y="101.7" class="st3" width="29.5" height="140.6"/>
				<rect x="112.1" y="101.7" class="st3" width="29.5" height="8.4"/>
				<polygon class="st9" points="120.8,118.5 123.1,132.6 126.6,127.3 132.8,126.1 				"/>
				<rect x="120.3" y="139.3" class="st9" width="13" height="13"/>
				<g>
					<path class="st9" d="M132.2,162.7v3.3h-0.3c-0.2-0.8-0.4-1.3-0.6-1.6c-0.2-0.3-0.5-0.6-0.9-0.8c-0.2-0.1-0.6-0.2-1.2-0.2h-0.9
						v9.3c0,0.6,0,1,0.1,1.2c0.1,0.2,0.2,0.3,0.4,0.4c0.2,0.1,0.5,0.2,0.8,0.2h0.4v0.3h-6.3v-0.3h0.4c0.3,0,0.6-0.1,0.8-0.2
						c0.2-0.1,0.3-0.2,0.4-0.4c0.1-0.1,0.1-0.5,0.1-1.1v-9.3h-0.9c-0.8,0-1.4,0.2-1.8,0.5c-0.5,0.5-0.8,1.2-1,2h-0.3v-3.3H132.2z"/>
				</g>
				<path class="st9" d="M121.9,192.9c-0.1,0-0.2,0-0.3-0.1c-0.2-0.2-0.2-0.4,0-0.6l9.5-11c0.2-0.2,0.4-0.2,0.6,0s0.2,0.4,0,0.6
					l-9.5,11C122.1,192.9,122,192.9,121.9,192.9z"/>
				<g>
					<polygon class="st9" points="128.9,198.9 132.8,202.1 131,204.2 127,201.1 					"/>
					<path class="st9" d="M126.5,201.8l-4,1.9l-2,7.7l0.5,0.4l4.4-5.3c-0.2-0.3-0.2-0.7,0-1c0.3-0.3,0.8-0.4,1.1-0.1
						s0.4,0.8,0.1,1.1c-0.2,0.3-0.6,0.3-1,0.2l-4.4,5.3l0.5,0.4l7.2-3.4l1.3-4.3L126.5,201.8z"/>
				</g>
				<circle class="st5" cx="116.2" cy="105.7" r="1.5"/>
				<circle class="st5" cx="120.6" cy="105.7" r="1.5"/>
				<circle class="st5" cx="125.1" cy="105.7" r="1.5"/>
				<g>
					<path class="st9" d="M125.1,230.8c-2.7,0-4.9-2.2-4.9-4.9s2.2-4.9,4.9-4.9c2.7,0,4.9,2.2,4.9,4.9S127.8,230.8,125.1,230.8z
						 M125.1,221.8c-2.2,0-4.1,1.8-4.1,4.1s1.8,4.1,4.1,4.1s4.1-1.8,4.1-4.1S127.3,221.8,125.1,221.8z"/>
					<path class="st9" d="M128.1,229.2l3.9,2.4c0.3,0.2,0.8,0.1,1-0.2l0,0c0.2-0.3,0.1-0.8-0.2-1L129,228L128.1,229.2z"/>
				</g>
			</g>
			<g>
				<g>
					<rect x="332" y="67.7" class="st10" width="54.9" height="55.1"/>
					<rect x="332" y="67.7" class="st3" width="54.9" height="55.1"/>
					<rect x="332" y="67.7" class="st3" width="54.9" height="7.5"/>
					<circle class="st5" cx="336.6" cy="71.5" r="1.7"/>
					<path class="st5" d="M343.3,71.5c0,1-0.8,1.7-1.7,1.7c-1,0-1.7-0.8-1.7-1.7s0.8-1.7,1.7-1.7C342.5,69.7,343.3,70.5,343.3,71.5z
						"/>
					<circle class="st5" cx="346.5" cy="71.5" r="1.7"/>
				</g>
				<g>
					<g>
						<polygon class="st12" points="375.4,113.6 369.8,113.6 369.8,113 374.7,113 374.7,108.1 375.4,108.1 						"/>
						<rect x="356.6" y="113" class="st12" width="6.6" height="0.7"/>
						<polygon class="st12" points="349.9,113.6 344.4,113.6 344.4,108.1 345,108.1 345,113 349.9,113 						"/>
						<rect x="344.4" y="94.8" class="st12" width="0.7" height="6.6"/>
						<polygon class="st12" points="345,88.2 344.4,88.2 344.4,82.6 349.9,82.6 349.9,83.3 345,83.3 						"/>
						<rect x="356.6" y="82.6" class="st12" width="6.6" height="0.7"/>
						<polygon class="st12" points="375.4,88.2 374.7,88.2 374.7,83.3 369.8,83.3 369.8,82.6 375.4,82.6 						"/>
						<rect x="374.7" y="94.8" class="st12" width="0.7" height="6.6"/>
					</g>
					<g>
						<path class="st12" d="M351.5,106.2c0.6,0,1.1-0.3,1.4-0.8c0.2-0.3,0.6-1,1-2.1l5.5-13.6h0.7l5.5,13c0.6,1.5,1.1,2.4,1.4,2.8
							c0.3,0.4,0.7,0.6,1.3,0.6v0.6h-8v-0.6c0.8,0,1.3-0.1,1.6-0.2c0.3-0.1,0.4-0.4,0.4-0.8c0-0.2-0.1-0.5-0.2-0.9
							c-0.1-0.2-0.2-0.5-0.3-0.8l-0.6-1.5h-5.6c-0.4,1-0.6,1.6-0.7,1.9c-0.2,0.6-0.3,1.1-0.3,1.4c0,0.4,0.2,0.6,0.7,0.8
							c0.3,0.1,0.7,0.1,1.3,0.1v0.6h-5.1V106.2z M360.8,101l-2.4-5.7h-0.2L356,101H360.8z"/>
					</g>
					<rect x="342" y="80.8" class="st12" width="4" height="4"/>
					<rect x="372.8" y="80.8" class="st12" width="4" height="4"/>
					<rect x="342" y="111.3" class="st12" width="4" height="4"/>
					<rect x="372.8" y="111.3" class="st12" width="4" height="4"/>
				</g>
			</g>
			<g>
				<g>
					<rect x="175" y="33.9" class="st15" width="78.7" height="82.6"/>
					<rect x="175" y="33.9" class="st17" width="78.7" height="82.6"/>
					<rect x="175" y="33.9" class="st3" width="78.7" height="10.1"/>
					<path class="st5" d="M183.3,39.1c0,1.2-0.9,2.1-2.1,2.1c-1.2,0-2.1-0.9-2.1-2.1c0-1.2,0.9-2.1,2.1-2.1
						C182.3,37,183.3,37.9,183.3,39.1z"/>
					<path class="st5" d="M189.2,39.1c0,1.2-0.9,2.1-2.1,2.1c-1.2,0-2.1-0.9-2.1-2.1c0-1.2,0.9-2.1,2.1-2.1
						C188.2,37,189.2,37.9,189.2,39.1z"/>
					<path class="st5" d="M195.1,39.1c0,1.2-0.9,2.1-2.1,2.1c-1.2,0-2.1-0.9-2.1-2.1c0-1.2,0.9-2.1,2.1-2.1
						C194.2,37,195.1,37.9,195.1,39.1z"/>
				</g>
				<path class="st2" d="M236.8,73.9c-0.6-2.9-1.7-5.5-3.3-7.9l2.8-3.4l-6-6l-3.4,2.8c-2.4-1.5-5-2.7-7.9-3.3l-0.4-4.4h-8.5
					l-0.4,4.4c-2.9,0.6-5.5,1.7-7.9,3.3l-3.4-2.8l-6,6l2.8,3.4c-1.5,2.4-2.7,5-3.3,7.9l-4.4,0.4v8.5l4.4,0.4
					c0.6,2.9,1.7,5.5,3.3,7.9l-2.8,3.4l6,6l3.4-2.8c2.4,1.6,5,2.7,7.9,3.3l0.4,4.4h8.5l0.4-4.4c2.9-0.6,5.5-1.7,7.9-3.3l3.4,2.8l6-6
					l-2.8-3.4c1.6-2.4,2.7-5,3.3-7.9l4.4-0.4v-8.5L236.8,73.9z M225.9,78.6c0,6.4-5.2,11.6-11.6,11.6c-6.4,0-11.6-5.2-11.6-11.6
					c0-6.4,5.2-11.6,11.6-11.6C220.8,67,225.9,72.2,225.9,78.6z"/>
			</g>
			<g>
				<g>
					<path class="st18" d="M529.7,169.5c0,0,2.9,26.1,0,28.5c-2.9,2.4-11.7-1.2-11.7-1.2l7.8-27.3H529.7z"/>
					<path class="st2" d="M524.5,179.6h7.6c0,0,0.5-10-1.7-13.2C528.2,163.3,524.5,179.6,524.5,179.6z"/>
					<path class="st11" d="M525.2,179.8c0,0,3.2-7.6,3.1-7.5c-0.1,0.1-2.7,18.1-4.8,18.3s-1.7-0.8-1.7-0.8S523.2,184.6,525.2,179.8z
						"/>
				</g>
				<g>
					<path class="st6" d="M502.9,134c0.1,0,0.2,0,0.3-0.1c0.2-0.1,0.2-0.4,0.1-0.5c-0.8-0.9-1.9-1.4-3.1-1.3c-0.2,0-0.3,0.2-0.3,0.4
						c0,0,0,0,0,0c0,0.2,0.2,0.3,0.4,0.3c0,0,0,0,0,0c0.9-0.1,1.8,0.3,2.4,1C502.7,133.9,502.8,133.9,502.9,134z"/>
					<path class="st19" d="M501.3,138.6c-0.4,1.5-0.9,2.9-1.7,4.2c0.7,0.4,1.5,0.4,2.3,0.1L501.3,138.6z"/>
					<path class="st6" d="M501.7,137.4c0.1,0.6-0.2,1.2-0.6,1.2c-0.4,0.1-0.8-0.4-0.8-1c0-0.6,0.2-1.2,0.6-1.2
						C501.3,136.4,501.6,136.8,501.7,137.4z"/>
					<path class="st18" d="M517,148.6c-0.1,0.1-0.2,0.1-0.2,0.2c-1.2,0.9-2.5,1.5-3.9,1.9c-4.1,1-6.9,0.4-8.8-1.5l0,0
						c-2.6-2.8-3.2-7.7-2.9-13.7c0.1-2.4,0.5-4.7,1.3-7c0,0,0-0.1,0-0.1s0.1-0.2,0.1-0.3c1-2.6,3.3-4.4,6-5c1.2-0.3,2.3-0.4,3.5-0.4
						C523.9,122.6,526,142,517,148.6z"/>
					<path class="st20" d="M516.6,148.9c-1.2,0.8-2.5,1.4-3.9,1.7c-4.1,1-6.9,0.2-8.8-1.6c2.5,0.6,5.1,0.4,7.4-0.6
						C513,147.7,514.8,148.1,516.6,148.9z"/>
					<path class="st18" d="M518,159.3c0.7,3.3-3.6,4.7-3.6,4.7c-7-3-8.3-6.7-8.3-6.7c5.9-3.1,4.2-11.7,4.2-11.7l1.2,0.6l8.4,1.6
						c0,0-2.3,4.5-2.6,5.5l0,0C515.6,158.5,518,159.3,518,159.3z"/>
					<path class="st6" d="M502.6,128.4c0,0-0.6,8.2,7.1,11.7c0,0,3.3,8.5,8.2,8.6c6.7,0.2,12.5-9.3,10.2-19
						C525.1,117.2,506.1,116.1,502.6,128.4z"/>
					<path class="st6" d="M516.8,119.7c0,0-7.8-2-12.1,1.2c-5,3.7-6.9,7.5-1,13.4c0,0,13.1-4.2,17.4-3.3c2.5,0.5,5,1.2,7.5,2.2
						C529.5,124.4,521.2,117.9,516.8,119.7z"/>
					<g>
						<g>
							<path class="st18" d="M510.7,136.8c0,1.5-0.5,2.9-1.6,4c-1.4,1.4-3,0.4-3.5-1.4c-0.4-1.6-0.2-4.3,1.6-5.1
								c1.3-0.5,2.8,0.1,3.3,1.4C510.7,136.1,510.7,136.5,510.7,136.8z"/>
							<path class="st21" d="M507.3,140.3c-0.1,0-0.1,0-0.2-0.1c-0.1-0.1,0-0.2,0.1-0.3c0.7-0.5,1.2-1.3,1.3-2.2
								c0-0.3,0-0.6-0.1-0.8c-0.1-0.2-0.3-0.4-0.5-0.4c0,0,0,0,0,0c-0.1,0-0.2-0.1-0.2-0.2c0-0.1,0.1-0.2,0.2-0.2
								c0.4,0,0.7,0.2,0.9,0.6c0.1,0.3,0.2,0.6,0.2,1c-0.1,1-0.7,2-1.5,2.5C507.3,140.3,507.3,140.3,507.3,140.3z"/>
						</g>
					</g>
					<ellipse class="st14" cx="524" cy="129.6" rx="2" ry="3"/>
					<g>
						<path class="st6" d="M558.7,160.9c-0.8-1.3-2.3-1.4-3.7-1.4c-4.9-0.1-10.1-1.5-13-5.5c-2-2.7-2.5-6.1-2.7-9.4
							c-0.2-3.3,0-6.6-0.6-9.9c-0.7-3.2-2.3-6.5-5.3-8c-2.8-1.4-6.4-1-8.7,1c-0.3,0.3-0.5,0.6-0.6,1l-0.1,0.2
							c-0.2,0.6-0.2,1.2,0.1,1.7c3.2,8-1.1,13.7-1.1,19.5c0,5.5,0.2,11.3,3.2,15.8c2,2.9,5,5,8.4,6.1c3.4,1,7,1,10.4,0.2
							c0.4-0.1,0.8-0.3,0.9-0.6c0-0.3-0.2-0.6-0.4-0.8c-1-1.1-1.9-2.2-2.9-3.3c4.1,0.9,8.5,0.5,12.5-1c1.5-0.6,3.1-1.5,3.7-3.1
							C559.2,162.5,559.2,161.6,558.7,160.9z"/>
					</g>
				</g>
				<path class="st6" d="M501.1,136.4l-1.5-0.2C499.5,136.2,500.4,137.3,501.1,136.4z"/>
				<path class="st2" d="M494.7,158.5c0,0,9.3-3.1,23.3,0.7c14,3.8,12.6,8.7,12.6,8.7s-10.6,19-12,40.5l-30.1-2.9
					c0,0,2.2-14.8,1.3-17.9C487,177.7,489.8,165,494.7,158.5z"/>
				<g>
					<path class="st18" d="M509.7,359.1l-6.9,1.3c-6.6-21.9-13.7-46.7-16.8-69.4c-0.5-3.6-0.5-11.7-0.8-14.9
						c-0.2-1.5-0.4-2.9-0.5-4.3c-0.8-6.8-1.4-12.2-1.7-15.6c-0.2-2.4-0.4-3.8-0.4-3.8h25.2l-0.2,4.7l-0.8,15.5l-0.1,1.8l-0.5,10.2
						l-0.8,18.1C509.4,317.6,510.2,359.3,509.7,359.1z"/>
					<g>
						<path class="st6" d="M490.8,377c1.2-0.7,2.6-1.3,4.1-1.6l0,0c0,0,4.4-3.2,6.7-13.1l5.8-1.1c2-0.3,4,0.3,5.1,1.6
							c0.2,0.2,0.3,0.4,0.4,0.6c0.3,1,0.4,2.1,0.5,3.2c0.2,3.6,0.2,7.3-0.2,10.9l-1.1,0l-0.2-6.8c0-2.3-2.5,0.4-3.2,2.8
							c-0.7,2.5-2.2,5.2-8.9,5.2C492,378.7,488.8,378.4,490.8,377z"/>
						<path class="st18" d="M502.7,358.7c0,0-1.3,4.5-3.4,9.5c-0.9,2.6-2.4,5-4.5,7.1c0,0,5,0.7,7.2-1.8c2.2-2.5,5.4-11.2,10.5-10.7
							l-2.8-5.1C508.9,356.9,502.7,358.7,502.7,358.7z"/>
					</g>
				</g>
				<g>
					<path class="st18" d="M535.8,358l-6.7,0.2c-5.9-22.6-13.3-52.7-18.5-75.9c-0.8-3.6-1.5-6.9-2.2-9.9c0-0.2-0.1-0.3-0.1-0.4
						c-1.3-6-2.2-10.8-2.8-13.8l-0.7-3.7l21.8-1.1l0.5,7.7l0.8,11.3l0.1,2.2l0.5,7.7l1.3,20.7C539.8,327.7,535.8,362.3,535.8,358z"
						/>
					<g>
						<path class="st6" d="M516.2,375.1c1.2-0.7,2.6-1.3,4.1-1.6l0,0c0,0,4.4-3.2,6.7-13.1l5.8-1.1c2-0.3,4,0.3,5.1,1.6
							c0.2,0.2,0.3,0.4,0.4,0.6c0.3,1.1,0.4,2.1,0.5,3.2c0.2,3.6,0.2,7.3-0.2,10.9l-1.1,0l-0.2-6.8c0-2.3-2.5,0.4-3.2,2.8
							c-0.7,2.5-2.2,5.2-8.9,5.2C517.4,376.8,514.2,376.5,516.2,375.1z"/>
						<path class="st18" d="M529.1,353.3c0,0-2.3,8.1-4.4,13.1c-0.9,2.6-2.4,5-4.5,7.1c0,0,5,0.7,7.2-1.8
							c2.2-2.5,5.4-11.2,10.5-10.7l-2.1-4.5C535,355.6,529.1,353.3,529.1,353.3z"/>
					</g>
				</g>
				<g>
					<path class="st9" d="M487.3,207.4L487.3,207.4l1.8-6.8l30,2.3l0,6.5l0,0c12,21.3,9.1,45.5,9.1,45.5l2.8,30.4
						c0,0-1.3,4-21.5,5.3c-17.8,1.2-26.4,0.1-26.4,0.1C476.9,253.7,483.3,214.8,487.3,207.4z"/>
					<path class="st11" d="M518.7,246.7c-0.5,0.2-11,12.1-11,12.1l1.9,25l1.3-24.9L518.7,246.7z"/>
				</g>
				<g>
					<g>
						<g>
							
								<rect x="474.8" y="139.3" transform="matrix(0.9852 -0.1713 0.1713 0.9852 -20.0154 84.8111)" class="st15" width="13.2" height="38.1"/>
							
								<rect x="474.8" y="139.3" transform="matrix(0.9852 -0.1713 0.1713 0.9852 -20.0148 84.8111)" class="st22" width="13.2" height="38.1"/>
							
								<rect x="474.8" y="139.3" transform="matrix(0.9852 -0.1713 0.1713 0.9852 -20.0154 84.8112)" class="st23" width="13.2" height="38.1"/>
							<g>
								<g>
									
										<rect x="474" y="140.8" transform="matrix(0.9852 -0.1713 0.1713 0.9852 -17.9363 84.2639)" class="st6" width="10.6" height="10.6"/>
									
										<rect x="474" y="140.8" transform="matrix(0.9852 -0.1713 0.1713 0.9852 -17.9363 84.2639)" class="st17" width="10.6" height="10.6"/>
								</g>
								<g>
									
										<rect x="476" y="152.2" transform="matrix(0.9852 -0.1713 0.1713 0.9852 -19.8732 84.7717)" class="st6" width="10.6" height="10.6"/>
									
										<rect x="476" y="152.2" transform="matrix(0.9852 -0.1713 0.1713 0.9852 -19.8732 84.7717)" class="st3" width="10.6" height="10.6"/>
								</g>
								<g>
									
										<rect x="478" y="163.7" transform="matrix(0.9852 -0.1713 0.1713 0.9852 -21.8105 85.2834)" class="st6" width="10.6" height="10.6"/>
									
										<rect x="478" y="163.7" transform="matrix(0.9852 -0.1713 0.1713 0.9852 -21.8105 85.2834)" class="st24" width="10.6" height="10.6"/>
								</g>
							</g>
						</g>
						<g>
							
								<rect x="467.4" y="140.2" transform="matrix(0.8481 -0.5299 0.5299 0.8481 -13.5268 275.7307)" class="st13" width="13.2" height="42.5"/>
							
								<rect x="467.4" y="140.2" transform="matrix(0.8481 -0.5299 0.5299 0.8481 -13.5263 275.729)" class="st7" width="13.2" height="42.5"/>
							<g>
								
									<rect x="460.9" y="143.7" transform="matrix(0.8481 -0.5299 0.5299 0.8481 -8.1046 269.7111)" class="st13" width="10.6" height="10.6"/>
								
									<rect x="460.9" y="143.7" transform="matrix(0.8481 -0.5299 0.5299 0.8481 -8.1057 269.7114)" class="st17" width="10.6" height="10.6"/>
							</g>
							<g>
								
									<rect x="467.1" y="153.6" transform="matrix(0.8481 -0.5299 0.5299 0.8481 -12.4044 274.4821)" class="st13" width="10.6" height="10.6"/>
								
									<rect x="467.1" y="153.6" transform="matrix(0.8481 -0.5299 0.5299 0.8481 -12.4044 274.4821)" class="st3" width="10.6" height="10.6"/>
							</g>
							<g>
								
									<rect x="473.3" y="163.4" transform="matrix(0.8481 -0.5299 0.5299 0.8481 -16.7026 279.2598)" class="st13" width="10.6" height="10.6"/>
								
									<rect x="473.3" y="163.4" transform="matrix(0.8481 -0.5299 0.5299 0.8481 -16.7026 279.2598)" class="st25" width="10.6" height="10.6"/>
							</g>
						</g>
						<g>
							
								<rect x="462.6" y="144.9" transform="matrix(0.5847 -0.8112 0.8112 0.5847 58.8767 450.2635)" class="st13" width="13.2" height="45.5"/>
							
								<rect x="462.6" y="144.9" transform="matrix(0.5847 -0.8112 0.8112 0.5847 58.8756 450.264)" class="st23" width="13.2" height="45.5"/>
						</g>
						<g>
							
								<rect x="451.1" y="153.1" transform="matrix(0.5847 -0.8112 0.8112 0.5847 61.053 435.9886)" class="st12" width="10.6" height="10.6"/>
							
								<rect x="451.1" y="153.1" transform="matrix(0.5847 -0.8112 0.8112 0.5847 61.0238 436.0036)" class="st26" width="10.6" height="10.6"/>
						</g>
						<g>
							
								<rect x="460.5" y="159.9" transform="matrix(0.5847 -0.8112 0.8112 0.5847 59.4526 446.4904)" class="st12" width="10.6" height="10.6"/>
							
								<rect x="460.5" y="159.9" transform="matrix(0.5847 -0.8112 0.8112 0.5847 59.4526 446.4904)" class="st27" width="10.6" height="10.6"/>
						</g>
						<g>
							
								<rect x="470" y="166.7" transform="matrix(0.5847 -0.8112 0.8112 0.5847 57.8515 456.9909)" class="st12" width="10.6" height="10.6"/>
							
								<rect x="470" y="166.7" transform="matrix(0.5847 -0.8112 0.8112 0.5847 57.8515 456.9909)" class="st11" width="10.6" height="10.6"/>
						</g>
						<path class="st6" d="M484.7,176.6c0.8,0.6,1,1.7,0.4,2.5c-0.6,0.8-1.7,1-2.5,0.4c-0.8-0.6-1-1.7-0.4-2.5
							C482.8,176.2,483.9,176,484.7,176.6z"/>
					</g>
					<path class="st18" d="M459.1,173.9c-0.3,0.4,12.3,18.2,17.6,17.7c5.3-0.5,20.5-19.5,22.3-23.7c2-4.6,1.2-9.6-3.1-9.5
						c-4.4,0.1-7.6,5.1-11.1,10.6c-3.4,5.4-8.3,10.5-8.3,10.5l-13.6-9.3L459.1,173.9z"/>
					<path class="st18" d="M459.4,174.5c0,0-2-1.4-4.8-3.8c-2.8-2.3-4-5.5-4-5.5l-0.1-3c0,0,3.3,3.2,3.7,3.5
						c0.4,0.3,4.2,0.1,3.9-0.3c-0.3-0.3-4.1-4.6-3.2-5c0.9-0.4,4.6,2.3,6.6,4.1c2,1.7,2.3,6.6,2.3,6.6L459.4,174.5z"/>
					<path class="st2" d="M485.5,167c0.1,0.8,9.4,10,9.4,10s9.8-12.6,4.7-17.9C494.5,153.7,485.5,167,485.5,167z"/>
				</g>
				<path class="st11" d="M490.5,179.6c-0.1,0.1,1.3,1.2,4-1.4c0.8-0.8,4.5-7.9,4.5-7.9l-4.5,6c0,0-0.8-0.5-0.8-0.5
					C493.6,175.8,490.5,179.6,490.5,179.6z"/>
			</g>
			<g>
				<g>
					<path class="st28" d="M205.7,276.7l12.7,1.9l13.8,1.3l15.2-21.4l6.6,2c0,0-11.5,30.6-17.4,32.2c-5.9,1.6-34.4-1.2-34.4-1.2
						L205.7,276.7z"/>
					<path class="st28" d="M242.8,246.6c-0.3,0.3-0.3,0.8-0.1,1.1c0.4,0.9,1.3,3,1.7,4.1c0.4,0.9,2.2,5.9,2.9,6.9c0.8,1,5.5,3,5.5,3
						s4.4-4.2,4.9-6c0.5-1.8,1.1-4.3,0.5-5c-0.6-0.7-1.2-0.3-1.7-0.7c-0.5-0.3-0.6-1.3-2.2-1c0,0-1.1-1.9-2.5-1.1
						c0,0,0.2-1.4,1.1-3.9c1.1-2.8,0.9-3.1,0-3.6c-0.9-0.5-2.3,2.6-3,4c-0.7,1.4-2.8,6.9-2.8,6.9l0,0c-0.4-0.6-1.2-2.2-2.1-3.5
						C244.1,246.4,243.3,246,242.8,246.6z"/>
					<path class="st29" d="M251.4,255.3c-0.4,0-0.8-0.2-1-0.6c-0.2-0.3-0.3-0.7-0.3-1.3c0-1.8,0.8-3.5,1.4-5l0.4,0.2
						c-0.6,1.4-1.3,3.1-1.3,4.8c0,0.4,0.1,0.8,0.2,1c0.2,0.2,0.5,0.5,0.8,0.4c0.2,0,0.4-0.2,0.6-0.5c0.3-0.5,0.5-1.1,0.8-1.6
						l1.1-2.9l0.4,0.2l-1.1,2.9c-0.2,0.6-0.4,1.2-0.8,1.7c-0.3,0.4-0.6,0.6-0.9,0.7C251.6,255.3,251.5,255.3,251.4,255.3z"/>
					<path class="st29" d="M253.7,255.2c-0.5,0-1.1-0.3-1.4-0.8l0.4-0.2c0.2,0.4,0.8,0.6,1.2,0.5c0.4-0.2,0.8-0.6,1-1
						c0.5-0.8,0.9-1.6,1.2-2.4l0.4,0.1c-0.3,0.9-0.7,1.7-1.2,2.5c-0.3,0.4-0.7,0.9-1.2,1.2C254,255.2,253.8,255.2,253.7,255.2z"/>
					<path class="st29" d="M255.4,255.8c-0.1,0-0.2,0-0.3,0c-0.4-0.1-0.8-0.7-0.9-1l0.4-0.1c0.1,0.3,0.3,0.7,0.5,0.7
						c0.2,0,0.5,0,0.8-0.1c0.7-0.3,1.2-0.8,1.4-1.5l0.4,0.2c-0.3,0.8-0.9,1.4-1.7,1.7C255.9,255.7,255.7,255.8,255.4,255.8z"/>
					<path class="st29" d="M250.6,257.6l-0.4-0.1c0.4-1.9-0.5-4-2.2-5.1l0.2-0.4C250,253.2,251,255.5,250.6,257.6z"/>
					<path class="st21" d="M232.1,280c0,0,0.8,2.6,1.2,4.6c0,0,1-4-0.5-5.6L232.1,280z"/>
				</g>
				<g>
					<path class="st13" d="M205.2,342.2l-0.4-12.6l0.4-43.2l-3.2-11.9l-15.3-2.6l-11.2-0.1l-19.8,6.3l-0.7,9.8
						c0,0,0.6,44.9,0.5,46.3c-0.2,1.7-5.3,11.9-5.3,11.9C171.6,351.4,205.5,343.7,205.2,342.2z"/>
					<path class="st13" d="M200.9,274.2c0,0,1.9-1.3,2.9-0.7c1,0.5,1.6,1.5,1.6,1.5l15.8,3.3c0,0-4.6,17.4-4.8,17.4
						c-0.2,0-13.9-1.4-13.9-1.4L200.9,274.2z"/>
					<path class="st21" d="M205.2,294.6c0,0,0.1-10.8,0.1-10.6c0,0.2,4.7,11,4.7,11L205.2,294.6z"/>
				</g>
				<g>
					<path class="st28" d="M174.5,273.8c0,0,2.8-5.6,1-14.9c1.1-0.5-0.4-2.9-0.3-3.8l11.7,8.7c-0.5,2.9,0,8.6,0.4,11l-4.5,4.1
						L174.5,273.8z"/>
					<path class="st11" d="M186.6,265.6l-6.8-0.5c1.1,2,2,3.8,6.9,4C186.8,269.1,186.8,266.6,186.6,265.6z"/>
					<path class="st6" d="M191.3,237.9c2.1,2.5,3,9.6-1.8,9.3C184.8,247.1,187.7,233.7,191.3,237.9z"/>
					<path class="st28" d="M172,251.1c2.5,7.5,3.7,11.8,8.6,14.7c20.6,8.8,19-26.8,3-29.1C175.5,235.7,169.5,243.5,172,251.1z"/>
					<path class="st6" d="M165.6,241.7c1.1-7.3,12.9-6.9,16.5-5.6c0.5,0.2-4.8,5.1-4.5,4.9l-2.6,1.8c-3.7,1.9,3,7.9-0.2,14.4
						C167.6,256.3,165,247,165.6,241.7z"/>
					<path class="st6" d="M183.1,250.3c0.5,1.8,2.4,1.3,1.8-0.5C184.4,247.9,182.5,248.5,183.1,250.3z"/>
					<path class="st6" d="M191,248.2c0.5,1.8,2.4,1.3,1.8-0.5C192.3,245.9,190.4,246.4,191,248.2z"/>
					<path class="st29" d="M188.3,248.5c0,0,3.6,3.2,4.8,4.5c-0.8,1.3-2.8,1.4-2.8,1.4L188.3,248.5z"/>
					<path class="st6" d="M180.3,247.1c0.1,0,0.3,0,0.4-0.2c1-1.4,2.4-1.3,2.4-1.3c1.5-1-1.6-1.2-3,0.9
						C179.8,246.8,180,247.1,180.3,247.1z"/>
					<g>
						<path class="st28" d="M170.5,258.4c2.1,3.8,9.5,4.8,7.6-1.1C176.5,251.5,167.5,251.6,170.5,258.4z"/>
						<path class="st11" d="M175.8,257.3c-0.1,0-0.2-0.1-0.2-0.2c-0.3-1-1.5-2-2.5-2c-0.6,0-1,0.2-1.3,0.8c-0.1,0.1-0.2,0.2-0.3,0.1
							c-0.1-0.1-0.2-0.2-0.1-0.3c0.4-0.7,0.9-1.1,1.7-1c1.1,0.1,2.5,1.2,2.8,2.3C176,257.1,175.9,257.2,175.8,257.3
							C175.8,257.3,175.8,257.3,175.8,257.3z"/>
					</g>
					<path class="st6" d="M193.3,244c0.3-0.1,0.3-0.5,0-0.7c-1.8-1-3.4-0.2-3.4-0.1c-0.4,0.2-0.1,0.9,0.4,0.7
						C190.5,243.5,191.9,243.6,193.3,244z"/>
					<g>
						<path class="st6" d="M168.6,253.4c0,0,5.3-7.5,11.7-11c7.1-3.9,12.3-2.7,12.3-2.7s1.2-1.2,0.4-1.9c-0.8-0.7-1.5-0.1-1.5-0.1
							s-7.6-8.1-16.7-5.5c-9.1,2.6-12.1,8.2-11.8,8.6c1.9,2.1,2.9-1.1,2.9-1.1s-2.2,3,0.3,9l0.8,2.4
							C167.1,251,166.4,253.7,168.6,253.4z"/>
						<path class="st30" d="M168.6,253.4c0,0,5.3-7.5,11.7-11c7.1-3.9,12.3-2.7,12.3-2.7s1.2-1.2,0.4-1.9c-0.8-0.7-1.5-0.1-1.5-0.1
							s-7.6-8.1-16.7-5.5c-9.1,2.6-12.1,8.2-11.8,8.6c1.9,2.1,2.9-1.1,2.9-1.1s-2.2,3,0.3,9l0.8,2.4
							C167.1,251,166.4,253.7,168.6,253.4z"/>
						<g>
							<path class="st6" d="M180.4,242c1-0.3,1.7-1.3,1.7-2.3c0-0.7-0.2-1.3-0.4-2c-0.2-0.7-0.3-1.4,0-2c0.3-0.5,0.8-0.9,1.4-0.9
								c0.6,0,1.2,0.3,1.5,0.8c-0.2-0.4-0.1-0.9,0.2-1.3s0.7-0.6,1.1-0.8c0.7-0.4,1.6-0.7,2.4-0.5c0.8,0.2,1.3,1,1.6,1.8
								c0.4,1,0.5,2.1,0.1,3.1c-0.5,1.3-1.7,2.3-3.1,2.8c-1.3,0.5-2.8,0.6-4.2,0.7"/>
						</g>
						<path class="st11" d="M165.7,240.2c0,0,1-3.5,5.3-5.2L165.7,240.2z"/>
						<path class="st21" d="M167.6,250.8l-0.2-0.1c2.6-5.1,8-10.2,13.5-12.8l0.1,0.2C175.5,240.7,170.2,245.8,167.6,250.8z"/>
					</g>
					<g>
						<path class="st6" d="M189.7,257.3c-0.6,1-1,2-1.5,3.1c-0.2,0-0.4-0.1-0.6-0.1c-2.6-0.6-3.7-1.7-4-2.8
							c-0.2-0.5-0.2-1.1-0.1-1.7c0.1-0.3,0.1-0.6,0.3-0.9c1.2,1.2,3.6,1.9,4.9,2.2C189.4,257.2,189.7,257.3,189.7,257.3z"/>
						<path class="st5" d="M188.8,257l-0.5,0.9c-2.5-0.6-4.2-1.3-4.8-2.2c0.1-0.3,0.1-0.6,0.3-0.9
							C185.1,255.9,187.5,256.7,188.8,257z"/>
						<path class="st19" d="M187.7,260.2c-2.6-0.6-3.7-1.7-4-2.8c1,0.2,1.9,0.7,2.8,1.2C187,259,187.5,259.5,187.7,260.2z"/>
					</g>
				</g>
				<g>
					<g>
						<path class="st31" d="M180.7,342.7c0,0,77.4-15.7,80.5,0.4c4.5,23-51.3,36.7-80.8,34.9C150.9,376.2,180.7,342.7,180.7,342.7z"
							/>
						<path class="st8" d="M180.7,342.7c0,0,77.4-15.7,80.5,0.4c4.5,23-51.3,36.7-80.8,34.9C150.9,376.2,180.7,342.7,180.7,342.7z"
							/>
						<path class="st20" d="M235.9,347.3l-36.8,21.9l4.6,7c0,0-2.6,3.7-7.1-8l22.8-14.1c0,0-7-0.9-6.8-2c0.3-1.8,15.8-4.7,22.8-6.1
							c0.4-0.1,0.8,0.1,0.9,0.4C236.5,346.8,236.3,347.2,235.9,347.3z"/>
						<path class="st20" d="M197.9,366.6l6,10.3c-7.8,1.1-15.6,1.5-23.5,1.2c-2.6-0.1-5.1-0.6-7.5-1.6l-2.1-4.1l5-9.4L197.9,366.6z"
							/>
						<g>
							<g>
								<g>
									<g>
										<g>
											<polygon class="st28" points="210,362.9 193.6,372.6 196.3,380.5 215.4,372.5 											"/>
										</g>
									</g>
								</g>
							</g>
							<g>
								<g>
									<g>
										<g>
											<g>
												<g>
													<g>
														<g>
															<g>
																<g>
																	<g>
																		<g>
																			<path class="st9" d="M184.7,374.9l1.4,5.6c0,0,1.2,0.3,1.5,1.5c0.2,0.7-0.4,2.5-0.4,2.5l3.8,15.6
																				c0,0,1.1-0.3,1.5-0.5c0.5-0.3,0.9-0.7,1.3-1.1c1.2-1.3,1.4-3.2,1.4-4.6c0.1-2.4,1.7-9.2,1.7-9.2s0.6-1.8,2.5-3.3
																				c1.1-0.9,1.6-2,1.5-2.7c-0.2-1.4-1.2-2-2.5-1.9L197,377c-1.1-0.8-1.4-2.2-0.6-3.5c0,0,1-3.3-0.4-2.8
																				c-0.8,0.3-4.4,1.8-7.3,2.9c-0.7,0.3-1.3,0.5-1.9,0.7l0,0C185.6,374.6,184.7,374.9,184.7,374.9z"/>
																		</g>
																	</g>
																</g>
															</g>
														</g>
													</g>
													<g>
														<g>
															<g>
																<g>
																	<path class="st15" d="M196.2,388.3c0-0.1,0-0.2,0-0.3c-0.3-0.3-0.7-0.5-1.2-0.7c-0.2-0.1-0.4,0.3-0.1,0.4
																		c0.4,0.1,0.8,0.3,1,0.6C196,388.4,196.2,388.4,196.2,388.3C196.2,388.3,196.2,388.3,196.2,388.3z"/>
																</g>
															</g>
														</g>
													</g>
													<g>
														<g>
															<g>
																<g>
																	<path class="st15" d="M196.6,387c0-0.1,0-0.2,0-0.3c-0.3-0.3-0.7-0.5-1.2-0.7c-0.2-0.1-0.4,0.3-0.1,0.4
																		c0.4,0.1,0.8,0.3,1,0.6C196.4,387.1,196.5,387.1,196.6,387C196.6,387,196.6,387,196.6,387z"/>
																</g>
															</g>
														</g>
													</g>
													<g>
														<g>
															<g>
																<g>
																	<path class="st15" d="M196.9,385.6c0-0.1,0-0.2,0-0.3c-0.3-0.3-0.7-0.5-1.2-0.7c-0.2-0.1-0.4,0.3-0.1,0.4
																		c0.4,0.1,0.8,0.3,1,0.6C196.7,385.7,196.8,385.7,196.9,385.6C196.9,385.6,196.9,385.6,196.9,385.6z"/>
																</g>
															</g>
														</g>
													</g>
												</g>
											</g>
										</g>
									</g>
								</g>
							</g>
							<g>
								<path class="st4" d="M186.8,374.1L186.8,374.1c-1.2,0.5-2.1,0.8-2.1,0.8l1.4,5.6c0,0,1.2,0.3,1.5,1.5
									c0.2,0.7-0.4,2.5-0.4,2.5l3.8,15.6c0,0,1.1-0.3,1.5-0.5c0.2-0.2,0.4-0.3,0.6-0.5l-6.1-25C187,374.1,186.9,374.1,186.8,374.1
									z"/>
							</g>
							<path class="st15" d="M199.1,386.8c-0.2,0-0.3,0-0.5-0.1c-0.6-0.1-1.6-0.9-1.9-1.2l-0.2-0.1l0.2-0.1c0.5-0.2,1.1-0.4,1.6-0.4
								c0.6-0.1,1.2,0,1.7,0.1c0.3,0.1,0.6,0.3,0.6,0.6c0.1,0.3-0.2,0.6-0.4,0.8C199.9,386.7,199.5,386.8,199.1,386.8z M196.9,385.5
								c0.6,0.4,1.3,0.9,1.7,1c0.5,0.1,1,0,1.4-0.2c0.2-0.1,0.4-0.3,0.3-0.6c0-0.2-0.3-0.4-0.5-0.4c-0.5-0.2-1-0.2-1.6-0.1
								C197.8,385.2,197.4,385.4,196.9,385.5z"/>
							<path class="st15" d="M196.6,385.6l0-0.2c0-0.4-0.1-1.7,0.2-2.3c0.2-0.6,0.6-1,1.1-1.2c0.3-0.1,0.6-0.1,0.9,0.1
								c0.2,0.2,0.2,0.5,0.2,0.8c-0.1,0.5-0.4,1-0.8,1.5c-0.4,0.4-0.8,0.8-1.3,1.1L196.6,385.6z M198.2,382.1c-0.1,0-0.2,0-0.3,0.1
								c-0.4,0.2-0.8,0.5-1,1c-0.1,0.4-0.2,1.2-0.2,2c0.4-0.3,0.8-0.6,1.1-0.9c0.4-0.4,0.7-0.9,0.8-1.4c0-0.2,0.1-0.5-0.1-0.6
								C198.5,382.2,198.4,382.1,198.2,382.1z"/>
						</g>
					</g>
					<g>
						<g>
							<g>
								<g>
									<g>
										<polygon class="st28" points="225.6,376.2 244.3,379.8 247.6,372.1 228,365.4 										"/>
									</g>
								</g>
							</g>
						</g>
						<g>
							<g>
								<g>
									<g>
										<g>
											<g>
												<g>
													<g>
														<g>
															<g>
																<g>
																	<g>
																		<path class="st9" d="M252.5,383.9l2.7-5.2c0,0-0.7-1-0.2-2.1c0.3-0.6,1.9-1.6,1.9-1.6l7.5-14.1c0,0-1-0.5-1.5-0.6
																			c-0.6-0.1-1.2-0.1-1.7,0c-1.7,0.2-3.1,1.5-4.1,2.5c-1.7,1.7-7.4,5.8-7.4,5.8s-1.6,1-4.1,0.8
																			c-1.4-0.1-2.5,0.4-2.9,1c-0.8,1.2-0.4,2.2,0.6,3l1.2,0.9c0.2,1.3-0.5,2.6-1.9,3.1c0,0-3,1.8-1.5,2.4
																			c0.8,0.3,4.5,1.6,7.3,2.7c0.7,0.3,1.3,0.5,1.9,0.7l0,0C251.7,383.6,252.5,383.9,252.5,383.9z"/>
																	</g>
																</g>
															</g>
														</g>
													</g>
												</g>
												<g>
													<g>
														<g>
															<g>
																<path class="st15" d="M252.8,366.3c-0.1,0-0.1,0.1-0.1,0.2c0,0.4,0.2,0.9,0.5,1.3c0.1,0.2,0.5,0,0.3-0.2
																	c-0.2-0.3-0.4-0.7-0.4-1.1C253,366.3,252.9,366.2,252.8,366.3C252.8,366.2,252.8,366.3,252.8,366.3z"/>
															</g>
														</g>
													</g>
												</g>
												<g>
													<g>
														<g>
															<g>
																<path class="st15" d="M251.6,367c-0.1,0-0.1,0.1-0.1,0.2c0,0.4,0.2,0.9,0.5,1.3c0.1,0.2,0.5,0,0.3-0.2
																	c-0.2-0.3-0.4-0.7-0.4-1.1C251.9,367.1,251.7,367,251.6,367C251.6,367,251.6,367,251.6,367z"/>
															</g>
														</g>
													</g>
												</g>
												<g>
													<g>
														<g>
															<g>
																<path class="st15" d="M250.5,367.9c-0.1,0-0.1,0.1-0.1,0.2c0,0.4,0.2,0.9,0.5,1.3c0.1,0.2,0.5,0,0.3-0.2
																	c-0.2-0.3-0.4-0.7-0.4-1.1C250.7,367.9,250.6,367.8,250.5,367.9C250.5,367.9,250.5,367.9,250.5,367.9z"/>
															</g>
														</g>
													</g>
												</g>
											</g>
										</g>
									</g>
								</g>
							</g>
						</g>
						<path class="st4" d="M255.1,376.6c0.3-0.6,1.9-1.6,1.9-1.6l7.5-14.1c0,0-1-0.5-1.5-0.6c-0.3,0-0.5-0.1-0.8-0.1L250.2,383
							c0.1,0,0.2,0.1,0.3,0.1l0,0c1.2,0.5,2.1,0.8,2.1,0.8l2.7-5.2C255.2,378.7,254.5,377.8,255.1,376.6z"/>
						<path class="st15" d="M250.7,368.3l-0.2-0.1c-0.5-0.2-1-0.4-1.5-0.7c-0.5-0.4-0.9-0.8-1.2-1.2c-0.2-0.3-0.2-0.6-0.1-0.8
							c0.2-0.3,0.5-0.3,0.8-0.3c0.5,0.1,1,0.4,1.4,0.9c0.3,0.5,0.6,1.8,0.7,2.2L250.7,368.3z M248.5,365.3c-0.2,0-0.4,0.1-0.5,0.2
							c-0.1,0.2,0,0.5,0.1,0.6c0.2,0.4,0.6,0.8,1.1,1.2c0.4,0.3,0.8,0.5,1.3,0.6c-0.2-0.7-0.4-1.5-0.6-1.9c-0.3-0.4-0.8-0.7-1.2-0.8
							C248.5,365.3,248.5,365.3,248.5,365.3z"/>
						<path class="st15" d="M248,370c-0.2,0-0.4,0-0.6-0.1c-0.3-0.1-0.6-0.3-0.6-0.7c0-0.3,0.1-0.5,0.4-0.7c0.4-0.3,1-0.5,1.6-0.5
							c0.6-0.1,1.1,0,1.7,0l0.2,0l-0.1,0.2c-0.2,0.3-1.1,1.3-1.6,1.6C248.7,370,248.3,370,248,370z M249.4,368.2c-0.2,0-0.3,0-0.5,0
							c-0.6,0.1-1.1,0.2-1.5,0.5c-0.1,0.1-0.4,0.3-0.4,0.5c0,0.2,0.2,0.4,0.5,0.5c0.4,0.2,1,0.1,1.4-0.1c0.4-0.2,0.9-0.8,1.4-1.4
							C250,368.2,249.7,368.2,249.4,368.2z"/>
					</g>
					<path class="st32" d="M155.4,365.6c-3.9-6.6-12.5-24.3,6.2-27.2c18.7-2.9,79.8,28.4,79.8,28.4l-4.3,11.7l-57.4-10.8
						c0,0,7.6,10.8-2,10C163.8,376,160.5,372.6,155.4,365.6z"/>
					<path class="st20" d="M181,367.9l-15.8-5c0,0,13.3,8.1,18.2,9.1L181,367.9z"/>
				</g>
				<g>
					<g>
						<g>
							<path class="st6" d="M219.3,343.2l-15.5,0.4l-16.4,0.4c0,0,0,0,0,0c0,1.2,1.4,2.2,3.1,2.1l16.4-0.4l9.4-0.2c0,0,0,0,0,0
								c0,0,0,0,0,0l26.1-0.6c1.7-0.1,3-1.1,2.9-2.3L219.3,343.2z"/>
						</g>
						<path class="st6" d="M242.9,344.7l-29.1,0.7c-0.5,0-0.9-0.3-0.9-0.7c0-0.1,0-0.2,0-0.2l12.2-30c0.3-0.9,1.3-1.5,2.4-1.5
							l29.2-0.7c0.5,0,0.9,0.3,0.9,0.7c0,0.1,0,0.2,0,0.2l-12.2,30C245,344.1,244,344.7,242.9,344.7z"/>
						<path class="st15" d="M256.7,312.2l-29.1,0.7c-1.1,0-2.1,0.6-2.4,1.5l-11.8,28.9l-9.5,0.2l-16.4,0.4c0,0,0,0,0,0
							c0,1.2,1.4,2.2,3.1,2.1l16.4-0.4l9.4-0.2c0,0,0,0,0,0c0,0,0,0,0,0l26.1-0.6c0.5,0,1-0.1,1.4-0.3c0.7-0.2,1.2-0.7,1.4-1.3
							l12.2-30c0-0.1,0-0.2,0-0.2C257.6,312.5,257.2,312.2,256.7,312.2z"/>
						<path class="st5" d="M239.5,328.5c-0.6,1.4-1.8,2.5-2.8,2.3c-1-0.2-1.2-1.5-0.7-2.9c0.6-1.4,1.8-2.4,2.8-2.3
							C239.8,325.8,240.1,327,239.5,328.5z"/>
					</g>
					<g class="st21">
						<line class="st33" x1="212.8" y1="343.4" x2="213.4" y2="343.3"/>
						<path class="st34" d="M225.1,314.4l-11.8,28.9l1.4,0l12.8-30.4C226.4,313,225.4,313.6,225.1,314.4z"/>
					</g>
				</g>
				<g>
					<polygon class="st11" points="167.4,305 170.8,304.1 166.9,293.1 173.5,306.2 168.1,308.3 					"/>
					<path class="st28" d="M164.9,292.1c0,0,4.6,26.8,7,29.5c3.9,4.5,23.7,16.7,23.7,16.7l10.2-3.2c0.7-0.2,1.5-0.1,2.1,0.4l6.7,5.5
						l-0.7,0.5c-0.3,0.2-0.7,0.3-1,0.1l-1.1-0.6l1.2,1.2l-0.4,0.3c-0.4,0.3-0.9,0.4-1.4,0.3l-3.1-0.9l2.8,2
						c-0.6,0.5-1.5,0.7-2.3,0.4l-4.5-1.4c-3.1,0.6-6.2,1-9.4,1.1c-5.3,0.2-30.1-9.3-34.5-15.8c-4.5-6.5-8.5-33.2-8.5-33.2
						L164.9,292.1z"/>
					<g>
						<path class="st13" d="M152.4,309.1c0,0-5.7-26.4,3.4-31.1c5.9-3,15.1,26.1,15.1,26.1L152.4,309.1z"/>
					</g>
				</g>
			</g>
		</g>
		<g>
			<path class="st16" d="M622.4,358H591v-31.3h31.3V358z M598.2,350.7h16.9v-16.9h-16.9V350.7z"/>
			<path class="st35" d="M605.6,340l-8.3-6.5l0.3,0.5c2.6,4.2,9,14.2,9,14.2c0.2-0.3,0.4-0.6,0.6-0.9c6.7-10.5,25.1-24.5,25.1-24.5
				C622.5,327,605.6,340,605.6,340z"/>
		</g>
		<g>
			<path class="st16" d="M622.4,292.6H591v-31.3h31.3V292.6z M598.2,285.4h16.9v-16.9h-16.9V285.4z"/>
			<path class="st35" d="M605.6,274.7l-8.3-6.5l0.3,0.5c2.6,4.2,9,14.2,9,14.2c0.2-0.3,0.4-0.6,0.6-0.9
				c6.7-10.5,25.1-24.5,25.1-24.5C622.5,261.7,605.6,274.7,605.6,274.7z"/>
		</g>
		<g>
			<path class="st16" d="M622.4,227.3H591v-31.3h31.3V227.3z M598.2,220h16.9v-16.9h-16.9V220z"/>
			<path class="st35" d="M605.6,209.3l-8.3-6.5l0.3,0.5c2.6,4.2,9,14.2,9,14.2c0.2-0.3,0.4-0.6,0.6-0.9
				c6.7-10.5,25.1-24.5,25.1-24.5C622.5,196.4,605.6,209.3,605.6,209.3z"/>
		</g>
		<g>
			<path class="st16" d="M622.4,161.9H591v-31.3h31.3V161.9z M598.2,154.7h16.9v-16.9h-16.9V154.7z"/>
			<path class="st35" d="M605.6,144l-8.3-6.5l0.3,0.5c2.6,4.2,9,14.2,9,14.2c0.2-0.3,0.4-0.6,0.6-0.9c6.7-10.5,25.1-24.5,25.1-24.5
				C622.5,131,605.6,144,605.6,144z"/>
		</g>
		<g>
			<path class="st16" d="M622.4,96.6H591V65.3h31.3V96.6z M598.2,89.4h16.9V72.5h-16.9V89.4z"/>
			<path class="st35" d="M605.6,78.7l-8.3-6.5l0.3,0.5c2.6,4.2,9,14.2,9,14.2c0.2-0.3,0.4-0.6,0.6-0.9c6.7-10.5,25.1-24.5,25.1-24.5
				C622.5,65.7,605.6,78.7,605.6,78.7z"/>
		</g>
		<g>
			<path class="st36" d="M630.1,355.3c-0.2-0.3-0.5-0.5-0.7-0.7c1,0.2,2,0.4,3.1,0.5l-1.5,1.6C630.4,355.8,630.1,355.3,630.1,355.3z
				 M638.2,366.6L638.2,366.6L638.2,366.6C638.2,366.6,638.2,366.6,638.2,366.6L638.2,366.6z M641.1,354.7c3.1-0.5,5.3-1.1,5.4-1.2
				c0,0,0,0,0,0l0,0c0.6,1,1.2,2,1.7,2.8l1.8,3L641.1,354.7z"/>
			<g>
				<g>
					<path class="st37" d="M668.1,378.9l-8,0.6l0,0l-4.8,0.4l-10.2-6.9l-3.4,7c-2.3,6.1-7.9,5.5-7.9,5.5l0.5-1.6l4.4-13.1
						c3.6-10.7,4.9-8.2,4.9-8.2l24.5,8.3L668.1,378.9z"/>
					<path class="st38" d="M665.9,353.3l-0.1,0l-15.7-2.3c0,0,0,0,0,0c-0.1,0-1,0.1-2.5,0.2l0,0c-0.7,0-1.6,0.1-2.7,0.1
						c-1.9,0.1-4.3,0.1-7.1-0.1c-1.9-0.1-4-0.2-6.3-0.4l0,0c-0.3,0-0.6-0.1-0.9-0.1c-1.2-0.4-2.2-0.8-3.1-1.3
						c-1.5-0.9-2.4-1.9-3.1-2.8c-0.2-0.2-0.3-0.5-0.4-0.7c-0.3-0.5-0.5-1-0.6-1.4c-0.2-0.5-0.2-0.8-0.2-0.8l0.6-0.1l5.6-0.7l1.8-0.2
						l0,0l20.4-2.5c1.2-0.1,2.5,0.3,3.3,1.2l0.8,0.9l4.3,4.6l0.1,0.1L665.9,353.3z"/>
					<path class="st39" d="M664.1,368.4l-6.4,1.3l-4.3,0.9l-1.9,0.4l-9.9-6.9l-3.6,8.8c-0.3,1.4-0.8,2.4-1.4,3.3
						c-2.2,3.1-5.7,3.2-5.7,3.2l0.1-0.6l2.9-14.6c2.2-11.1,3.8-8.8,3.8-8.8l25.4,5.1L664.1,368.4z"/>
					<path class="st40" d="M651.5,371l-9.9-6.9l-3.6,8.8c-0.3,1.4-0.8,2.4-1.4,3.3c2.4-3.7,3.3-14.2,3.3-14.2
						c7.2,5.3,16.4,5.1,16.4,5.1l-2.9,3.6L651.5,371z"/>
					<path class="st41" d="M665.7,365.4l-3.9,2.3l-0.6,0.4l-3.9,2.2l-0.7,0.4l-8.2-5.8l-5.9-5.4c-9.6,9.9-15.7,9.3-17.9,7.8
						c0,0,0,0,0,0c-0.1-0.1-0.2-0.2-0.3-0.3c-0.3-0.2-0.5-0.5-0.6-0.7c0,0,0,0,0,0c-0.3-0.4-0.4-0.7-0.4-0.7l16-16.5l19.2,10.4
						L665.7,365.4z"/>
					<path class="st40" d="M657.2,370.2l-0.7,0.4l-8.2-5.8l-5.9-5.4c-9.6,9.9-15.7,9.3-17.9,7.8c7.7,2.5,17.9-9.2,17.9-9.2
						c8.4,8.3,15.5,4.4,15.5,4.4L657.2,370.2z"/>
					<path class="st38" d="M662.4,442.7l-13.4-34.3l0-0.1l-2.9-7.3c-12.2-12.9-11.6-25.6-11.6-25.6l-8.9-18.4l-0.1-0.3l-1.5-3
						l-1.6-3.3l-0.3-0.5c0,0,2.4-0.7,5.2-0.3c0,0,0,0,0,0c0.2,0,0.3,0,0.5,0.1c0,0,0,0,0,0c0,0,0,0,0,0c0.1,0,0.2,0,0.4,0.1
						c1.8,0.4,3.7,1.2,5.3,3c0.2,0.2,5.8,9.4,11.1,15c2,2.1,5.1,2.4,7.4,1c0.7-0.4,1.3-1,1.8-1.7l2.9-4.4c0,0,0-0.1-0.2-0.4
						c-0.5-0.8-1.9-3.5-6.5-11.1l5.7-8.6l17.7,19.1c0.9,1,1.4,2.3,1.3,3.7l-2,28l10.8,27L662.4,442.7z"/>
					<path class="st38" d="M650.5,372l6.9-9.7l0,0l0.1,0c-5.1-6.3-6-13.3-6-13.3c-12.9,5-25-0.2-25-0.2c7.8,6.9,23.6,2.3,23.6,2.3
						l6.6,11.5c0,0,0,0,0,0L650.5,372z"/>
				</g>
				<path class="st42" d="M651.5,407.2l-2.5,1.2l0-0.1l-2.9-7.3c-12.2-12.9-11.6-25.6-11.6-25.6l-8.9-18.4l-0.1-0.3l-1.5-3l1.5-0.8
					l0.8-0.3c0,0,5.2,13.8,12.1,23.2c0.5,0.7,0.8,1.6,0.8,2.5c-0.2,3.7,0.1,14,9.3,21.7L651.5,407.2z"/>
				<g>
					<g>
						<path class="st5 whitehand" d="M649.8,414.7c0.8-0.6,1.9-0.4,2.5,0.4s0.4,1.9-0.4,2.5s-1.9,0.4-2.5-0.4S649,415.3,649.8,414.7z"/>
					</g>
					<g>
						<path class="st43" d="M631.7,345c0.1,0.4-0.1,0.8-0.5,0.9c-1.6,0.5-5.4,1.3-7-1.4c-0.1-0.2-0.3-0.5-0.4-0.8l5.6-0.7l1.8-0.2
							l0.2,0.7l0,0.1L631.7,345z"/>
						<path class="st44" d="M687,364.8l1.3,0.2c0.6,0.1,1.3-0.3,1.4-0.9l0.4-2.3c0.1-0.6-0.3-1.2-1-1.4l-1.3-0.2L687,364.8
							L687,364.8z"/>
						<path class="st43" d="M624.1,365.3c-0.1-0.1-0.3-0.2-0.4-0.4l3.9-4l0.3,0.6l0.9,1.8C628.7,363.4,626.2,366.8,624.1,365.3z"/>
						<path class="st43" d="M631.8,378.7c-0.4,0.1-0.7,0.1-0.7,0.1l1.2-6l0.7,0.1l0.4,0.1l1.2,2.6
							C634.1,377.9,632.7,378.5,631.8,378.7z"/>
						<path class="st43" d="M636.2,384.8c-0.5,0.1-1.2,0.3-1.7,0.3c-0.4,0.1-0.6,0.1-0.6,0.1l0,0l1.3-3.9l0.1,0.3L636.2,384.8z"/>
						<g>
							<path class="st7 whitehand" d="M631.4,343.7l-7.2,0.8c-0.1-0.2-0.3-0.5-0.4-0.8l5.6-0.7l1.8-0.2l0,0L631.4,343.7L631.4,343.7z"/>
							<path class="st7 whitehand" d="M626.1,356.4l-0.6,0.2l-3.1-6.3c0.2,0,0.4-0.1,0.7-0.1c0,0,0,0,0,0L626.1,356.4z"/>
							<polygon class="st7 whitehand" points="624.2,365.4 623.7,365 627.6,361 627.9,361.6 624.1,365.3 							"/>
							<path class="st7 whitehand" d="M631.8,378.7c-0.4,0.1-0.7,0.1-0.7,0.1l1.2-6l0.7,0.1L631.8,378.7z"/>
							<polygon class="st45" points="634.6,385.1 634,385.2 635.3,381.3 635.3,381.6 635.5,382.5 							"/>
						</g>
					</g>
				</g>
				<path class="st43" d="M629.2,354.4c0.2,0.4,0,0.9-0.5,1l-2.7,1l-0.6,0.2l-3.1-6.3c0.2,0,0.4-0.1,0.7-0.1c0,0,0,0,0,0
					c0.1,0,0.3,0,0.4-0.1C627,349.7,628.6,352.9,629.2,354.4z"/>
			</g>
		</g>
		<g>
			<path class="st5 whitehand" d="M676.5,399.9l-2.4-6.8c0,0-13.6,3.5-28.1,15.2l2.9,7.6C649,415.9,657.6,407.3,676.5,399.9z"/>
			<path class="st46" d="M696.2,445.8l-36.7,12.5l-14.1-44c2.7-2.8,5.6-5.1,8.4-7.2c12-8.6,23.5-10.9,23.5-10.9L696.2,445.8z"/>
			<path class="st47" d="M670.3,454.5l-10.9,3.9l-14.1-44c2.7-2.8,5.6-5.1,8.4-7.2L670.3,454.5z"/>
		</g>
		<g>
			<polygon class="st48" points="614.4,348.9 609.4,345.8 609.4,345.8 607.7,344.8 609.6,344.6 609.7,344.6 615.7,344.1 			"/>
			<path class="st49" d="M687,364.8l-13.4-2.9l-19.8-4.3l-0.4-0.1l-4.9-1.1l0,0l-8.1-1.8l-5.3-1.2l-1.3-0.3c0,0,0-0.1-0.1-0.1
				c-0.1-0.1-0.1-0.2-0.2-0.3l0,0c0-0.1-0.1-0.1-0.1-0.1c-0.3-0.3-0.6-0.6-0.8-0.8c-0.1-0.1-0.3-0.2-0.4-0.4
				c-0.1-0.1-0.3-0.2-0.5-0.3c-0.1-0.1-0.2-0.1-0.3-0.2l0,0c-0.1-0.1-0.2-0.1-0.3-0.2c-0.1-0.1-0.2-0.1-0.3-0.2c0,0,0,0,0,0
				c-0.2-0.1-0.3-0.2-0.5-0.2c-0.2-0.1-0.3-0.1-0.5-0.2c-0.1-0.1-0.3-0.1-0.4-0.2c-0.1,0-0.1,0-0.2,0c0,0-0.1,0-0.1,0
				c-0.2-0.1-0.3-0.1-0.5-0.1c-0.1,0-0.2-0.1-0.3-0.1c-0.1,0-0.1,0-0.2,0c-0.2,0-0.3-0.1-0.5-0.1c-0.1,0-0.2,0-0.3,0
				c-0.1,0-0.1,0-0.2,0c0,0,0,0,0,0c-0.1,0-0.2,0-0.3,0c0,0-0.1,0-0.1,0c-0.2,0-0.3,0-0.4,0c-0.3,0-0.6,0-0.9,0c-0.1,0-0.3,0-0.4,0
				c0,0,0,0,0,0c-0.1,0-0.3,0-0.4,0c-0.1,0-0.2,0-0.3,0c-0.2,0-0.3,0-0.5,0c0,0,0,0,0,0c0,0,0,0,0,0c-0.1,0-0.1,0-0.2,0
				c-0.2,0-0.4,0.1-0.6,0.1c-0.1,0-0.1,0-0.2,0c-0.2,0-0.4,0.1-0.5,0.1c0,0-0.1,0-0.1,0c-0.1,0-0.2,0.1-0.2,0.1l0.3,0.5l0.2,0.3
				l-8.2-1.8l0,0l0.6-2.1l0.7-2.7l0,0l4.8,1.1l3.5,0.8l2.6,0.6l13.3,3l3.4,0.8l0,0l4.2,0.9l0,0l2.9,0.7l17.5,3.9l19.7,4.4l-0.4,2.3
				L687,364.8z"/>
			<path class="st50" d="M609.4,345.8L609.4,345.8l-1.8-1.1l1.9-0.1l0.1,0C609.7,345,609.6,345.4,609.4,345.8z"/>
			<g>
				<path class="st51" d="M614.9,346.8l12.4,2.7c0,0,0,0,0,0c-0.1,0-0.2,0-0.3,0c0,0-0.1,0-0.1,0c-0.2,0-0.3,0-0.4,0
					c-0.3,0-0.6,0-0.9,0c-0.1,0-0.3,0-0.4,0c0,0,0,0,0,0c-0.1,0-0.3,0-0.4,0c-0.1,0-0.2,0-0.3,0c-0.2,0-0.3,0-0.5,0c0,0,0,0,0,0
					c0,0,0,0,0,0c-0.1,0-0.1,0-0.2,0c-0.2,0-0.4,0.1-0.6,0.1c-0.1,0-0.1,0-0.2,0c-0.2,0-0.4,0.1-0.5,0.1c0,0-0.1,0-0.1,0
					c-0.1,0-0.2,0.1-0.2,0.1l0.3,0.5l0.2,0.3l-8.2-1.8l0,0L614.9,346.8z"/>
				<path class="st51" d="M687,364.8l-13.4-2.9l-19.8-4.3l-0.4-0.1l-4.9-1.1l0,0l-8.1-1.8l-5.3-1.2l-1.3-0.3c0,0,0-0.1-0.1-0.1
					c-0.1-0.1-0.1-0.2-0.2-0.3l0,0c0-0.1-0.1-0.1-0.1-0.1c-0.3-0.3-0.6-0.6-0.8-0.8c-0.1-0.1-0.3-0.2-0.4-0.4
					c-0.1-0.1-0.3-0.2-0.5-0.3c-0.1-0.1-0.2-0.1-0.3-0.2l0,0c-0.1-0.1-0.2-0.1-0.3-0.2c-0.1-0.1-0.2-0.1-0.3-0.2c0,0,0,0,0,0
					c-0.2-0.1-0.3-0.2-0.5-0.2c-0.2-0.1-0.3-0.1-0.5-0.2c-0.1-0.1-0.3-0.1-0.4-0.2c-0.1,0-0.1,0-0.2,0l58,12.5L687,364.8z"/>
			</g>
		</g>
	</g>
</g>
</svg>
