<?xml version="1.0" encoding="utf-8"?>
<!-- Generator: Adobe Illustrator 23.0.2, SVG Export Plug-In . SVG Version: 6.00 Build 0)  -->
<svg version="1.1" id="Layer_1" xmlns="http://www.w3.org/2000/svg" xmlns:xlink="http://www.w3.org/1999/xlink" x="0px" y="0px"
	 viewBox="0 0 750 420" style="enable-background:new 0 0 750 420;" xml:space="preserve">
<style type="text/css">
	.st0{fill:#EEF8F7;}
	.st1{fill:#F5F5F5;}
	.st2{fill:#E0E0E0;}
	.st3{fill:#FAFAFA;}
	.st4{fill:#253342;}
	.st5{fill:#FFFFFF;}
	.st6{fill:#263238;}
	.st7{fill:#00BCA4;}
	.st8{fill:#CBD6E2;}
	.st9{fill:#33475B;}
	.st10{fill:none;}
	.st11{fill:#FAF6ED;}
	.st12{fill:#DFF4FD;}
	.st13{fill:#BCE0E4;}
	.st14{fill:#FFF7F5;}
	.st15{fill:#FFF8F6;}
	.st16{fill:#F2F3FF;}
	.st17{fill:whitesmoke;}
	.st18{fill:#E9EFF5;}
	.st19{fill:#FF725E;}
	.st20{fill:#EAEAEA;}
	.st21{fill:#FFBD9C;}
	.st22{fill:#EA986E;}
	.st23{fill:#F4F4F4;}
	.st24{fill:#A96550;}
	.st25{fill:#455A64;}
	.st26{fill:#F9F9F9;}
	.st27{fill:#7C97B5;}
	.st28{opacity:0.3;}
	.st29{fill:#F4F0E7;}
	.st30{fill:#FFF1EF;}
	.st31{fill:#F5DCDE;}
	.st32{fill:#B6DADE;}
	.st33{fill:#ECEDFF;}
	.st34{fill:#7C91AF;}
	.st35{fill:#C4CFDB;}
	.st36{fill:url(#SVGID_1_);}
	.st37{fill:url(#SVGID_2_);}
	.st38{fill:url(#SVGID_3_);}
	.st39{fill:url(#SVGID_4_);}
	.st40{fill:url(#SVGID_5_);}
	.st41{fill:#00B69E;}
	.st42{fill:#6A78CA;}
	.st43{fill:#FF7A59;}
	.st44{fill:#EEBB6B;}
	.st45{fill:#00A2F3;}
	.st46{fill:#E8F2F1;}
	.st47{fill:#E3E9EF;}
	.st48{fill:#D9EEF7;}
	.st49{fill:#EB545B;}
	.st50{fill:#009DB6;}
	.st51{fill:#F3F3F3;}
	.st52{fill:#D9D9D9;}
	.st53{opacity:0.6;}
	.st54{fill:#E39A84;}
	.st55{fill:#A36550;}
	.st56{opacity:0.71;fill:#6A78CA;enable-background:new    ;}
	.st57{opacity:0.5;fill:#6A78CA;enable-background:new    ;}
	.st58{fill:#FFB796;}
	.st59{fill:#E4926E;}
	.st60{opacity:0.2;}
	.st61{fill:#E8AE9C;}
	.st62{fill:#33475B;enable-background:new    ;}
	.st63{fill:none;}
	.st64{fill-rule:evenodd;clip-rule:evenodd;fill:#6A78CA;}
	.st65{fill:#EEEEEE;}
	.st66{fill:#874842;}
	.st67{fill:#EB9968;}
	.st68{fill:#E38465;}
	.st69{fill:#E4E4E4;}
	.st70{fill:#D99C89;}
	.st71{fill:#925037;}
	.st72{fill:#D4966A;}
	.st73{fill:#C4CFDB;enable-background:new    ;}
	.st74{fill:#E3E9EF;enable-background:new    ;}
	.st75{fill:#B08176;}
	.st76{fill:#DEA695;}
	.st77{fill:#FFFFFF;stroke:#000000;stroke-width:0.5;stroke-miterlimit:10;}
	.st78{fill:#DB9D8A;}
	.st79{fill:#CC8B80;}
	.st80{fill:#65463C;}
	.st81{fill:#E68F7E;}
	.st82{fill:#DB8579;}
	.st83{fill:#6F4439;}
	.st84{fill:#F0B382;}
	.st85{fill:none;stroke:#E3E9EF;stroke-width:0.6249;stroke-linecap:round;stroke-miterlimit:10;}
	.st86{fill:none;stroke:#E3E9EF;stroke-width:1.2063;stroke-linecap:round;stroke-miterlimit:10;}
	.st87{fill:none;stroke:#E3E9EF;stroke-width:1.0028;stroke-linecap:round;stroke-miterlimit:10;}
	.st88{fill:#C4CFDB;stroke:#282828;stroke-width:0.436;stroke-miterlimit:10;}
	.st89{fill:none;stroke:#232323;stroke-width:0.3051;stroke-linecap:round;stroke-miterlimit:10;}
	.st90{fill:none;stroke:#263238;stroke-width:0.3068;stroke-miterlimit:10;}
	.st91{fill:none;stroke:#263238;stroke-width:0.4261;stroke-miterlimit:10;}
	.st92{fill:#6A78D0;}
	.st93{fill:#E6A996;}
	.st94{fill:#D69483;}
	.st95{fill:#DE9481;}
	.st96{fill:#7C91AF;stroke:#FFFFFF;stroke-width:0.25;stroke-miterlimit:10;}
	.st97{fill:#E1A29C;}
	.st98{fill:#D48B88;}
	.st99{fill:#6F4C47;}
	.st100{fill:#E19680;}
	.st101{fill:#E3876E;}
	.st102{fill:#DFDFDF;}
	.st103{fill:none;stroke:#FFFFFF;stroke-width:0.5;stroke-miterlimit:10;}
	.st104{fill:#F4C16B;}
	.st105{fill-rule:evenodd;clip-rule:evenodd;fill:#FFFFFF;}
	.st106{fill:#E79977;}
	.st107{fill:#724940;}
	.st108{fill-rule:evenodd;clip-rule:evenodd;fill:#F4C16B;}
	.st109{fill-rule:evenodd;clip-rule:evenodd;fill:#263238;}
	.st110{fill:#00A3BC;}
	.st111{fill:#F1A787;}
	.st112{fill:#E79C88;}
	.st113{fill:#DA8F81;}
	.st114{fill-rule:evenodd;clip-rule:evenodd;fill:#E9EFF5;}
	.st115{fill-rule:evenodd;clip-rule:evenodd;fill:#7C97B5;}
	.st116{fill-rule:evenodd;clip-rule:evenodd;fill:#FF725E;}
	.st117{fill:#B68776;}
	.st118{fill:#253342;enable-background:new    ;}
	.st119{fill:none;stroke:whitesmoke;stroke-miterlimit:10;}
	.st120{fill:#FFFFFF;enable-background:new    ;}
	.st121{fill:none;stroke:whitesmoke;stroke-width:0.9147;stroke-miterlimit:10;}
	.st122{fill:none;stroke:#000000;stroke-width:0.12;stroke-miterlimit:10;}
	.st123{fill:none;stroke:#00BCA4;stroke-miterlimit:10;}
	.st124{fill:#EEAD91;}
	.st125{fill:#FFC7A8;}
	.st126{clip-path:url(#SVGID_9_);}
	.st127{opacity:0.4;}
	.st128{clip-path:url(#SVGID_11_);}
	.st129{opacity:0.8;}
	.st130{opacity:0.7;}
	.st131{opacity:0.5;}
	.st132{opacity:0.1;}
	.st133{fill:#F8A78E;}
	.st134{fill:#EC9A84;}
	.st135{fill:#664D42;}
	.st136{fill:#FFBE9C;}
	.st137{fill:#FF996C;}
	.st138{fill:#F8C89C;}
	.st139{fill:none;stroke:#E9EFF5;stroke-width:0.5705;stroke-linecap:round;stroke-miterlimit:10;}
	.st140{fill:none;stroke:#E9EFF5;stroke-width:1.1014;stroke-linecap:round;stroke-miterlimit:10;}
	.st141{fill:none;stroke:#E9EFF5;stroke-width:0.9156;stroke-linecap:round;stroke-miterlimit:10;}
	.st142{fill:whitesmoke;stroke:#282828;stroke-width:0.3981;stroke-miterlimit:10;}
	.st143{fill:none;stroke:#232323;stroke-width:0.2786;stroke-linecap:round;stroke-miterlimit:10;}
	.st144{fill:none;stroke:#E9EFF5;stroke-width:0.5836;stroke-linecap:round;stroke-miterlimit:10;}
	.st145{fill:none;stroke:#E9EFF5;stroke-width:1.1265;stroke-linecap:round;stroke-miterlimit:10;}
	.st146{fill:none;stroke:#E9EFF5;stroke-width:0.9365;stroke-linecap:round;stroke-miterlimit:10;}
	.st147{fill:whitesmoke;stroke:#282828;stroke-width:0.4072;stroke-miterlimit:10;}
	.st148{fill:none;stroke:#232323;stroke-width:0.2849;stroke-linecap:round;stroke-miterlimit:10;}
	.st149{fill:none;stroke:#E9EFF5;stroke-width:0.5301;stroke-linecap:round;stroke-miterlimit:10;}
	.st150{fill:none;stroke:#E9EFF5;stroke-width:1.0233;stroke-linecap:round;stroke-miterlimit:10;}
	.st151{fill:none;stroke:#E9EFF5;stroke-width:0.8506;stroke-linecap:round;stroke-miterlimit:10;}
	.st152{fill:whitesmoke;stroke:#282828;stroke-width:0.3698;stroke-miterlimit:10;}
	.st153{fill:none;stroke:#232323;stroke-width:0.2588;stroke-linecap:round;stroke-miterlimit:10;}
	.st154{fill:#020202;}
	.st155{fill:#FFFFFF;stroke:#020202;stroke-width:0.25;stroke-miterlimit:10;}
	.st156{fill:#FFFFFF;stroke:#020202;stroke-miterlimit:10;}
	.st157{fill:#FFFFFF;stroke:#020202;stroke-width:0.5;stroke-miterlimit:10;}
	.st158{fill:#FFFFFF;stroke:#020202;stroke-width:0.1363;stroke-miterlimit:10;}
	.st159{fill:#FFFFFF;stroke:#020202;stroke-width:0.545;stroke-miterlimit:10;}
	.st160{fill:#FFFFFF;stroke:#020202;stroke-width:0.2725;stroke-miterlimit:10;}
	.st161{fill:#C59380;}
	.st162{fill:#926457;}
	.st163{fill:#EEA79F;}
	.st164{fill:#E4948E;}
	.st165{fill:#DA8775;}
	.st166{fill:#723F33;}
	.st167{fill:#E18D87;}
	.st168{fill:#7B4B45;}
	.st169{fill:#D07D7C;}
	.st170{fill:#F3B38F;}
	.st171{fill-rule:evenodd;clip-rule:evenodd;fill:#DFDFDF;}
	.st172{fill-rule:evenodd;clip-rule:evenodd;fill:whitesmoke;}
	.st173{fill:#E9A691;}
	.st174{fill:#00A8F9;}
	.st175{fill:#1A2E35;}
	.st176{fill:none;stroke:#33475B;stroke-width:0.5;stroke-miterlimit:10;}
	.st177{fill:#E1E1E1;}
	.st178{fill:#ECECEC;}
	.st179{fill:#FFC19D;}
	.st180{fill:#FF9C6A;}
	.st181{fill:#375A64;}
	.st182{fill:#DCA593;}
	.st183{fill:#FBFBFB;}
	.st184{fill:#E79E8A;}
	.st185{fill:#EEB5AA;}
	.st186{fill:#E7A090;}
	.st187{fill:#8E4E45;}
	.st188{fill:#B67153;}
	.st189{fill:#985037;}
	.st190{fill:none;stroke:#E9EFF5;stroke-width:0.25;stroke-miterlimit:10;}
	.st191{fill:#E19C89;}
	.st192{fill:#D28E7D;}
	.st193{fill:#EEB578;}
	.st194{fill:#E4A96E;}
	.st195{fill:#6D4E4A;}
	.st196{fill:#E1AD9B;}
	.st197{fill:#705A53;}
	.st198{fill:#D59E8F;}
	.st199{fill:#E9AE9F;}
	.st200{fill:whitesmoke;stroke:#E9EFF5;stroke-width:0.75;stroke-miterlimit:10;}
	.st201{fill:#F3AA94;}
	.st202{fill:#E79E8D;}
	.st203{fill:none;stroke:#253342;stroke-miterlimit:10;}
	.st204{fill:none;stroke:#253342;stroke-width:0.75;stroke-miterlimit:10;}
	.st205{fill:#A26957;}
	.st206{opacity:0.2;enable-background:new    ;}
	.st207{fill:#DC9380;}
	.st208{fill:#CD897A;}
	.st209{fill:#E4B9AA;}
	.st210{fill:#D68676;}
	.st211{fill:#EFEFEF;}
	.st212{fill:#E1A390;}
	.st213{fill:#E48F7C;}
	.st214{fill:#E19885;}
	.st215{opacity:0.3;enable-background:new    ;}
	.st216{fill:#C37666;}
	.st217{fill:#E18774;}
	.st218{clip-path:url(#SVGID_15_);}
	.st219{clip-path:url(#SVGID_17_);}
	.st220{fill:#E19C87;}
	.st221{fill:#E7B09F;}
	.st222{fill:#DF9A88;}
	.st223{fill:#ECA28B;}
	.st224{fill-rule:evenodd;clip-rule:evenodd;fill:#00A8F9;}
	.st225{fill-rule:evenodd;clip-rule:evenodd;fill:#33475B;}
	.st226{fill:#7C97B5;stroke:whitesmoke;stroke-width:0.5;stroke-miterlimit:10;}
	.st227{fill:#AD7461;}
	.st228{clip-path:url(#SVGID_19_);}
	.st229{fill:#EEB09D;}
	.st230{fill:#EEBD9C;}
	.st231{fill:#E6986E;}
	.st232{fill:#E9A191;}
	.st233{fill:#8A5D54;}
	.st234{fill-rule:evenodd;clip-rule:evenodd;fill:#00BCA4;}
	.st235{fill:none;stroke:whitesmoke;stroke-width:0.5;stroke-miterlimit:10;}
	.st236{fill:none;stroke:#00BCA4;stroke-width:0.75;stroke-miterlimit:10;}
	.st237{fill:none;stroke:#00BCA4;stroke-width:0.5;stroke-miterlimit:10;}
	.st238{fill:#E4B0A0;}
	.st239{fill:none;stroke:#263238;stroke-width:0.5;stroke-miterlimit:10;}
	.st240{fill:none;stroke:#00A8F9;stroke-miterlimit:10;}
	.st241{fill:#FBAC80;}
	.st242{fill:#E78F4D;}
	.st243{fill:#9C4941;}
	.st244{fill:whitesmoke;enable-background:new    ;}
	.st245{fill:#E19A87;}
	.st246{fill:#D08B79;}
	.st247{fill:#E9A385;}
	.st248{fill:#804842;}
	.st249{fill:#AA645B;}
	.st250{fill:none;stroke:#7C97B5;stroke-miterlimit:10;}
	.st251{fill:none;stroke:#263238;stroke-width:0.75;stroke-miterlimit:10;}
	.st252{fill:#E1917D;}
	.st253{fill:#FFD0BC;}
	.st254{fill:#D59D89;}
	.st255{fill:#CB8E75;}
	.st256{opacity:0.78;}
	.st257{fill:none;stroke:#7C97B5;stroke-width:0.1606;stroke-miterlimit:10;}
	.st258{fill:none;stroke:whitesmoke;stroke-width:0.3106;stroke-linecap:round;stroke-miterlimit:10;}
	.st259{fill:none;stroke:#7C97B5;stroke-width:0.3106;stroke-miterlimit:10;}
	.st260{fill:none;stroke:#253342;stroke-width:0.3106;stroke-miterlimit:10;}
	.st261{fill:none;stroke:#7C97B5;stroke-width:6.425872e-02;stroke-miterlimit:10;}
	.st262{fill:none;stroke:#6A78D0;stroke-width:0.1606;stroke-miterlimit:10;}
	.st263{fill:none;stroke:#FFFFFF;stroke-width:0.4712;stroke-linecap:round;stroke-miterlimit:10;}
	.st264{fill:none;stroke:#253342;stroke-width:0.6212;stroke-miterlimit:10;}
	.st265{fill:none;stroke:#253342;stroke-width:0.6105;stroke-miterlimit:10;}
	.st266{fill:none;stroke:#6A78D0;stroke-width:0.4498;stroke-miterlimit:10;}
	.st267{fill:none;stroke:#33475B;stroke-width:0.4498;stroke-miterlimit:10;}
	.st268{fill:none;stroke:#E9EFF5;stroke-width:0.5111;stroke-linecap:round;stroke-miterlimit:10;}
	.st269{fill:none;stroke:#E9EFF5;stroke-width:0.9866;stroke-linecap:round;stroke-miterlimit:10;}
	.st270{fill:none;stroke:#E9EFF5;stroke-width:0.8202;stroke-linecap:round;stroke-miterlimit:10;}
	.st271{fill:whitesmoke;stroke:#282828;stroke-width:0.3566;stroke-miterlimit:10;}
	.st272{fill:none;stroke:#232323;stroke-width:0.2495;stroke-linecap:round;stroke-miterlimit:10;}
	.st273{fill:#C3CDD5;}
	.st274{fill:#DF907C;}
	.st275{fill:#7C3B29;}
	.st276{fill:none;stroke:#FFFFFF;stroke-miterlimit:10;}
	.st277{fill:#EEBCA7;}
	.st278{fill:#D0957C;}
	.st279{fill:#DFA795;}
	.st280{fill:#191717;}
	.st281{fill:#7C98B6;}
	.st282{fill:#F3AD8B;}
	.st283{fill:#E99575;}
	.st284{fill:none;stroke:#253342;stroke-width:3;stroke-miterlimit:10;}
	.st285{fill:#FCFDFF;}
	.st286{fill:none;stroke:#253342;stroke-width:0.5158;stroke-miterlimit:10;}
	.st287{fill:#ECA997;}
	.st288{fill:#FFFFFF;stroke:whitesmoke;stroke-miterlimit:10;}
	.st289{fill:#FFF7F5;stroke:#33475B;stroke-miterlimit:10;}
	.st290{fill:#FF7A59;stroke:#33475B;stroke-miterlimit:10;}
	.st291{fill:none;stroke:#33475B;stroke-miterlimit:10;}
	.st292{fill:#FFD5BC;}
	.st293{fill:#FFB293;}
	.st294{fill:#926760;}
	.st295{fill:#EEAB99;}
	.st296{fill:#CD8174;}
	.st297{fill:#E4A797;}
	.st298{fill:#DD9478;}
	.st299{fill:#CE7C63;}
	.st300{fill:#7F6358;}
	.st301{fill:#EAF0F6;}
	.st302{fill:#FFBE9D;}
	.st303{fill:#EB996E;}
	.st304{fill:#BD8C83;}
	.st305{fill:#896360;}
	.st306{fill:#FFBF9D;}
	.st307{fill:#FF9A6C;}
	.st308{fill:#CC6760;}
	.st309{fill:#9D4941;}
	.st310{fill:#FCFCFC;}
	.st311{opacity:0.31;fill:#00A8F9;}
	.st312{fill:#EBEBEB;}
	.st313{fill:#AE7461;}
	.st314{fill:#F4AD9D;}
	.st315{fill:#8B5D54;}
	.st316{opacity:0.53;fill:#253342;}
	.st317{fill:#EFA58B;}
	.st318{fill:#7C5142;}
	.st319{fill:#FFCFB0;}
	.st320{fill:url(#SVGID_26_);}
	.st321{fill:url(#SVGID_27_);}
	.st322{fill:url(#SVGID_28_);}
	.st323{fill:url(#SVGID_29_);}
	.st324{fill:url(#SVGID_30_);}
	.st325{fill:#00BDA5;}
	.st326{fill:#6A78D1;}
	.st327{fill:#F5C26B;}
	.st328{fill:#00A9FA;}
	.st329{fill:#EFF9F8;}
	.st330{fill:#F3F4FF;}
	.st331{fill:#E0F5FE;}
	.st332{fill:#F2545B;}
	.st333{fill:#FCE3E5;}
	.st334{fill:#00A4BD;}
	.st335{fill:#BDE1E5;}
	.st336{fill:#B78876;}
	.st337{fill:#A36957;}
	.st338{fill:#D1734A;}
	.st339{fill:#EAAC9B;}
	.st340{fill:#E2AA9F;}
	.st341{fill:#7D4336;}
</style>
<rect x="-5.5" y="-2.1" class="st10" width="761" height="426.2"/>
<g id="freepik--social-media-icons--inject-47_1_">
	<path class="st281" d="M716,243.3L716,243.3c-12.2,0-22.1-9.9-22.1-22.1c0,0,0,0,0,0l0,0c0-12.2,9.9-22.1,22.1-22.1l0,0l0,0
		c12.2,0,22.1,9.9,22.1,22.1l0,0l0,0C738.2,233.3,728.3,243.3,716,243.3C716.1,243.3,716,243.3,716,243.3z"/>
	<path class="st105" d="M728.2,220.5c-0.2-6.6-5.7-11.8-12.3-11.6c-6.2,0.2-11.3,5.1-11.6,11.4c0,0.2,0,0.3,0,0.5
		c0,2.2,0.6,4.3,1.7,6.1l-2.1,6.3l6.6-2.1c5.8,3.2,13,1.1,16.2-4.7c1-1.7,1.5-3.7,1.5-5.6L728.2,220.5z M716.3,230.7
		c-2,0-3.9-0.6-5.5-1.6l-3.9,1.2l1.2-3.7c-1.2-1.7-1.9-3.7-1.9-5.8c0-0.3,0-0.6,0.1-1c0.6-5.5,5.6-9.5,11.1-8.9
		c4.8,0.5,8.5,4.3,8.9,9.1c0,0.3,0,0.5,0,0.8C726.2,226.3,721.8,230.7,716.3,230.7z"/>
	<path class="st105" d="M721.7,223.2c-0.3-0.1-1.7-0.9-2-0.9s-0.5-0.1-0.7,0.1c-0.2,0.3-0.8,0.9-0.9,1.1c-0.1,0.2-0.3,0.2-0.6,0.1
		c-0.9-0.3-1.7-0.8-2.4-1.4c-0.6-0.6-1.2-1.3-1.6-2c-0.2-0.3,0-0.4,0.1-0.6s0.3-0.3,0.4-0.5l0.1-0.1c0.1-0.1,0.1-0.2,0.2-0.3
		c0.1-0.2,0.1-0.3,0-0.5c-0.1-0.1-0.7-1.6-0.9-2.2c-0.2-0.6-0.5-0.5-0.7-0.5s-0.4,0-0.6,0c-0.3,0-0.6,0.1-0.8,0.4
		c-0.7,0.6-1,1.5-1,2.4c0,0.3,0.1,0.7,0.1,1c0.2,0.7,0.6,1.4,1,2c0.1,0.2,2,3.2,5,4.4s3,0.8,3.5,0.7c0.8-0.2,1.5-0.7,2-1.4
		c0.2-0.4,0.3-0.9,0.2-1.4C722.2,223.4,722,223.3,721.7,223.2z"/>
	<path class="st281" d="M531.8,53.2L531.8,53.2c-9.4,0-17.1-7.6-17.1-17c0,0,0,0,0,0l0,0c0-9.4,7.6-17.1,17-17.1c0,0,0,0,0,0l0,0
		c9.4,0,17.1,7.6,17.1,17.1l0,0C548.9,45.6,541.3,53.2,531.8,53.2z"/>
	<path class="st5" d="M526.4,37.7c0.2,0.1,0.4,0,0.5-0.2c0,0,0-0.1,0-0.1c0.1-0.2,0.2-0.7,0.2-0.9c0.1-0.2,0-0.5-0.2-0.7
		c-0.5-0.6-0.8-1.5-0.8-2.3c0-3,2.4-5.5,5.5-5.6c0.1,0,0.2,0,0.3,0c3.1,0,4.8,1.9,4.8,4.5c0,3.4-1.5,6.2-3.7,6.2
		c-1,0-1.8-0.8-1.9-1.8c0-0.2,0-0.3,0.1-0.5c0.4-1.5,1-3.1,1-4.1c0.1-0.9-0.5-1.6-1.4-1.7c-0.1,0-0.1,0-0.2,0c-1.2,0-2.2,1.3-2.2,3
		c0,0.6,0.1,1.2,0.4,1.8c0,0-1.3,5.4-1.5,6.3c-0.3,1.5-0.3,3,0,4.4c0,0.1,0.1,0.1,0.2,0.1c0,0,0.1,0,0.1-0.1
		c0.9-1.1,1.6-2.4,2.1-3.8c0.1-0.5,0.8-3.2,0.8-3.2c0.6,0.9,1.7,1.5,2.8,1.4c3.7,0,6.3-3.4,6.3-8c0-3.4-2.9-6.7-7.4-6.7
		c-5.5,0-8.3,4-8.3,7.2C524,35.3,524.7,37.1,526.4,37.7z"/>
	<path class="st281" d="M41,243L41,243c-12.9,0-23.4-10.5-23.4-23.4l0,0l0,0c0-12.9,10.5-23.4,23.4-23.4l0,0
		c12.9,0,23.4,10.5,23.4,23.4l0,0l0,0C64.3,232.5,53.9,243,41,243z"/>
	<path class="st5" d="M41,209.1c3.4,0,3.8,0,5.2,0.1c0.8,0,1.6,0.2,2.4,0.4c0.6,0.2,1.1,0.5,1.5,1c0.4,0.4,0.7,0.9,1,1.5
		c0.3,0.8,0.4,1.6,0.4,2.4c0.1,1.3,0.1,1.8,0.1,5.2c0,3.4,0,3.8-0.1,5.2c0,0.8-0.2,1.6-0.4,2.4c-0.4,1.1-1.3,2-2.4,2.4
		c-0.8,0.3-1.6,0.4-2.4,0.4c-1.3,0.1-1.8,0.1-5.2,0.1s-3.8,0-5.2-0.1c-0.8,0-1.6-0.2-2.4-0.4c-0.6-0.2-1.1-0.5-1.5-1
		c-0.4-0.4-0.8-0.9-1-1.5c-0.3-0.8-0.4-1.6-0.4-2.4c-0.1-1.3-0.1-1.8-0.1-5.2c0-3.4,0-3.8,0.1-5.2c0-0.8,0.2-1.6,0.4-2.4
		c0.4-1.1,1.3-2,2.4-2.4c0.8-0.3,1.6-0.4,2.4-0.4C37.1,209.2,37.5,209.1,41,209.1 M41,206.8c-3.5,0-3.9,0-5.3,0.1
		c-1.1,0-2.1,0.2-3.1,0.6c-1.7,0.7-3.1,2-3.7,3.7c-0.4,1-0.6,2-0.6,3.1c-0.1,1.4-0.1,1.8-0.1,5.3c0,3.5,0,3.9,0.1,5.3
		c0,1.1,0.2,2.1,0.6,3.1c0.3,0.9,0.8,1.6,1.5,2.3c0.6,0.7,1.4,1.2,2.3,1.5c1,0.4,2,0.6,3.1,0.6c1.4,0.1,1.8,0.1,5.3,0.1
		s3.9,0,5.3-0.1c1.1,0,2.1-0.2,3.1-0.6c1.7-0.7,3.1-2,3.7-3.7c0.4-1,0.6-2,0.6-3.1c0.1-1.4,0.1-1.8,0.1-5.3c0-3.5,0-3.9-0.1-5.3
		c0-1.1-0.2-2.1-0.6-3.1c-0.3-0.9-0.8-1.6-1.5-2.3c-0.6-0.7-1.4-1.2-2.3-1.5c-1-0.4-2-0.6-3.1-0.6C44.9,206.9,44.4,206.8,41,206.8"
		/>
	<path class="st5" d="M41,213.1c-3.6,0-6.6,2.9-6.6,6.6s2.9,6.6,6.6,6.6c3.6,0,6.6-2.9,6.6-6.6l0,0C47.5,216,44.6,213.1,41,213.1
		C41,213.1,41,213.1,41,213.1 M41,223.9c-2.4,0-4.3-1.9-4.3-4.3s1.9-4.3,4.3-4.3c2.4,0,4.3,1.9,4.3,4.3S43.3,223.9,41,223.9
		L41,223.9"/>
	<path class="st5" d="M49.3,212.8c0,0.8-0.7,1.5-1.5,1.5c-0.8,0-1.5-0.7-1.5-1.5c0-0.8,0.7-1.5,1.5-1.5c0,0,0,0,0,0
		C48.7,211.3,49.3,212,49.3,212.8"/>
	<path class="st281" d="M61.5,82.9L61.5,82.9c-7.8,0-14.1-6.3-14.1-14.1l0,0c0-7.8,6.3-14.1,14.1-14.1l0,0c7.8,0,14.1,6.3,14.1,14.1
		l0,0l0,0C75.6,76.5,69.3,82.8,61.5,82.9z"/>
	<path class="st5" d="M59.4,77.3h3.4v-8.6h2.4l0.3-2.9h-2.7v-1.6c0-0.7,0.1-0.9,0.8-0.9h1.9v-3h-2.4c-2.6,0-3.7,1.1-3.7,3.3v2.3
		h-1.8v2.9h1.8L59.4,77.3z"/>
</g>
<g id="freepik--background-complete--inject-57">
	<path class="st17" d="M416.1,42.3h4.9l10.7-14.9v-9.8c0,0,7.6-0.5,6.7,12.3s0.1,9.6,0.1,9.6s16.1,0.1,17.4,1.5c1,1,1.4,17,1.6,25.7
		c0.1,4.4-2.6,8.4-6.7,9.5c-0.6,0.1-1.1,0.2-1.7,0.2c-4,0-24.5-3.3-24.5-3.3h-8.5L416.1,42.3z"/>
	<polygon class="st17" points="402.1,39.6 405.1,73.2 413.5,73.2 413.5,40.3 	"/>
	<polygon class="st17" points="271.5,202.7 260.9,235.2 268.4,235.2 278.9,202.7 	"/>
	<polygon class="st17" points="284.3,202.7 273.7,235.2 281.3,235.2 291.7,202.7 	"/>
	<polygon class="st17" points="259.3,215.1 261.8,207.8 295.9,207.8 293.7,215.1 	"/>
	<polygon class="st17" points="256.1,228.5 258.6,221.2 292.8,221.2 290.5,228.5 	"/>
	<path class="st17" d="M90.6,171.4c-0.3-2.5-1.5-4.9-3.2-6.8c-1.6-1.9-3.8-3.3-6.3-3.9c-4.3-1-8.7,1-10.8,4.9
		c-0.7-1.3-1.7-2.3-2.9-3.2c-2.2-1.5-5-2.1-7.6-1.5c-2.5,0.6-4.7,2-6.3,3.9c-1.8,1.9-2.9,4.3-3.3,6.8c-0.4,3.3,0.2,6.6,1.9,9.4
		c1.9,2.9,4.4,5.3,7.4,7c4.9,2.9,11.3,6.7,11.3,6.7s5.4-4,10.3-6.9c3-1.7,5.6-4.1,7.5-7C90.2,178,90.9,174.7,90.6,171.4z"/>
	<path class="st17" d="M573.7,203.9c-0.2-1.7-1-3.3-2.2-4.6c-1.1-1.3-2.6-2.2-4.3-2.6c-2.9-0.7-5.9,0.7-7.3,3.4
		c-1.4-2.5-4.3-3.8-7.1-3.2c-1.7,0.4-3.2,1.3-4.3,2.6c-1.2,1.3-2,2.9-2.2,4.6c-0.3,2.2,0.2,4.4,1.3,6.4c1.3,2,3,3.6,5,4.7
		c3.3,2,7.6,4.5,7.6,4.5s3.7-2.7,7-4.7c2-1.1,3.8-2.8,5.1-4.7C573.5,208.3,574,206.1,573.7,203.9z"/>
	<path class="st17" d="M672.4,83.7c5.4-2.4,8.9-7.8,8.9-13.7c0-8.2-6.2-14.9-13.9-14.9s-13.9,6.6-14,14.8c-0.1,6,3.4,11.5,8.9,13.9
		c-21.5,3.2-20.5,26.5-20.5,26.5l50.7,0.2C692.5,110.4,693.6,86.9,672.4,83.7z"/>
	<path class="st17" d="M143.4,32.9c2.6-1.2,4.3-3.8,4.3-6.6c0.3-3.7-2.5-6.9-6.2-7.2s-6.9,2.5-7.2,6.2c0,0.3,0,0.6,0,0.9
		c-0.1,2.9,1.6,5.5,4.3,6.7c-10.3,1.6-9.9,12.8-9.9,12.8l24.5,0.1C153.1,45.9,153.6,34.5,143.4,32.9z"/>
</g>
<g id="freepik--Floor--inject-57">
	<path class="st6" d="M722.5,384.8c0,0.1-151,0.3-337.2,0.3S48.1,385,48.1,384.8s150.9-0.3,337.2-0.3S722.5,384.7,722.5,384.8z"/>
</g>
<g id="freepik--big-hashtag--inject-57">
	<polygon class="st327" points="335.1,64.9 286.7,384.7 360.9,384.7 408.5,64.9 	"/>
	<path class="st6" d="M335.1,64.9h1.2h3.7h14.3l54.1-0.1h0.2V65c-10.5,70.5-27.8,187.5-47.4,319.8v0.2h-74.8l0-0.3
		c13.8-91.1,26-171.1,34.7-228.2c4.4-28.6,7.9-51.4,10.3-67.2c1.2-7.8,2.1-13.9,2.8-18.1c0.3-2,0.6-3.6,0.7-4.7
		c0.2-1.1,0.3-1.6,0.3-1.6l-0.2,1.6c-0.2,1.1-0.4,2.6-0.7,4.7c-0.6,4.1-1.5,10.2-2.7,18.1c-2.4,15.8-5.9,38.7-10.1,67.3
		c-8.6,57.2-20.7,137.1-34.5,228.1l-0.2-0.3h74.3l-0.3,0.2c19.7-132.3,37.2-249.3,47.7-319.8l0.1,0.2l-54-0.1h-14.4h-3.7L335.1,64.9
		z"/>
	<polygon class="st327" points="470.6,67.1 420.9,385.4 494.5,384.7 543.9,67.1 	"/>
	<path class="st6" d="M470.6,67.1h1.2h3.7h14.3l54.1-0.1h0.2v0.2c-10.9,70.1-28.9,186.3-49.3,317.6v0.2h-0.7l-73.1,0.8h-0.3v-0.3
		c14.2-90.7,26.6-170.3,35.5-227.2c4.5-28.4,8-51.2,10.5-66.9c1.2-7.8,2.2-13.9,2.8-18c0.3-2,0.6-3.6,0.7-4.6S470.6,67.1,470.6,67.1
		c0,0-0.1,0.6-0.2,1.6c-0.2,1.1-0.4,2.6-0.7,4.7l-2.8,18l-10.3,66.9c-8.8,56.9-21.2,136.5-35.3,227.1l-0.3-0.3l73.1-0.8h0.5
		l-0.2,0.2c20.5-131.3,38.6-247.5,49.5-317.6l0.1,0.2l-54.1-0.1h-14.3h-3.7L470.6,67.1z"/>
	<polygon class="st327" points="258.6,181.5 281.7,110.3 607.3,110.3 590.8,181.5 	"/>
	<path class="st6" d="M258.5,181.5l332.3-0.3l-0.2,0.2c5.1-22.2,10.5-45.3,15.9-68.8c0.2-0.8,0.4-1.6,0.6-2.4l0.2,0.3l-325.6-0.1
		l0.1-0.1L258.5,181.5c0.3-1.1,8.5-26.3,23-71.3v-0.1h0.1l325.6-0.1h0.3l-0.1,0.3l-0.6,2.4c-5.5,23.6-10.8,46.7-15.9,68.8v0.2h-0.2
		L258.5,181.5z"/>
	<polygon class="st327" points="230,315.1 253.1,243.9 578.7,243.9 562.2,315.1 	"/>
	<path class="st6" d="M230,315.1l332.3-0.2L562,315c5.1-22.2,10.5-45.3,15.9-68.8c0.2-0.8,0.4-1.6,0.6-2.4l0.3,0.3L253.1,244
		l0.1-0.1C238.5,288.9,230.3,314.1,230,315.1l23-71.3v-0.1h0.1l325.6-0.1h0.3l-0.1,0.3c-0.2,0.8-0.4,1.6-0.6,2.4
		c-5.5,23.6-10.8,46.7-15.9,68.8v0.2h-0.2L230,315.1z"/>
</g>
<g id="freepik--small-hashtags--inject-57">
	<polygon class="st327" points="242.1,30.2 224.3,84.9 237,84.9 254.6,30.2 	"/>
	<polygon class="st327" points="263.6,30.3 245.9,84.9 258.6,84.9 276.2,30.3 	"/>
	<polygon class="st327" points="221.6,51 225.9,38.8 283.2,38.8 279.4,51 	"/>
	<polygon class="st327" points="216.3,73.5 220.6,61.3 277.9,61.3 274.1,73.5 	"/>
	<polygon class="st327" points="589,43.2 576.9,80.7 585.6,80.7 597.6,43.2 	"/>
	<polygon class="st327" points="603.8,43.3 591.6,80.7 600.4,80.7 612.4,43.3 	"/>
	<polygon class="st327" points="575,57.5 577.9,49.2 617.2,49.2 614.6,57.5 	"/>
	<polygon class="st327" points="571.3,73 574.3,64.6 613.6,64.6 611,73 	"/>
</g>
<g id="freepik--Device--inject-57">
	<path class="st281" d="M513.6,337.6l9.5,46.4h82c0.9,0,1.6-0.7,1.6-1.6l0,0c0-0.9-0.7-1.6-1.6-1.6h-16.5l-8.8-43.1
		c-0.2-0.8-0.9-1.4-1.7-1.4l-62.7-0.7c-1,0-1.8,0.8-1.8,1.8C513.5,337.3,513.6,337.4,513.6,337.6z"/>
	<path class="st6" d="M513.6,337.6c0,0,0-0.1,0-0.1c0-0.1,0-0.3,0-0.4c0.1-0.6,0.4-1.1,0.9-1.4c0.2-0.1,0.3-0.2,0.5-0.2
		c0.2,0,0.4,0,0.7,0h1.5h3.7l23.7,0.2l16.5,0.2l9.2,0.1l4.9,0h2.5c0.2,0,0.4,0,0.6,0c0.2,0,0.4,0.1,0.6,0.2c0.4,0.2,0.7,0.6,0.9,1
		c0.1,0.2,0.1,0.4,0.2,0.6l0.1,0.6c0.1,0.4,0.2,0.8,0.3,1.3c0.2,0.8,0.3,1.7,0.5,2.5c0.3,1.7,0.7,3.4,1,5.2c0.7,3.5,1.4,7,2.2,10.7
		c1.5,7.3,3,14.8,4.6,22.6l-0.1-0.1h16.2c0.2,0,0.4,0,0.6,0c0.9,0.2,1.5,1,1.4,2c-0.1,0.5-0.4,1-0.9,1.3c-0.2,0.1-0.5,0.2-0.8,0.2
		h-43.6H523H523v-0.1c-2.9-14.2-5.2-25.8-6.8-33.9c-0.8-4-1.4-7.1-1.9-9.3c-0.2-1.1-0.4-1.9-0.5-2.4
		C513.7,337.8,513.6,337.5,513.6,337.6c0,0,0.1,0.2,0.2,0.8l0.5,2.4c0.4,2.1,1.1,5.2,1.9,9.3c1.6,8,4,19.6,6.9,33.9l-0.1-0.1h38.5
		h43.5c0.2,0,0.5-0.1,0.7-0.2c0.4-0.2,0.7-0.6,0.8-1.1c0.1-0.8-0.4-1.5-1.2-1.7c-0.2,0-0.4,0-0.6,0h-16.4v-0.1l-4.6-22.6
		c-0.7-3.6-1.5-7.2-2.2-10.7c-0.4-1.7-0.7-3.5-1.1-5.2c-0.2-0.9-0.3-1.7-0.5-2.5c-0.1-0.4-0.2-0.8-0.3-1.3l-0.1-0.6
		c0-0.2-0.1-0.4-0.2-0.6c-0.2-0.4-0.4-0.7-0.8-0.8c-0.2-0.1-0.4-0.1-0.6-0.2h-0.6h-2.5l-4.9-0.1l-9.3-0.1l-16.5-0.2l-23.7-0.3
		l-3.7,0h-1.5c-0.2,0-0.4,0-0.6,0c-0.2,0-0.4,0.1-0.5,0.2c-0.5,0.3-0.8,0.8-0.9,1.3C513.6,337.2,513.6,337.4,513.6,337.6z"/>
	<path class="st5" d="M551.4,358.8c0,1.5-1.2,2.7-2.7,2.7c-1.5,0-2.7-1.2-2.7-2.7s1.2-2.7,2.7-2.7S551.4,357.3,551.4,358.8
		L551.4,358.8z"/>
	<path class="st6" d="M513.7,337.9h4.3l11.7,0.1l38.7,0.3h5.6h1.4c0.2,0,0.5,0,0.7,0c0.7,0.1,1.3,0.7,1.5,1.4
		c0.1,0.4,0.2,0.9,0.3,1.3c0.7,3.5,1.4,6.8,2,10.1c1.3,6.4,2.4,12.2,3.4,17.1c1,4.9,1.7,8.8,2.3,11.5c0.3,1.4,0.5,2.4,0.6,3.1
		l0.1,0.8c0,0.2,0,0.3,0,0.3s0-0.1-0.1-0.3l-0.2-0.8c-0.1-0.7-0.4-1.8-0.6-3.1c-0.5-2.7-1.3-6.6-2.3-11.5c-1-4.8-2.1-10.6-3.4-17
		c-0.6-3.2-1.3-6.6-2-10.1c-0.1-0.4-0.2-0.9-0.3-1.3c-0.1-0.4-0.4-0.8-0.7-1c-0.2-0.1-0.4-0.2-0.6-0.2c-0.2,0-0.4,0-0.7,0h-1.3h-5.6
		l-38.7-0.4L518,338h-3.2h-0.8L513.7,337.9z"/>
</g>
<g id="freepik--speech-bubble-3--inject-57">
	<path class="st5" d="M653.4,176.7l7.5-2.6c12.1,7,27.6,2.9,34.7-9.2c7-12.1,2.9-27.6-9.2-34.7c-12.1-7-27.6-2.9-34.7,9.2
		c-5.3,9.1-4.4,20.6,2.3,28.8l0,0L653.4,176.7z"/>
	<path class="st6" d="M653.4,176.7l0.1-0.6c0-0.4,0.1-1,0.1-1.6c0.1-1.4,0.3-3.6,0.5-6.3l-0.2,0.1l0,0c0,0,0.1,0,0.1,0
		c0,0,0-0.1,0-0.1c-2.6-3.3-4.4-7.2-5.2-11.3c-1-5.7-0.1-11.6,2.7-16.7c6.7-12.2,21.9-16.7,34.1-10c1.4,0.8,2.8,1.7,4.1,2.8
		c3.2,2.6,5.6,6,7.2,9.8c1.5,3.6,2.1,7.5,1.8,11.4c-0.5,7.1-4.1,13.7-9.7,18.1c-8.1,6.3-19.2,7.1-28.1,2c0,0-0.1,0-0.1,0l-5.6,2
		l-1.5,0.5L653.4,176.7l0.5-0.2l1.4-0.5l5.7-1.9h-0.1c9,5.3,20.2,4.5,28.4-1.8c2.7-2.1,5-4.7,6.7-7.8c1.8-3.3,2.9-6.9,3.2-10.6
		c0.3-4-0.4-7.9-1.9-11.6c-1.6-3.9-4.1-7.3-7.3-9.9c-10.8-9-27-7.6-36,3.3c-1.1,1.3-2,2.7-2.8,4.2c-1.5,2.7-2.4,5.7-2.8,8.8
		c-0.4,2.7-0.3,5.5,0.2,8.2c0.8,4.2,2.6,8.1,5.3,11.4l0.1-0.1l0,0c0,0-0.1,0-0.1,0l0,0c-0.2,2.8-0.3,4.9-0.4,6.4
		c0,0.7-0.1,1.2-0.1,1.6S653.4,176.7,653.4,176.7z"/>
	<path class="st327" d="M679,154h3.6v3.1h-4l-0.6,4.5H675l0.6-4.5h-4.1l-0.6,4.5h-3.2l0.6-4.5h-3.7V154h4l0.6-4.6h-3.7v-3.1h4
		l0.6-4.5h3.2l-0.6,4.5h4.1l0.6-4.5h3.1l-0.6,4.5h3.7v3.1h-4.1L679,154z M675.9,154l0.6-4.6h-4.1l-0.6,4.6H675.9z"/>
</g>
<g id="freepik--speech-bubble-2--inject-57">
	<path class="st5" d="M234.1,224.4l-2.6-5.9c4-11.8-2.3-24.6-14-28.6c-11.8-4-24.6,2.3-28.6,14c-4,11.8,2.3,24.6,14,28.6
		c8.9,3,18.7,0.3,24.7-7l0,0L234.1,224.4z"/>
	<path class="st6" d="M234.1,224.4l-0.4,0.1l-1.2,0.3l-4.9,1c0,0-0.1,0-0.1-0.1l0,0l0,0l0.1,0.1c-2.3,2.9-5.4,5.1-8.8,6.6
		c-1.1,0.4-2.2,0.8-3.3,1.1c-0.6,0.2-1.2,0.2-1.8,0.3c-0.3,0-0.6,0.1-1,0.2l-1,0.1c-5.8,0.4-11.6-1.4-16.1-5.2
		c-2.5-2.1-4.6-4.7-6-7.7c-3.1-6.6-2.9-14.3,0.6-20.6l0.7-1.2l0.8-1.2l0.4-0.6c0.1-0.2,0.3-0.4,0.4-0.5l0.9-1.1c0.3-0.3,0.7-0.6,1-1
		c0.3-0.3,0.6-0.6,1-0.9c0.7-0.6,1.4-1.1,2.2-1.6c5.8-3.8,13-4.8,19.6-2.5c5.6,1.8,10.2,5.8,13,11c0.6,1.1,1.1,2.3,1.5,3.5
		c0.3,1.1,0.6,2.3,0.8,3.4c0.6,3.7,0.2,7.4-1,10.9v-0.1c0.8,1.9,1.5,3.4,2,4.4c0.2,0.5,0.4,0.9,0.5,1.1S234.1,224.4,234.1,224.4
		L234,224c-0.1-0.3-0.3-0.6-0.5-1.1l-2-4.3 M231.5,218.5c1.2-3.5,1.5-7.2,0.9-10.8c-0.2-1.1-0.5-2.3-0.8-3.4
		c-1.3-3.8-3.5-7.2-6.5-9.8c-4.8-4.2-11.1-6.2-17.4-5.5c-3.5,0.4-6.8,1.6-9.7,3.5c-0.8,0.5-1.5,1-2.2,1.6c-0.3,0.3-0.7,0.6-1,0.9
		c-0.3,0.3-0.7,0.6-1,1l-0.9,1c-0.1,0.2-0.3,0.4-0.4,0.5l-0.4,0.6l-0.8,1.1l-0.7,1.2c-3.5,6.3-3.7,13.9-0.6,20.3
		c3.9,8.3,12.5,13.4,21.7,12.8l1-0.1c0.3,0,0.6-0.1,1-0.1c0.6-0.1,1.2-0.2,1.8-0.3c1.1-0.3,2.2-0.6,3.3-1.1c3.4-1.4,6.4-3.6,8.8-6.4
		c0,0,0.1,0,0.1,0c0,0,0,0.1,0,0.1l0,0l-0.1-0.1l4.9-0.9l1.3-0.2L231.5,218.5z"/>
	<path class="st327" d="M219.9,210c-0.2-1.2-0.7-2.3-1.5-3.1c-0.8-0.9-1.8-1.5-2.9-1.8c-2-0.4-4,0.5-5,2.3c-0.3-0.6-0.8-1.1-1.3-1.4
		c-1-0.7-2.3-1-3.5-0.7c-1.1,0.3-2.2,0.9-2.9,1.8c-0.8,0.9-1.3,2-1.5,3.1c-0.2,1.5,0.1,3,0.8,4.3c0.9,1.3,2,2.4,3.4,3.2
		c2.2,1.4,5.2,3.1,5.2,3.1s2.5-1.9,4.7-3.2c1.4-0.8,2.6-1.9,3.4-3.2C219.8,213,220.1,211.5,219.9,210z"/>
</g>
<g id="freepik--speech-bubble-1--inject-57">
	<path class="st5" d="M147.2,118.6l-3.9-6.6c4.3-12.8-2.5-26.7-15.3-31c-12.8-4.3-26.7,2.5-31,15.3s2.5,26.7,15.3,31
		c9.6,3.3,20.3,0.2,26.8-7.6l0,0L147.2,118.6z"/>
	<path class="st6" d="M147.2,118.6l-0.5,0.1l-1.6,0.2l-6,0.7l0.1,0.1l0,0c0,0,0-0.1,0-0.1c0,0-0.1,0-0.1,0c-2.6,3.1-5.9,5.5-9.7,7.1
		c-2.4,1-5,1.5-7.6,1.7c-13.4,0.8-24.9-9.3-25.7-22.7c-0.5-8.6,3.5-16.8,10.7-21.6c3.1-2.1,6.7-3.4,10.4-3.9
		c6.8-0.8,13.7,1.2,18.9,5.7c7.5,6.4,10.3,16.8,7.2,26.1c0,0,0,0.1,0,0.1l2.9,4.9l0.8,1.3L147.2,118.6l-0.2-0.4l-0.7-1.3l-2.9-5v0.1
		c1.3-3.9,1.7-8,1-12c-2.2-13-14.2-21.9-27.3-20.3c-3.8,0.5-7.4,1.9-10.6,4c-3.3,2.2-6.1,5.2-8,8.8c-6.5,11.9-2,26.9,9.9,33.3
		c4.1,2.2,8.7,3.2,13.4,2.9c2.6-0.2,5.2-0.7,7.7-1.8c3.8-1.5,7.2-4,9.8-7.2l-0.2-0.1l0,0c0,0,0,0.1,0,0.1h0.1l6.1-0.8l1.5-0.2
		L147.2,118.6z"/>
	<path class="st6" d="M126.7,104.2c0,1.3,1,2.3,2.3,2.3c1.3,0,2.3-1,2.3-2.3c0-1.3-1-2.3-2.3-2.3S126.7,102.9,126.7,104.2
		L126.7,104.2z"/>
	<path class="st6" d="M117.4,104.2c0,1.3,1,2.3,2.3,2.3c1.3,0,2.3-1,2.3-2.3c0-1.3-1-2.3-2.3-2.3
		C118.4,101.8,117.4,102.9,117.4,104.2z"/>
	<path class="st6" d="M108.1,103c-0.6,1.1-0.2,2.5,0.9,3.2c1.1,0.6,2.5,0.2,3.2-0.9c0.6-1.1,0.3-2.5-0.9-3.2
		C110.2,101.5,108.7,101.9,108.1,103z"/>
</g>
<g id="freepik--character-2--inject-57">
	<polygon class="st340" points="580.1,259.9 610.4,271.7 621.5,262.6 629.2,270.8 609,283 578.6,267.1 	"/>
	<path class="st327" d="M634.5,246.3c-0.9,1.4-1.9,2.7-3,3.9c-1.6,1.9-13.1,13.6-13.1,13.6l4.3,5.6l9.5-2.8L634.5,246.3z"/>
	<path class="st327" d="M622.6,269.5L622.6,269.5l-4.3-5.6l0,0c0.1-0.1,11.5-11.8,13.1-13.6c1.1-1.2,2.1-2.5,3-3.9l0.1-0.1v0.1
		l-2.4,20.3l0,0L622.6,269.5z M618.4,263.8l4.3,5.6l9.4-2.8l2.4-20.3c-0.9,1.4-1.9,2.6-2.9,3.9C629.9,252.1,618.8,263.4,618.4,263.8
		L618.4,263.8z"/>
	<path class="st6" d="M643.9,193.8c2-2.8,7.8-3.1,9.3-1.6c2-1.2,4.6-0.7,5.9,1.2l6.2,0.6c1.1,0,2.1,0.3,3,0.8
		c0.9,0.6,1.3,1.8,0.8,2.8c1.8,0.4,2.9,2.2,2.4,4c-0.1,0.4-0.3,0.8-0.5,1.1c0.9,0.9,1,2.4,0.1,3.3c0,0-0.1,0.1-0.1,0.1
		c1.9,1.8,3.5,4,4.7,6.3c0.6,0.9,0.8,2.1,0.7,3.2c-0.3,1.1-1.5,2-2.5,1.4c0.7,0.8,0.9,1.9,0.5,2.9c1-0.1,1.5,1.5,0.9,2.3
		c-0.7,0.7-1.7,1.2-2.8,1.1c-1,0-2.1,0.3-2.9,0.8c0.1,0.3,0.2,0.5,0.4,0.6c2,1.2,2.7,3.6,1.6,5.6c-0.1,0.2-0.2,0.4-0.3,0.5
		c-0.7,1-1.7,1.8-2.7,2.4c-2.2,1.5-3.6,1.4-6.1,2.1c0.9,1.6-2.9,5.8-8.1,2.7c-8.3,3.4-17.1,5.6-26,6.6c-1.4,0.2-3.2,0.2-3.9-1
		c-1.2,0.4-2.4,0.1-3.4-0.7c-0.9-0.8-1.7-1.7-2.3-2.8c-2.6-0.4-4.6-2.5-5.1-5.1c-1.8-1.1-3.1-3-3.5-5.1c-2.4-0.6-3.9-3-3.4-5.4
		c0-0.1,0.1-0.2,0.1-0.3c0.2-3,0.8-5.9,2-8.7c-1.7-0.2-2.5-2.3-2-3.9c0.5-1.6,1.9-2.8,3.2-3.8c-1.2,0.5-2.4-1-2.3-2.2
		c0.3-1.2,1.1-2.3,2.2-3c1.5-1.1,3.1-2.1,4.8-2.8c0.3-2.2,2.8-5,4.7-6.1C627.2,189.1,632.7,187.5,643.9,193.8"/>
	<path class="st306" d="M623.2,211.8c0-5.6,3.3-12.8,8.9-12.5l17.8,3.3c1.7,0.1,3.1,1.5,3.2,3.2l1.7,37.5c0.2,4.9-3,9.3-7.8,10.5
		l0,0c-5.5,1.4-11.1-2-12.5-7.5c-0.1-0.5-0.2-0.9-0.2-1.4c-0.3-2.6-0.5-4.5-0.5-4.5s-7.3-0.8-9.3-10
		C623.4,225.8,623.2,218.1,623.2,211.8z"/>
	<path class="st6" d="M626,219.7c0,0.7,0.6,1.2,1.2,1.1c0.6,0,1.2-0.5,1.2-1.1c0,0,0,0,0,0c0-0.7-0.6-1.2-1.2-1.2c0,0,0,0,0,0
		C626.6,218.5,626,219,626,219.7C626,219.7,626,219.7,626,219.7z"/>
	<path class="st6" d="M625.1,215.7c0.2,0.1,1-0.6,2.3-0.7c1.3-0.1,2.3,0.5,2.4,0.4c0.1-0.2-0.1-0.4-0.5-0.6c-0.6-0.4-1.3-0.5-2-0.5
		c-0.7,0-1.3,0.3-1.8,0.7C625.1,215.4,625,215.6,625.1,215.7z"/>
	<path class="st6" d="M637.7,218.8c0,0.6,0.6,1.2,1.2,1.1c0.6,0,1.2-0.5,1.2-1.2c0,0,0,0,0,0c0-0.7-0.6-1.2-1.2-1.1
		C638.3,217.6,637.7,218.1,637.7,218.8C637.7,218.8,637.7,218.8,637.7,218.8z"/>
	<path class="st6" d="M637.8,215.2c0.2,0.1,1-0.6,2.3-0.7c1.3-0.1,2.3,0.5,2.4,0.4s-0.1-0.4-0.5-0.6c-0.6-0.4-1.3-0.5-2-0.5
		c-0.7,0-1.3,0.3-1.8,0.7C637.8,214.8,637.7,215.1,637.8,215.2z"/>
	<path class="st6" d="M633.7,225c-0.7-0.2-1.4-0.2-2.1-0.2c-0.3,0-0.7-0.1-0.7-0.3c0-0.3,0-0.7,0.2-1l0.8-2.6
		c0.8-2.2,1.4-4.4,1.8-6.7c-0.2,0-1.2,2.9-2.3,6.6c-0.3,0.9-0.5,1.8-0.8,2.6c-0.2,0.4-0.2,0.9-0.1,1.3c0.1,0.2,0.3,0.4,0.6,0.4
		c0.2,0,0.4,0.1,0.6,0C632.3,225.2,633,225.2,633.7,225z"/>
	<path class="st341" d="M633.7,240.4c4.4-0.2,8.7-1.6,12.3-4.1c0,0-2.7,6.6-12.1,6.3L633.7,240.4z"/>
	<path class="st6" d="M636.9,209.9c0.1,0.4,1.4,0.1,2.9,0.2s2.8,0.4,2.9,0.1c0.1-0.2-0.2-0.5-0.7-0.8c-0.7-0.4-1.5-0.6-2.3-0.6
		c-0.8-0.1-1.6,0.1-2.3,0.4C637.1,209.4,636.8,209.7,636.9,209.9z"/>
	<path class="st6" d="M625.2,211.2c0.3,0.3,1.1-0.1,2.2-0.2c1.1-0.1,2,0.1,2.2-0.2c0.1-0.2-0.1-0.4-0.5-0.7
		c-1.1-0.6-2.5-0.5-3.5,0.3C625.2,210.8,625.1,211.1,625.2,211.2z"/>
	<path class="st6" d="M619.5,216.8c-0.1-1.5,0.3-3,1.1-4.2c0.5-0.6,1.1-1.2,1.6-1.9c0.9-1.5,0.5-3.4,0.8-5.1
		c0.4-2.3,1.8-4.2,3.9-5.2c1.7-0.8,3.7-1,5.2-2c1.2-0.8,2-2,3.1-2.7c2.3-1.4,5.3-0.4,7.7,0.7c0.7,1.8-0.3,3.5-1.3,5.1
		c-1,1.7-2.6,2.8-4.5,3.1c-1.5,0.2-3.2,0.1-4.1,1.2c-0.9,1.2-0.3,3.1-1.1,4.4c-1.1,2-4,1.6-5.8,2.9c-1.4,1-1.8,2.8-2.4,4.4
		c-0.6,1.6-1.7,3.3-3.4,3.4C619.9,219.7,619.6,218.2,619.5,216.8z"/>
	<path class="st6" d="M639.6,200.1c4.2-0.5,8.6-0.2,12.7,1c1.3,0.2,2.4,0.9,3.3,1.8c0.6,0.9,1,2,1,3.2c0.3,3.5-0.6,7.9-1.6,11.3
		l-4.1,3.1c-3.4-0.4-2.5-6.4-2.7-9.3c-2.5-0.8-4.3-3-4.7-5.6C641.5,204.4,640,202.4,639.6,200.1z"/>
	<path class="st306" d="M650.9,219.2c-0.1-2,2.3-2.7,4.2-1.8c1,0.5,1.8,1.5,2,3.6c0.3,5.7-5.5,4.8-5.5,4.6S651,221.5,650.9,219.2z"
		/>
	<path class="st341" d="M653.1,223.4c0,0,0.1,0.1,0.3,0.1c0.2,0.1,0.5,0.1,0.7,0c0.7-0.5,1.1-1.4,1-2.3c0-0.5-0.1-1-0.3-1.4
		c-0.1-0.4-0.4-0.6-0.8-0.7c-0.2-0.1-0.5,0.1-0.6,0.3c-0.1,0.2,0,0.3-0.1,0.3c-0.1,0-0.1-0.1-0.1-0.3c0-0.1,0.1-0.3,0.2-0.4
		c0.1-0.1,0.3-0.2,0.5-0.2c0.5,0.1,0.9,0.4,1.1,0.8c0.3,0.5,0.4,1,0.4,1.6c0.1,1-0.4,2-1.3,2.5c-0.3,0.1-0.6,0.1-0.9-0.1
		C653.1,223.5,653.1,223.4,653.1,223.4z"/>
	<path class="st25" d="M656.2,226.6c0.3,0,0.6-0.1,0.9-0.2c0.3-0.1,0.7-0.2,1-0.4H658c0.4,1.5,2,2.4,3.5,2c0.4-0.1,0.9-0.4,1.2-0.7
		h-0.1c0.2,0.2,0.5,0.4,0.8,0.4c0.3,0,0.6,0,0.9-0.2c0.3-0.1,0.5-0.4,0.7-0.7c0.1-0.3,0.2-0.6,0.2-1c0-0.7-0.3-1.3-0.8-1.8
		c-0.5-0.5-1-0.9-1.6-1.3v0.1c0.4-0.4,0.7-0.9,0.8-1.4c0.1-0.6-0.1-1.1-0.3-1.6c-0.3-0.5-0.7-0.9-1.1-1.3c-0.5-0.4-0.9-0.7-1.5-1
		v0.1c0.4-0.5,0.5-1.1,0.4-1.7c-0.1-0.6-0.4-1.2-0.8-1.6c-0.8-0.8-1.8-1.3-2.9-1.6l0.1,0.1c0.3-2.1-1.2-4-3.2-4.3
		c-0.4-0.1-0.9,0-1.3,0.1l0.1,0.1c0.1-1-0.3-2-1.1-2.7c-0.7-0.7-1.6-1-2.5-0.9l0.1,0.1c-0.3-1.8-1.9-3-3.7-2.8c-0.1,0-0.2,0-0.3,0
		l0.1,0c-0.1-0.5-0.3-1-0.6-1.4c-0.3-0.4-0.6-0.7-1-1c-0.6-0.4-1.3-0.6-2-0.6h-0.2h-0.2c-0.1,0-0.2,0-0.4,0.1
		c-0.2,0.1-0.4,0.1-0.5,0.2l-0.3,0.2l-0.1,0.1l0.1,0l0.3-0.1c0.2-0.1,0.3-0.1,0.5-0.2c0.1,0,0.2-0.1,0.4-0.1h0.2h0.2
		c0.7,0,1.4,0.2,2,0.6c0.4,0.3,0.7,0.6,1,1c0.3,0.4,0.5,0.9,0.6,1.4v0.1h0.1c1.7-0.4,3.4,0.7,3.8,2.4c0,0.1,0,0.1,0,0.2v0.1h0.1
		c1.8-0.1,3.3,1.3,3.4,3.1c0,0.1,0,0.2,0,0.3v0.1h0.1c1.1-0.2,2.3,0.1,3.2,0.8c0.9,0.8,1.4,2,1.2,3.2v0.1h0.1
		c1.1,0.3,2.1,0.8,2.9,1.6c0.4,0.4,0.7,0.9,0.8,1.5c0.1,0.5,0,1.1-0.4,1.6l-0.1,0.1l0.1,0c1,0.5,1.9,1.3,2.5,2.2
		c0.3,0.5,0.4,1,0.3,1.6c0,0.5-0.3,1-0.7,1.3l-0.1,0.1l0.1,0.1c0.6,0.4,1.1,0.8,1.6,1.3c0.5,0.5,0.7,1.1,0.8,1.7
		c0.1,0.6-0.2,1.2-0.8,1.5c-0.5,0.3-1.1,0.2-1.5-0.2v-0.1l0,0.1c-0.8,0.7-1.8,0.9-2.8,0.6c-0.8-0.3-1.4-1-1.7-1.8V226h-0.1
		c-0.3,0.2-0.6,0.3-1,0.4C656.9,226.5,656.6,226.6,656.2,226.6c-0.4,0-0.9,0-1.3-0.2c-0.3-0.1-0.5-0.2-0.7-0.5
		c-0.1-0.2-0.1-0.3-0.1-0.3s0,0,0,0.1c0,0.1,0.1,0.1,0.1,0.2c0.2,0.3,0.4,0.4,0.7,0.5"/>
	<path class="st25" d="M674.9,217.3c0.1-0.1,0.1-0.2,0.2-0.4c0.1-0.4,0.2-0.8,0.2-1.2c0-0.6-0.2-1.2-0.7-1.7
		c-0.5-0.7-1.3-1.1-2.2-1.1l0.1,0.1c0.1-1-0.2-2-0.8-2.7c-0.3-0.4-0.7-0.8-1.2-1.1c-0.5-0.2-1.1-0.4-1.6-0.6
		c-0.3-0.1-0.5-0.2-0.8-0.4c-0.2-0.2-0.4-0.4-0.6-0.6c-0.3-0.5-0.5-1.2-0.8-1.7c-0.8-1.1-2.3-1.7-3.6-1.3l0.1,0.1
		c0-1.4-0.5-2.7-1.6-3.6c-1.1-0.9-2.6-1.3-4-1l0.1,0.1c0-2.2-1.8-4-4-4c-1,0-1.9,0.3-2.6,0.9h0.1c-0.6-0.5-1.3-0.8-2.1-1
		c-0.7-0.2-1.4-0.3-2.1-0.3c-1.1,0-2.3,0.2-3.3,0.6c-0.7,0.2-1.3,0.6-1.9,1c-0.1,0.1-0.3,0.2-0.4,0.4l-0.1,0.1c0,0,0.2-0.2,0.6-0.5
		c0.6-0.4,1.3-0.7,2-1c1.1-0.4,2.2-0.6,3.3-0.5c0.7,0,1.4,0.1,2,0.3c0.7,0.2,1.4,0.5,2,1h0l0,0c1.1-0.9,2.6-1.1,3.9-0.6
		c1.5,0.6,2.4,2,2.4,3.6v0.1h0.1c2.4-0.5,4.7,0.9,5.2,3.3c0.1,0.4,0.1,0.8,0.1,1.1v0.1h0.1c1.3-0.3,2.7,0.2,3.5,1.3
		c0.4,0.5,0.5,1.1,0.8,1.7c0.2,0.3,0.4,0.5,0.6,0.7c0.3,0.2,0.5,0.3,0.8,0.4c0.6,0.1,1.1,0.3,1.6,0.5c1.3,0.7,2.1,2.2,2,3.7v0.1h0.1
		c0.8,0,1.6,0.4,2.1,1c0.4,0.5,0.6,1.1,0.7,1.7c0,0.4,0,0.8-0.1,1.1C674.9,217.2,674.9,217.3,674.9,217.3z"/>
	<path class="st25" d="M620.9,224.6c0.1-0.1,0.1-0.3,0-0.5c-0.1-0.2-0.2-0.3-0.4-0.4c-0.2-0.1-0.5-0.2-0.7-0.3
		c-0.3,0-0.6-0.1-0.9-0.3c-0.3-0.2-0.6-0.5-0.7-0.8c-0.2-0.4-0.3-0.8-0.3-1.3c0-0.5,0-1-0.1-1.5c-0.2-1.1-0.6-2.2-1.1-3.3
		c-0.2-0.6-0.3-1.2-0.3-1.9c0-0.7,0.3-1.3,0.9-1.7c0.6-0.4,1.3-0.7,2-0.9c0.4-0.1,0.7-0.3,1-0.6c0.3-0.3,0.5-0.6,0.6-1
		c0.2-0.8,0.3-1.5,0.4-2.3c0-0.4,0.1-0.8,0.3-1.1c0.2-0.3,0.4-0.6,0.8-0.8c0.5-0.2,1-0.3,1.5-0.4c0.3-0.1,0.5-0.1,0.8-0.3
		c0.2-0.1,0.4-0.4,0.6-0.6c0.2-0.5,0.4-1,0.4-1.5c0.3-1.5,1.5-2.6,2.9-2.8c0.9-0.1,1.8,0.1,2.5,0.6l0.1,0.1v-0.1
		c0.5-1.5,1.6-2.6,3-3.2c0.6-0.2,1.2-0.4,1.9-0.4c0.5,0,1.1,0.1,1.6,0.3c0.7,0.3,1.4,0.7,1.8,1.3c0.1,0.2,0.2,0.3,0.3,0.5l0.1,0.1v0
		v0c0,0,0-0.1-0.1-0.1c-0.1-0.2-0.2-0.4-0.3-0.5c-0.5-0.6-1.1-1.1-1.8-1.4c-0.5-0.2-1.1-0.3-1.6-0.3c-0.7,0-1.3,0.1-2,0.4
		c-1.5,0.6-2.6,1.8-3.1,3.3h0.1c-0.8-0.5-1.7-0.8-2.6-0.6c-1,0.1-1.9,0.7-2.5,1.5c-0.3,0.4-0.5,0.9-0.6,1.4c-0.1,0.5-0.2,1-0.4,1.5
		c-0.3,0.4-0.7,0.7-1.2,0.8c-0.5,0.1-1.1,0.2-1.6,0.4c-0.4,0.2-0.7,0.5-0.8,0.9c-0.2,0.4-0.3,0.8-0.3,1.2c0,0.8-0.2,1.5-0.3,2.3
		c-0.1,0.3-0.3,0.6-0.6,0.9c-0.3,0.2-0.6,0.4-0.9,0.6c-0.7,0.2-1.3,0.5-2,0.9c-0.3,0.2-0.5,0.5-0.7,0.8c-0.1,0.3-0.2,0.6-0.3,1
		c0,0.7,0.1,1.3,0.3,2c0.5,1,0.9,2.1,1.1,3.2c0.1,0.5,0,1,0.1,1.5c0,0.5,0.1,0.9,0.3,1.3c0.2,0.4,0.4,0.7,0.8,0.9
		c0.3,0.1,0.6,0.2,1,0.3c0.3,0,0.5,0.1,0.7,0.3c0.2,0.1,0.3,0.2,0.4,0.4C620.9,224.4,620.9,224.5,620.9,224.6z"/>
	<path class="st25" d="M609,217c0,0,0-0.1,0-0.1l0.1-0.3l0.5-1.3c0.2-0.6,0.4-1.2,0.8-2c0.3-0.9,0.9-1.7,1.7-2.2
		c0.4-0.3,1-0.5,1.4-0.8c0.3-0.1,0.5-0.3,0.7-0.5c0.2-0.2,0.4-0.5,0.5-0.8c0.2-0.6,0.1-1.3,0.3-2c0.1-0.3,0.2-0.6,0.5-0.8
		c0.3-0.2,0.5-0.4,0.9-0.5c0.3-0.1,0.7-0.3,1-0.5c0.3-0.2,0.6-0.5,0.7-0.9c0.2-0.7,0.3-1.5,0.3-2.3c0-0.4,0.1-0.7,0.3-1.1
		c0.2-0.3,0.5-0.6,0.8-0.7c0.7-0.2,1.6-0.1,2.4-0.3c0.4-0.1,0.7-0.4,1-0.7c0.2-0.3,0.4-0.7,0.6-1.1c0.2-0.4,0.3-0.7,0.5-1
		c0.2-0.3,0.4-0.6,0.8-0.8c0.7-0.3,1.4-0.4,2.1-0.2c0.7,0.1,1.5,0.1,2.2,0c0.6-0.2,1.3-0.6,1.8-1c0.5-0.4,1-0.8,1.6-1.1
		c1-0.5,2.2-0.6,3.3-0.5c0.9,0.1,1.8,0.5,2.6,1c0.6,0.4,1.1,0.9,1.6,1.5c0.3,0.4,0.5,0.8,0.7,1.2l0.2,0.3l0.1,0.1c0,0,0,0,0-0.1
		l-0.2-0.3c-0.2-0.4-0.4-0.8-0.7-1.2c-0.4-0.6-0.9-1.1-1.5-1.5c-0.8-0.6-1.7-0.9-2.7-1.1c-1.2-0.2-2.4,0-3.4,0.5
		c-0.6,0.3-1.1,0.7-1.6,1.1c-0.5,0.4-1.1,0.8-1.7,1c-0.7,0.2-1.4,0.2-2.1,0c-0.4-0.1-0.8-0.1-1.1-0.1c-0.8,0-1.6,0.4-2,1.2
		c-0.2,0.3-0.4,0.7-0.5,1.1c-0.2,0.3-0.4,0.7-0.6,1c-0.2,0.3-0.6,0.5-1,0.6c-0.8,0.2-1.6,0-2.4,0.3c-0.4,0.1-0.8,0.4-1,0.8
		c-0.2,0.4-0.3,0.7-0.3,1.1c0,0.7-0.1,1.5-0.2,2.2c-0.1,0.3-0.3,0.6-0.6,0.8c-0.3,0.2-0.6,0.3-1,0.5c-0.3,0.1-0.6,0.3-0.9,0.5
		c-0.3,0.2-0.4,0.6-0.5,0.9c-0.1,0.7-0.1,1.3-0.3,2c-0.2,0.6-0.6,1-1.2,1.3c-0.5,0.3-1,0.5-1.5,0.8c-0.8,0.6-1.4,1.4-1.7,2.3
		c-0.3,0.8-0.5,1.5-0.7,2c-0.2,0.6-0.3,1-0.4,1.3c0,0.1-0.1,0.3-0.1,0.3L609,217z"/>
	<path class="st25" d="M614.4,210.5h-0.1c-0.1,0-0.2,0-0.3,0.1c-0.3,0.3-0.5,0.7-0.4,1.1c0,0.3,0.1,0.6,0.2,0.8
		c0.1,0.3,0.2,0.6,0.2,1c0,0.4-0.1,0.8-0.3,1.1c-0.2,0.4-0.4,0.7-0.6,1.2c-0.2,0.5-0.2,1,0,1.4c0.2,0.5,0.6,0.8,0.8,1.3
		c0.2,0.5,0.2,1.1,0,1.6c-0.2,0.5-0.4,1.1-0.6,1.7c-0.1,0.3-0.1,0.6-0.1,1c0,0.3,0.1,0.6,0.3,0.9c0.4,0.5,0.8,1,1.2,1.5
		c0.5,0.5,0.8,1.1,0.8,1.7c-0.1,0.7-0.3,1.3-0.5,2c-0.1,0.3-0.1,0.7-0.1,1.1c0.1,0.3,0.2,0.7,0.4,1c0.4,0.5,0.9,1,1.4,1.5
		c0.5,0.4,0.9,0.9,1.2,1.5c0.2,0.6,0.5,1.2,0.8,1.7c0.2,0.3,0.4,0.5,0.6,0.7c0.3,0.2,0.5,0.3,0.8,0.3c0.3,0,0.5,0.1,0.8,0.2
		c0.2,0.1,0.5,0.2,0.7,0.4c0.4,0.3,0.8,0.7,1.1,1.1c0.3,0.4,0.6,0.8,0.9,1.1c0.6,0.6,1.3,1.1,2.1,1.2c0.6,0.1,1.3,0.1,1.9,0
		c0.4-0.1,0.8-0.2,1.1-0.4c0.1-0.1,0.2-0.2,0.3-0.2c-0.4,0.3-0.9,0.5-1.4,0.6c-0.6,0.1-1.2,0.1-1.8,0c-0.8-0.2-1.5-0.6-2.1-1.2
		c-0.3-0.3-0.6-0.7-0.9-1.1c-0.3-0.4-0.7-0.8-1.1-1.1c-0.2-0.2-0.5-0.3-0.7-0.4c-0.3-0.1-0.5-0.2-0.8-0.2c-0.3-0.1-0.5-0.2-0.8-0.3
		c-0.2-0.2-0.5-0.4-0.6-0.6c-0.3-0.5-0.5-1.1-0.8-1.7c-0.3-0.6-0.7-1.1-1.2-1.6c-0.5-0.4-1-0.9-1.4-1.4c-0.2-0.3-0.3-0.6-0.3-0.9
		c0-0.3,0-0.7,0.1-1c0.2-0.7,0.4-1.3,0.5-2c0-0.3-0.1-0.7-0.2-1c-0.2-0.3-0.4-0.6-0.6-0.8c-0.5-0.5-0.9-0.9-1.2-1.5
		c-0.2-0.3-0.3-0.5-0.3-0.8c0-0.3,0-0.6,0.1-0.9c0.1-0.6,0.4-1.1,0.6-1.7c0.2-0.5,0.2-1.1,0-1.7c-0.2-0.5-0.6-0.9-0.9-1.3
		c-0.2-0.4-0.2-0.9,0-1.3c0.2-0.4,0.4-0.8,0.6-1.2c0.2-0.4,0.3-0.7,0.3-1.2c0-0.3-0.1-0.7-0.3-1c-0.1-0.3-0.2-0.5-0.2-0.8
		c0-0.4,0.1-0.8,0.4-1C614.1,210.6,614.3,210.5,614.4,210.5z"/>
	<path class="st6" d="M674.7,217.2c0.2,0,0.3,0,0.4-0.1c1.1-0.3,1.9-1.3,2.2-2.4c0.2-0.9-0.1-1.9-0.7-2.6c-0.4-0.4-0.8-0.7-1.3-1
		c-0.5-0.3-0.9-0.7-1.2-1.2c-0.3-0.6-0.3-1.2-0.1-1.8c0.2-0.6,0.4-1.3,0.6-2c0.6-3-1.4-6-4.4-6.5c-0.2,0-0.3-0.1-0.5-0.1l0.1,0.1
		c0.2-0.4,0.3-0.8,0.4-1.3c0-0.5-0.1-0.9-0.2-1.3c-0.2-0.4-0.4-0.8-0.7-1.2c-0.3-0.4-0.7-0.7-1.1-0.9c-1.2-0.7-2.5-1-3.9-1.1
		c-1.3-0.1-2.6,0-3.8,0.2l0.1,0.1c-0.3-2.2-2.3-3.7-4.5-3.4c-0.1,0-0.1,0-0.2,0c-0.6,0.1-1.2,0.4-1.8,0.7c-0.3,0.1-0.6,0.2-0.9,0.3
		c-0.3,0.1-0.6,0.1-0.9,0c-0.5-0.1-1.1-0.3-1.6-0.6c-0.5-0.2-1-0.4-1.5-0.5c-0.5-0.1-1-0.1-1.5,0c-0.8,0.1-1.6,0.4-2.3,0.9
		c-0.5,0.4-0.9,0.8-1.2,1.3c-0.2,0.3-0.4,0.7-0.5,1c0,0.1-0.1,0.3-0.1,0.4c0,0,0-0.1,0.1-0.4c0.1-0.3,0.3-0.7,0.5-1
		c0.3-0.5,0.8-1,1.3-1.3c0.7-0.5,1.4-0.8,2.2-0.8c0.5-0.1,1,0,1.4,0c0.5,0.1,1,0.3,1.5,0.5c0.5,0.3,1,0.5,1.6,0.6
		c0.3,0.1,0.6,0.1,0.9,0c0.3-0.1,0.6-0.2,0.9-0.3c0.6-0.3,1.1-0.5,1.8-0.7c2.1-0.4,4.1,1,4.5,3.1c0,0,0,0.1,0,0.1v0.1h0.1
		c1.2-0.3,2.5-0.3,3.8-0.2c1.3,0.1,2.6,0.4,3.8,1.1c0.4,0.2,0.7,0.5,1,0.9c0.3,0.3,0.5,0.7,0.7,1.1c0.1,0.4,0.2,0.8,0.2,1.3
		c0,0.4-0.1,0.8-0.3,1.2l-0.1,0.1h0.1c3,0.3,5.2,3,4.9,6c0,0.2,0,0.3-0.1,0.5c-0.1,0.7-0.4,1.3-0.6,2c-0.2,0.6-0.1,1.3,0.1,1.9
		c0.3,0.5,0.7,1,1.2,1.3c0.4,0.3,0.9,0.6,1.2,1c0.6,0.7,0.9,1.6,0.7,2.5c-0.1,0.7-0.5,1.3-1,1.8c-0.3,0.3-0.7,0.5-1.1,0.7
		C674.9,217.1,674.7,217.2,674.7,217.2z"/>
	<path class="st6" d="M612,206.8c0,0,0-0.1,0-0.1v-0.3c0-0.3,0-0.7,0-1.2s0-1.2,0.1-2c0.1-0.9,0.2-1.7,0.5-2.5
		c0.3-1,0.8-1.9,1.5-2.7c0.4-0.4,0.9-0.8,1.4-1c0.6-0.3,1.1-0.5,1.7-0.7c0.6-0.2,1.2-0.5,1.7-1c0.5-0.5,0.9-1,1.3-1.6
		c0.4-0.6,0.7-1.2,1.2-1.7c0.4-0.6,1-1.1,1.6-1.4c1.2-0.7,2.6-1.2,4-1.3c1.3-0.2,2.6-0.3,4-0.3c2.2,0,4.5,0.4,6.6,1.1
		c1.4,0.5,2.8,1.2,4,2.1c0.2,0.2,0.4,0.3,0.6,0.4l0.4,0.4l0.2,0.2l0.1,0.1c0,0,0,0-0.1-0.1l-0.2-0.2l-0.4-0.4
		c-0.1-0.1-0.3-0.3-0.5-0.5c-1.2-0.9-2.5-1.7-4-2.2c-2.1-0.8-4.4-1.1-6.6-1.2c-1.3,0-2.7,0.1-4,0.3c-1.4,0.1-2.8,0.6-4.1,1.3
		c-0.6,0.4-1.2,0.9-1.6,1.5c-0.4,0.6-0.8,1.2-1.2,1.7c-0.4,0.6-0.8,1.1-1.3,1.6c-0.5,0.4-1,0.8-1.6,1c-0.6,0.2-1.2,0.4-1.7,0.7
		c-0.5,0.3-1,0.7-1.4,1.1c-0.7,0.8-1.2,1.7-1.6,2.7c-0.3,0.8-0.4,1.7-0.5,2.6c-0.1,0.8,0,1.4,0,2c0,0.5,0,1,0,1.2L612,206.8
		C612,206.8,612,206.8,612,206.8z"/>
	<path class="st341" d="M640,227.8c-0.1-0.8-0.7-1.4-1.5-1.6c-0.8-0.2-1.6,0.1-2,0.7c-0.4,0.6-0.3,1.5,0.1,2
		c0.2,0.3,0.5,0.5,0.9,0.6c0.5,0.1,0.9,0.1,1.4,0c0.4-0.1,0.7-0.3,1-0.7C640,228.5,640.1,228.2,640,227.8z"/>
	<path class="st6" d="M638.9,225.2c-0.2,0,0.1,1.4-0.9,2.7c-1,1.2-2.5,1.4-2.5,1.6s0.4,0.2,1,0.1c0.8-0.2,1.6-0.6,2.1-1.3
		c0.5-0.6,0.8-1.4,0.7-2.2C639.2,225.4,639,225.1,638.9,225.2z"/>
	<path class="st327" d="M675.3,290.7v-1l-8.6-32.6c-2.1-8.1-7.8-13.3-15.9-15.1c-0.8-0.2-16.3,3.6-16.4,3.6l-5.2,15.3
		c0,0-4.9,13.6-4.1,20.5c0.5,4.3,12.5,22.4,12.5,22.4l-3.2,4.9c28,13.9,54.1,12.2,54.1,12.2C685.9,307.5,675.3,290.7,675.3,290.7z"
		/>
	<path class="st6" d="M656.4,295.6c-0.7,0.6-1.4,1.1-2.1,1.5c-1.4,0.9-3.3,2-5.5,3.2c-2.2,1.1-4.2,2-5.7,2.7
		c-0.8,0.4-1.6,0.7-2.5,0.9c0.8-0.4,1.5-0.8,2.4-1.2c1.5-0.7,3.5-1.6,5.7-2.8c2.2-1.1,4.1-2.2,5.5-3
		C654.8,296.3,655.6,295.9,656.4,295.6z"/>
	<path class="st306" d="M649.2,270.8c0,0-30,25.2-35,24.8c-5-0.4-42.6-24.4-42.6-24.4l5.4-9.2l36,15.8l27.2-24.6L649.2,270.8z"/>
	<path class="st306" d="M579.5,264c0.1-0.3,1.1-8.2,1.1-8.2s0.6-8.7,0.7-8.8c0-0.1-0.2-1.9-2.1,0.4c-1.9,2.3-1.6,5.9-1.6,5.9
		l-7.3-3.7c0,0-2.8-1.7-3.3,0.2c-0.7-0.6-1.7-0.4-2.3,0.3c0,0-0.1,0.1-0.1,0.1c-0.5,0.8-0.5,1.8-0.1,2.7c0,0-1.6,1.7-0.5,3
		c0,0-1.3,0.6-0.2,2.8l4,4.2c0,0,0.8,5.6,2,7c1.2,1.4,4.9,2.6,4.9,2.6l6.3-7.2L579.5,264z"/>
	<path class="st341" d="M580.1,259.9c-0.6,1.8-0.9,3.6-1.2,5.4c-0.5,3-1,5.4-0.9,5.4c0.1,0,1-2.3,1.4-5.4
		C579.8,263.6,580,261.7,580.1,259.9z"/>
	<path class="st341" d="M567.3,250.2c2.7,2,5.5,3.7,8.5,5.2c-1.3-1.1-2.7-2-4.1-2.8C570.3,251.6,568.8,250.8,567.3,250.2z"/>
	<path class="st341" d="M564.5,252.5c2.6,2.1,5.5,3.8,8.7,5c-1.3-1-2.8-1.9-4.3-2.6C567.5,254,566,253.2,564.5,252.5z"/>
	<path class="st341" d="M564.1,256c0.7,0.9,1.6,1.6,2.6,2.1c0.9,0.7,1.9,1.2,3,1.5c-0.8-0.7-1.7-1.4-2.7-2
		C566.1,256.9,565.1,256.4,564.1,256z"/>
	<path class="st341" d="M571.1,262.4c0.5,0.2,1,0.2,1.5,0.1c0.5-0.1,1-0.4,1.4-0.8c0.5-0.5,0.8-1.2,0.9-1.9l-0.3,0.2
		c0.3,0.1,0.7,0.1,1,0c0.5-0.2,1-0.5,1.2-1c0.2-0.4,0.2-1,0.1-1.4l-0.3,0.3c0.4,0.3,0.9,0.3,1.4,0.2c0.4-0.1,0.7-0.4,0.8-0.7
		c0.3-0.6,0.1-0.9,0.1-0.9c0,0,0,0.3-0.3,0.8c-0.2,0.2-0.4,0.4-0.7,0.5c-0.4,0.1-0.7,0-1.1-0.2l-0.5-0.4l0.2,0.6
		c0.2,0.8-0.2,1.6-1,1.8c-0.2,0.1-0.5,0.1-0.8,0l-0.3-0.1v0.3c-0.1,1.1-0.9,2.1-2,2.5C572,262.3,571.5,262.4,571.1,262.4z"/>
	<path class="st327" d="M658.3,245c-5.2-4.1-14.5,1.7-20.9,6.6c-5.9,4.4-14.7,13-14.7,13L639,283l17-13.8c4.2-3.2,7.9-9,7.6-14.3
		C663.3,251,661.4,247.4,658.3,245z"/>
	<path class="st6" d="M658.3,245c0,0,0.1,0,0.2,0.1c0.1,0.1,0.3,0.3,0.6,0.5c0.7,0.6,1.4,1.3,2,2.1c0.9,1.2,1.6,2.6,2.1,4
		c0.6,2,0.8,4,0.4,6.1c-0.8,4.5-4,9.3-9,12.9l-15.4,12.5l-0.2,0.1l-0.2-0.2l-5.8-6.5l-10.6-11.9l-0.2-0.2l0.2-0.2
		c4.5-4.3,8.8-8.2,12.8-11.5c3.5-2.9,7.3-5.4,11.4-7.4c3.5-1.6,6.6-2.3,8.7-1.8l0.7,0.2c0.2,0.1,0.4,0.1,0.6,0.2
		c0.3,0.1,0.6,0.3,0.9,0.4l0.5,0.4L658.3,245c-0.9-0.6-1.9-1-2.9-1.2c-2-0.4-5.1,0.3-8.5,2c-4,2.1-7.8,4.6-11.3,7.5
		c-4,3.3-8.3,7.2-12.7,11.5v-0.3l10.6,11.9l5.8,6.5h-0.4l15.4-12.5c4.9-3.5,8.1-8.2,8.9-12.6c0.4-2,0.3-4-0.3-5.9
		c-0.4-1.4-1.1-2.8-2-4c-0.6-0.8-1.2-1.5-1.9-2.1l-0.6-0.5C658.4,245.1,658.4,245.1,658.3,245z"/>
	<path class="st281" d="M640.6,379.6l22.1-7.6c0,0,15.1,19.9,19.3,18.9l-13.1-43.4L634,357.9L640.6,379.6z"/>
	<path class="st2" d="M656.8,359.2c0-0.9,0.7-1.7,1.6-1.8c0.9,0,1.8,0.7,1.8,1.6c0,1-0.8,1.9-1.8,2c-0.9,0-2-1-1.7-1.9"/>
	<path class="st6" d="M662.7,372.8c0.2-0.1,0-1.2,0.4-2.4c0.4-1.2,1.1-2.1,1-2.2c-0.1-0.2-1.3,0.5-1.7,2
		C661.9,371.7,662.5,372.9,662.7,372.8z"/>
	<path class="st6" d="M666,376.8c0.2,0,0.3-1,1-2s1.6-1.5,1.5-1.7s-1.3,0-2.1,1.3S665.8,376.8,666,376.8z"/>
	<path class="st6" d="M672.2,377.7c0-0.2-1.2-0.2-2.2,0.7c-1,0.9-1.2,2-1,2.1c0.2,0,0.6-0.8,1.5-1.5
		C671.4,378.3,672.3,377.9,672.2,377.7z"/>
	<path class="st6" d="M657.5,374c0.2-0.1-0.4-1-0.7-2.3c-0.3-1.2-0.2-2.3-0.4-2.3c-0.2-0.1-0.7,1.1-0.4,2.5S657.4,374.1,657.5,374z"
		/>
	<path class="st9" d="M637.9,320.6c-0.8-0.2-38.3,39.9-39.1,46.6s0.5,12.4,4.9,16.2s54.8-8.5,54.8-8.5l-4.8-21.1l18.2-6.1
		l-16.3-29.8L637.9,320.6z"/>
	<path class="st6" d="M653.9,354.3c0,0.1-7.8,2.5-17.4,5.4c-9.6,2.8-17.6,5-17.6,4.9c0-0.2,7.8-2.5,17.4-5.4
		C646,356.3,653.9,354.2,653.9,354.3z"/>
	<path class="st281" d="M607.1,356.6l7.3,23.1c0,0-21,15.2-20.1,19.6l45.3-12.5l-9.9-36.4L607.1,356.6z"/>
	<path class="st2" d="M627.9,373.9c1,0,1.8,0.8,1.9,1.8c0,1-0.7,1.8-1.7,1.9c-1,0-1.9-0.8-2-1.9c0.1-1,1-1.8,2-1.7"/>
	<path class="st6" d="M613.6,379.7c0.1,0.2,1.2,0,2.5,0.4s2.1,1.2,2.3,1c0.2-0.1-0.5-1.3-2.1-1.8
		C614.8,378.9,613.5,379.5,613.6,379.7z"/>
	<path class="st6" d="M609.4,383c0,0.2,1.1,0.3,2.1,1.1c1,0.7,1.5,1.7,1.7,1.6c0.2-0.1,0-1.4-1.3-2.2
		C610.7,382.5,609.3,382.8,609.4,383z"/>
	<path class="st6" d="M608.3,389.4c0.2,0,0.2-1.2-0.7-2.3c-0.9-1.1-2.1-1.3-2.1-1s0.8,0.7,1.5,1.6
		C607.7,388.5,608,389.4,608.3,389.4z"/>
	<path class="st6" d="M612.6,374.2c0.1,0.2,1.1-0.4,2.4-0.7c1.3-0.3,2.4-0.1,2.4-0.4c0.1-0.2-1.1-0.8-2.6-0.4
		S612.4,374.1,612.6,374.2z"/>
	<path class="st9" d="M610,293.7c-5-1.1-10.2,0-14.2,3.1c-4.2,2.9-6.3,8.1-5.3,13.1c2,14.3,20.3,63.1,20.3,63.1l25.3-7.6
		c0.1,0,0.3-0.5,0.2-0.3c-0.2,0.3-12.8-40.3-12.5-39.8c0.3,0.5,25.5,20.8,36,24.6c9.6,3.5,20.4,0.3,26.5-7.9
		c2.4-3.4,8.9-18.8-2.4-33.7l-21.7,1.1c0,0-49.6-14.8-50.3-15.1C611.3,294,610.6,293.8,610,293.7z"/>
	<path class="st25" d="M687.2,341.3c0,0-0.1,0.2-0.3,0.5c-0.3,0.5-0.7,0.9-1,1.3c-1.5,1.6-3.1,3-5,4.2c-2.9,1.9-6.2,3.1-9.7,3.7
		c-2.2,0.3-4.4,0.4-6.5,0.1c-2.5-0.3-4.8-1-7.1-2.1c-1.2-0.5-2.3-1.2-3.6-1.8c-1.2-0.6-2.4-1.4-3.6-2.1c-2.4-1.5-4.9-3.1-7.4-4.9
		c-5.1-3.5-10.4-7.5-15.9-11.9l-2.1-1.7l-1-0.9l-0.3-0.3l-0.1-0.1c0.1,0-0.2-0.1,0.2,0c0.3-0.3,0.1-0.2,0.2-0.2v0.1l0.2,0.6
		c0.5,1.7,1.1,3.5,1.6,5.3l3.4,10.9l7.4,23.2l0.1,0.2l-0.2,0.1l-25.6,7.7l-0.2,0.1l-0.1-0.2c-1.6-4.4-3.3-9-5-13.8
		c-3.7-10.3-7.2-20.3-10.2-30.2c-1.5-4.9-3-9.8-4.1-14.6c-0.1-0.6-0.3-1.2-0.4-1.8c-0.1-0.6-0.2-1.2-0.3-1.8
		c-0.3-1.2-0.4-2.4-0.4-3.7c0-2.5,0.7-4.9,2-6.9c2.7-3.9,6.9-6.4,11.6-7c2.2-0.3,4.5-0.2,6.7,0.3l1.6,0.4l1.5,0.5l3,0.9l22.4,6.7
		l32.4,9.8l8.8,2.7l2.3,0.7c0.5,0.2,0.8,0.3,0.8,0.3s-0.3-0.1-0.8-0.2l-2.3-0.7l-8.8-2.6l-32.5-9.6l-22.4-6.6l-3-0.9l-1.5-0.4
		l-1.6-0.4c-2.1-0.5-4.3-0.6-6.5-0.3c-4.6,0.6-8.7,3.1-11.3,6.8c-1.3,2-1.9,4.3-2,6.7c0,1.2,0.1,2.4,0.4,3.6
		c0.1,0.6,0.2,1.2,0.3,1.8c0.1,0.6,0.3,1.2,0.4,1.8c1.2,4.8,2.6,9.6,4.1,14.5c3.1,9.8,6.6,19.9,10.2,30.1c1.7,4.7,3.4,9.4,5,13.8
		l-0.3-0.1l25.6-7.7l-0.2,0.3l-7.4-23.2c-1.2-3.7-2.3-7.3-3.4-10.9c-0.5-1.8-1.1-3.5-1.6-5.3l-0.2-0.7v-0.1c0.1-0.1-0.2,0.1,0.2-0.3
		c0.4,0.2,0.1,0.1,0.3,0.1l0.1,0.1l0.2,0.2l1,0.9l2.1,1.7c5.5,4.4,10.8,8.4,15.9,11.9c2.5,1.8,5,3.4,7.4,4.9
		c1.2,0.8,2.4,1.4,3.6,2.1c1.2,0.7,2.4,1.3,3.5,1.8c2.2,1.1,4.5,1.8,7,2.1c2.1,0.3,4.3,0.3,6.5-0.1c3.4-0.5,6.7-1.7,9.6-3.6
		c1.8-1.1,3.5-2.5,5-4.1c0.4-0.4,0.7-0.9,1.1-1.3C687.1,341.5,687.2,341.3,687.2,341.3z"/>
	<path class="st6" d="M612.2,314c0.7,0.3,1.5,0.7,2.1,1.1c1.6,1,3.1,2.2,4.5,3.6c1.4,1.3,2.7,2.8,3.8,4.4c0.5,0.6,0.9,1.3,1.2,2.1
		c-0.5-0.6-1-1.2-1.5-1.9c-1.2-1.5-2.4-2.9-3.8-4.2c-1.4-1.3-2.9-2.5-4.4-3.6C613.4,315,612.8,314.5,612.2,314z"/>
	<path class="st6" d="M620.8,311.2c0.4,0.6,0.7,1.2,0.9,1.9c0.6,1.6,1.1,3.2,1.5,4.9c0.4,1.7,0.6,3.3,0.7,5c0.1,0.7,0.1,1.4,0,2.1
		c-0.2,0-0.3-3.2-1.2-7S620.7,311.2,620.8,311.2z"/>
</g>
<g id="freepik--character-1--inject-57">
	<path class="st306" d="M270.1,140.4l1.6-10.6L279,119l0.5,1.6l1.6-2.1c0,0,1.7,1.6,1.3,3.1c-0.9,2.3-1.9,4.6-3.1,6.8l7-7.8
		c0,0,1,1.5-0.4,3.8s-5.1,8-5.1,8s-2.1,11.5-2.6,13.7c-0.5,2.2-2.6,3-4.7,4.1c-2.1,1.2-7.8,2.3-7.8,2.3l-0.4-11.6L270.1,140.4z"/>
	<path class="st281" d="M153.9,160.3c0,0-3.5,16.6,13.7,15c17.3-1.6,58.9-11.4,58.9-11.4l40.4-12.7l-1.2-12.2l-50.1,6.9
		c0,0-47.9,2.1-54.9,3.7C152.8,151.4,153.9,160.3,153.9,160.3z"/>
	<path class="st281" d="M44.5,347.1L26.8,373l34,23.4c2-3.2-11.4-21.5-11.4-21.5l12.1-16.1L44.5,347.1z"/>
	<g class="st53">
		<path class="st5" d="M39.9,366.3c-0.8-0.3-1.6,0.1-2,0.8c-0.2,0.8,0.2,1.6,0.9,2c0.8,0.3,1.7-0.1,2.1-0.9c0.2-0.9-0.4-1.7-1.2-2"
			/>
	</g>
	<path class="st6" d="M50.1,375.1c-0.1,0.2-1-0.4-2.2-0.4c-1.2-0.1-2.1,0.3-2.2,0.1c-0.1-0.2,0.8-0.9,2.2-0.8
		C49.3,374.1,50.2,375,50.1,375.1z"/>
	<path class="st6" d="M52.7,379c-0.1,0.2-1,0-2,0.2c-1,0.2-1.7,0.9-1.8,0.7c-0.2-0.1,0.4-1.1,1.6-1.4S52.8,378.8,52.7,379z"/>
	<path class="st6" d="M51.9,384.4c-0.2-0.1,0.1-1,1.2-1.6s2-0.4,2-0.2c0,0.2-0.8,0.3-1.6,0.8C52.6,383.9,52.1,384.5,51.9,384.4z"/>
	<path class="st6" d="M52.4,371.1c-0.2,0.1-0.8-0.6-1.8-1.2c-1-0.6-2-0.8-2-1c0-0.2,1.1-0.3,2.2,0.4
		C52.1,370.1,52.6,371.1,52.4,371.1z"/>
	<path class="st6" d="M54.2,366.8c0,0.1-0.8-0.3-1.7-1.2c-0.5-0.5-1-1.1-1.4-1.8c-0.2-0.4-0.5-0.8-0.6-1.2c-0.1-0.2-0.2-0.5-0.3-0.7
		c-0.1-0.4,0.1-0.8,0.5-0.9c0.3-0.1,0.7,0,1,0.1c0.2,0.1,0.4,0.3,0.6,0.5c0.3,0.3,0.6,0.7,0.8,1.1c0.4,0.6,0.7,1.3,0.9,2
		c0.2,0.6,0.3,1.3,0.1,2c-0.1,0-0.2-0.8-0.6-1.9c-0.2-0.7-0.6-1.3-1-1.8c-0.2-0.3-0.5-0.7-0.8-1c-0.3-0.3-0.6-0.5-0.8-0.5
		c-0.2,0.1-0.1,0.1-0.1,0.2c0,0.2,0.1,0.4,0.2,0.5c0.2,0.4,0.3,0.7,0.6,1.1c0.4,0.6,0.8,1.2,1.2,1.7
		C53.7,366.2,54.3,366.7,54.2,366.8z"/>
	<path class="st6" d="M53.8,366.9c-0.1,0,0-0.8,0.6-1.9c0.4-0.6,0.9-1.2,1.5-1.6c0.3-0.3,0.7-0.5,1.1-0.7c0.5-0.3,1.1-0.3,1.6-0.1
		c0.3,0.2,0.5,0.6,0.4,1c0,0.2-0.1,0.5-0.2,0.7c-0.2,0.4-0.4,0.8-0.8,1.1c-0.5,0.5-1.2,0.9-1.9,1.2c-0.7,0.3-1.4,0.3-2,0
		c0.6-0.1,1.2-0.3,1.8-0.5c0.6-0.3,1.2-0.7,1.6-1.2c0.3-0.3,0.5-0.6,0.6-1c0.2-0.4,0.2-0.8,0.1-0.8c-0.3-0.1-0.7-0.1-1,0.1
		c-0.3,0.2-0.7,0.4-1,0.6c-0.5,0.4-1,0.8-1.4,1.4C54.2,366.2,53.9,366.9,53.8,366.9z"/>
	<path class="st281" d="M134.4,351.6l-4.6,31.2l41.3,1.1c-0.1-3.7-21.3-11.8-21.3-11.8l4.3-19.9L134.4,351.6z"/>
	<g class="st53">
		<path class="st5" d="M137.1,370.1c-0.8,0.2-1.3,1-1.2,1.8c0.2,0.8,1,1.3,1.9,1.2c0.9-0.2,1.4-1,1.3-1.9c-0.3-0.8-1.2-1.2-2.1-1"/>
	</g>
	<path class="st6" d="M150.5,371.9c0,0.2-1,0.3-2,0.8c-1.1,0.6-1.6,1.4-1.7,1.3c-0.2-0.1,0.1-1.2,1.4-1.9
		C149.4,371.5,150.6,371.8,150.5,371.9z"/>
	<path class="st6" d="M154.8,373.7c0,0.2-0.8,0.5-1.5,1.3c-0.7,0.8-1,1.6-1.1,1.6s-0.3-1.1,0.6-2.1S154.8,373.6,154.8,373.7z"/>
	<path class="st6" d="M157.1,378.7c-0.2,0-0.4-1,0.1-2c0.5-1,1.5-1.4,1.6-1.3c0.1,0.2-0.5,0.7-1,1.6S157.3,378.7,157.1,378.7z"/>
	<path class="st6" d="M150.3,367.3c-0.1,0.2-1-0.1-2.1-0.1c-1.2,0-2,0.4-2.1,0.2c-0.1-0.2,0.8-0.8,2.1-0.9
		C149.5,366.6,150.4,367.2,150.3,367.3z"/>
	<path class="st9" d="M171,296.3c-2-7.7-30.3-55.8-30.3-55.8l-1.5-4.3l1.1-2.1l-42.9-22.7c0,0-11,15-13.4,22.1
		c-2.4,7.1-11.5,68.7-11.5,68.7s-15.7,22.4-18.4,27.4c-0.6,1.1-19.8,29.1-19.8,29.1l20.7,12.7l45.5-60.3l17.3-50.2l25.6,43.2
		l-12.4,63.7l22.3,1.1C153.4,368.8,173,304,171,296.3z"/>
	<path class="st25" d="M127.8,249.6c0.1,0.2-3.3,2-6.1,5.6c-1.7,2.2-3,4.7-3.8,7.4c0-0.8,0.2-1.6,0.5-2.4c0.7-1.9,1.7-3.7,2.9-5.3
		c1.2-1.6,2.7-3,4.4-4.1C126.4,250.3,127.1,249.9,127.8,249.6z"/>
	<path class="st25" d="M105.4,227.1c0.1,0.3,0.1,0.7,0.1,1.1c0,1-0.1,2-0.2,2.9c-0.6,3.2-1.9,6.2-4,8.6c-2.1,2.5-4.7,4.4-7.6,5.8
		c-0.9,0.4-1.8,0.7-2.7,1c-0.3,0.1-0.7,0.2-1,0.2c0-0.1,1.4-0.5,3.6-1.6c2.8-1.4,5.3-3.4,7.4-5.8c2-2.4,3.4-5.3,4.1-8.4
		C105.4,228.6,105.3,227.1,105.4,227.1z"/>
	<path class="st25" d="M130.2,248.7c0.4-2.3,1-4.5,1.7-6.7c0.6-2.2,1.3-4.4,2.3-6.6c-0.4,2.3-1,4.5-1.7,6.7
		C131.9,244.3,131.1,246.5,130.2,248.7z"/>
	<path class="st306" d="M175.8,115.6l-13.5,34.1c-2.3,5.9-4.5,14.8,4.9,18l0,0c8.3,2.2,13.3-4.6,15.5-10c1-2.6,1.9-4.7,2-5
		c0,0,9,2.6,13-5.7c2-4,5.3-12.7,8.2-20.5c3.1-8.4-0.7-17.9-8.9-21.7l-0.8-0.4C187.1,100.9,179.1,106.5,175.8,115.6z"/>
	<path class="st307" d="M184.5,152.8c-3.9-1.8-7.1-4.7-9.4-8.3c0,0-0.2,7.4,8.5,10.5L184.5,152.8z"/>
	<path class="st6" d="M189.7,124.4c-0.2,0.1-0.9-1.1-2.4-1.7c-1.4-0.6-2.8-0.3-2.9-0.5c-0.1-0.2,0.3-0.4,0.8-0.5
		c0.8-0.2,1.6-0.1,2.4,0.2c0.7,0.3,1.4,0.8,1.8,1.5C189.8,124,189.8,124.4,189.7,124.4z"/>
	<path class="st6" d="M188.6,127.8c-0.3,0.6-1,0.9-1.6,0.6c-0.6-0.2-0.9-0.9-0.7-1.5c0,0,0,0,0,0c0.3-0.6,1-0.9,1.6-0.6
		C188.5,126.5,188.8,127.2,188.6,127.8C188.6,127.8,188.6,127.8,188.6,127.8z"/>
	<path class="st6" d="M189.5,135.9c0.8,0.1,1.5,0.3,2.3,0.6c0.4,0.1,0.7,0.2,0.8,0c0.2-0.3,0.3-0.7,0.2-1.1c0.1-1,0.1-2,0.2-2.9
		c0.3-4.2,0.7-7.6,0.9-7.6s0,3.4-0.3,7.6c-0.1,1-0.2,2-0.3,2.9c0,0.5-0.1,1-0.4,1.4c-0.2,0.2-0.5,0.3-0.8,0.2
		c-0.2,0-0.4-0.1-0.6-0.2C190.9,136.6,190.1,136.3,189.5,135.9z"/>
	<path class="st6" d="M191.2,118.8c-0.3,0.3-1.3-0.4-2.7-0.9c-1.4-0.5-2.7-0.6-2.7-1c0-0.2,0.3-0.4,0.9-0.5c0.8-0.1,1.5,0,2.3,0.2
		c0.7,0.2,1.4,0.6,1.9,1.2C191.1,118.3,191.2,118.6,191.2,118.8z"/>
	<path class="st6" d="M204.6,125.8c-0.3,0.2-1.2-0.6-2.6-1.2s-2.5-0.9-2.6-1.2c0-0.2,0.3-0.3,0.9-0.3c0.7,0,1.5,0.2,2.1,0.5
		c0.7,0.3,1.3,0.8,1.8,1.3C204.6,125.3,204.7,125.7,204.6,125.8z"/>
	<path class="st306" d="M173.5,122.1c-0.1-0.1-5-4.4-7.5,1.4c-2.5,5.8,3.9,7.1,3.9,7S173.5,122.1,173.5,122.1z"/>
	<path class="st307" d="M169.2,127.6c0,0-0.1,0-0.3,0c-0.3,0-0.6-0.1-0.8-0.3c-0.6-0.8-0.6-1.9-0.2-2.8c0.2-0.5,0.5-1,0.9-1.3
		c0.3-0.3,0.7-0.5,1.1-0.4c0.3,0,0.5,0.3,0.5,0.5c0,0.2-0.1,0.3,0,0.3c0.1,0,0.2,0,0.2-0.3c0-0.2,0-0.3-0.1-0.5
		c-0.1-0.2-0.3-0.3-0.5-0.4c-0.5-0.1-1.1,0.1-1.4,0.4c-0.5,0.4-0.8,0.9-1.1,1.5c-0.5,1-0.4,2.3,0.4,3.2c0.3,0.2,0.6,0.3,1,0.2
		C169.1,127.7,169.2,127.6,169.2,127.6z"/>
	<path class="st6" d="M186.7,140c0.1-0.2-1.2-0.6-2-1.8c-0.3-0.5-0.6-1.1-0.8-1.7c-0.2-0.5-0.3-0.8-0.4-0.7c-0.1,0-0.1,0.3,0,0.8
		c0.1,0.7,0.4,1.3,0.7,1.9c0.4,0.6,0.9,1,1.6,1.3C186.4,140,186.7,140,186.7,140z"/>
	<path class="st6" d="M213.5,120.9c0.4-0.2,0.9-0.3,1.3-0.6c0.4-0.3,1.1-1.7,0.8-2.1c-0.5,0-1-0.1-1.4-0.1c-1.2-0.5-2.1-1.6-2.4-2.9
		l0,0c-0.3-1.2-0.8-2.4-1.3-3.5c-1.6-3.7-3-6.4-4.9-8.1c-3-2.6-6.6-4.3-10.5-5c-3.3-0.4-6.9,1-8.5,4c-1.1-2.1-3.7-3-6-3l0,0
		c-2.6-0.1-4.8,1.9-6.4,3.9s-2.8,4.5-4.9,6.1c-0.4,0.3-0.9,0.7-0.9,1.3c0.1,0.4,0.4,0.8,0.8,0.8c0.4,0.1,0.8,0,1.2-0.1l-1.5,1.5
		c0.8,0.5,1.6,0.7,2.5,0.8c-0.4,2.2-0.6,4.5-0.7,6.8c0.9,0.2,1.7,0.8,2.2,1.5c0.5,1,0.4,2.5,1.9,2.5c0.8,0,2-1.2,2.4-1.8
		c3.3-4,5.6-8.7,6.9-13.7c1.3-0.6,2.8-1,4.3-1.1l-0.1,0.1c2.7,0.1,5.8,0.3,7.6,2.3c1.4,1.6,1.8,3.8,2.5,5.8c1.4,3.7,4.3,6.6,8,8.2
		c-0.8,2.5-4.2,10.9-5,13.4l5.4-8.1l0,0c0.3-0.2,0.5-0.5,0.8-0.7l2.6-2.3c0.2,0,0.4,0,0.6,0c2.8-0.1,5.4-1.7,6.7-4.2
		C216,122.4,214.6,122.2,213.5,120.9z"/>
	<path class="st25" d="M212.5,123.2L212.5,123.2l-0.4,0.1c-0.2,0-0.3,0.1-0.5,0.1c-0.2,0-0.4,0.1-0.6,0.1c-1.4,0.1-2.7-0.2-4-0.7
		c-1.8-0.8-3.4-2.2-4.5-3.9c-1.3-2.1-2.1-4.4-2.5-6.8c-0.2-1.3-0.3-2.6-0.5-3.8c-0.2-1.2-0.5-2.3-0.9-3.4c-0.4-1-1.1-1.8-2-2.5
		c-0.4-0.3-0.8-0.5-1.3-0.7c-0.4-0.1-0.8-0.2-1.3-0.2c-0.8,0-1.5,0.1-2.2,0.4c-0.5,0.2-1,0.5-1.5,0.9c-0.4,0.3-0.7,0.7-1,1.1
		c0,0,0,0,0-0.1l0.1-0.3c0.2-0.3,0.4-0.6,0.7-0.8c0.4-0.4,0.9-0.7,1.5-1c1.1-0.5,2.4-0.6,3.6-0.2c0.5,0.2,0.9,0.4,1.3,0.7
		c0.9,0.7,1.5,1.5,2,2.5c0.5,1.1,0.8,2.2,1,3.4c0.2,1.2,0.3,2.5,0.5,3.8c0.3,2.4,1.2,4.7,2.5,6.8c1.1,1.7,2.6,3,4.4,3.9
		c1.2,0.6,2.6,0.9,3.9,0.8C212,123.3,212.5,123.1,212.5,123.2z"/>
	<path class="st6" d="M202.7,130c-0.2,0.1-0.9-1.1-2.4-1.7c-1.4-0.6-2.8-0.3-2.9-0.5c-0.1-0.2,0.3-0.4,0.9-0.5
		c0.8-0.2,1.6-0.1,2.4,0.2c0.7,0.3,1.4,0.9,1.8,1.6C202.8,129.6,202.8,130,202.7,130z"/>
	<path class="st6" d="M200.6,132.4c-0.3,0.6-1,0.9-1.6,0.6c-0.6-0.2-0.9-0.9-0.7-1.6c0,0,0,0,0,0c0.3-0.6,1-0.9,1.6-0.6
		C200.6,131.1,200.9,131.7,200.6,132.4C200.7,132.4,200.7,132.4,200.6,132.4z"/>
	<path class="st25" d="M189,104.6c-0.4,0.1-0.8,0.3-1.2,0.5c-1,0.6-1.8,1.4-2.4,2.4c-0.4,0.7-0.8,1.4-1.1,2.1
		c-0.3,0.8-0.6,1.7-0.8,2.6c-0.3,1-0.6,1.9-1,2.9c-0.2,0.5-0.5,1-0.8,1.4c-0.3,0.5-0.7,0.9-1.2,1.2c-0.4,0.2-1,0.2-1.4,0
		c-0.4-0.2-0.7-0.6-0.9-1c-0.2-0.8-0.2-1.7,0-2.5l0.2,0.1c-0.5,0.5-1.1,1-1.7,1.4c-0.6,0.4-1.3,0.4-2,0.3c-0.3-0.1-0.6-0.3-0.8-0.5
		c-0.2-0.2-0.3-0.5-0.4-0.8c0-0.3,0-0.6,0.1-0.8c0.1-0.2,0.3-0.4,0.5-0.6l0.1,0.1c-0.7,0.4-1.6,0.6-2.4,0.7c-0.3,0-0.5,0-0.7,0h-0.2
		c0.1,0,0.1,0,0.2,0c0.2,0,0.4,0,0.7,0c0.8-0.1,1.6-0.3,2.3-0.7l0.1,0.1c-0.4,0.3-0.6,0.8-0.5,1.3c0,0.3,0.2,0.5,0.4,0.7
		c0.2,0.2,0.5,0.4,0.8,0.4c0.6,0.2,1.3,0.1,1.9-0.3c0.6-0.4,1.2-0.8,1.7-1.4l0.2-0.2l-0.1,0.3c-0.2,0.8-0.2,1.6,0,2.4
		c0.1,0.4,0.4,0.7,0.8,1c0.4,0.2,0.8,0.2,1.2,0c0.5-0.3,0.8-0.7,1.1-1.1c0.3-0.4,0.5-0.9,0.8-1.4c0.4-0.9,0.7-1.9,1-2.8
		c0.3-0.9,0.6-1.8,0.9-2.6c0.3-0.7,0.7-1.5,1.1-2.1c0.6-1,1.5-1.8,2.5-2.4C188.1,104.8,188.5,104.7,189,104.6z"/>
	<path class="st281" d="M93.7,213.7c0,0,48.7-56.9,56.2-63.7c9.9-8.8,24.5-3.1,24.5-3.1l19.1,22.6l-8.6,11.5l-20.7,28.4l-17.9,29.9
		c0,0-13,1.6-20.3-2.4C118.7,232.9,93.7,213.7,93.7,213.7z"/>
	<path class="st281" d="M156,156.2c0,0-5.7,16,11.7,16.6c17.3,0.7,59.9-3.7,59.9-3.7l41.7-7.3l-2-14.7l-48.2,2.9
		c0,0-47.7-4.2-54.9-3.5C156.1,147.2,156,156.2,156,156.2z"/>
	<path class="st6" d="M155.1,165.9c-0.2-0.2-0.4-0.5-0.5-0.8c-0.4-0.7-0.7-1.5-1-2.3c-0.8-2.6-0.9-5.4-0.2-8c0.8-2.6,2.2-5,4.2-6.8
		c0.6-0.6,1.3-1,2-1.4c0.3-0.1,0.6-0.2,0.9-0.3c-1,0.5-1.9,1.2-2.6,2c-1.8,1.9-3.2,4.2-3.9,6.7c-0.7,2.6-0.6,5.2,0,7.8
		C154.6,164.7,155.2,165.9,155.1,165.9z"/>
	<path class="st6" d="M269.3,161.8c0-0.1-0.1-0.2-0.1-0.3c0-0.2-0.1-0.4-0.1-0.7c-0.1-0.7-0.3-1.7-0.4-2.9
		c-0.4-2.6-0.9-6.2-1.6-10.8l0.2,0.2l-43,2.7l-3.8,0.2l0,0l-38.4-2.8l-11.5-0.9l-3.1-0.3l-0.8-0.1c-0.1,0-0.2,0-0.3,0
		c0.1,0,0.2,0,0.3,0h0.8l3.1,0.2L182,147l38.3,2.7l0,0l3.8-0.2l43-2.5h0.1v0.2c0.6,4.6,1.1,8.3,1.4,10.9c0.1,1.2,0.3,2.2,0.4,2.9
		c0,0.3,0.1,0.6,0.1,0.8C269.2,161.7,269.2,161.8,269.3,161.8z"/>
	<path class="st6" d="M226.6,169.2c-0.2,0.1-0.4,0.1-0.6,0.1c-0.4,0.1-1,0.2-1.6,0.3c-1.4,0.2-3.5,0.5-6.1,0.8
		c-5.2,0.5-12.4,1.1-20.3,1.6c-7.9,0.5-15.1,0.8-20.3,0.9c-2.6,0.1-4.7,0.1-6.2,0.1l-1.7,0c-0.2,0-0.4,0-0.6,0
		c0.2,0,0.4-0.1,0.6-0.1h1.7l6.2-0.2c5.2-0.2,12.4-0.6,20.3-1.1s15.1-1,20.3-1.4c2.6-0.2,4.7-0.4,6.1-0.6l1.7-0.2
		C226.2,169.3,226.4,169.2,226.6,169.2z"/>
	<path class="st306" d="M287.2,129.8l-7.9,6.8c1.4-2,2.8-4.2,4-6.3c0.6-1.5-0.9-3.3-0.9-3.3l-1.9,1.9l-0.3-1.6l-8.6,9.7l-3,10.3
		l-1.5,0.1l1.7,11.7c2.3-0.9,6.2-2.8,7-5c0.8-2.1,4.4-13.3,4.4-13.3s4.4-5.1,6.1-7.2S287.2,129.8,287.2,129.8z"/>
	<path class="st307" d="M282.4,127c-1.2,1.8-2.5,3.6-4,5.2c-1.3,1.8-2.7,3.4-4.3,5c1.1-1.9,2.4-3.7,3.8-5.3
		C279.3,130.1,280.8,128.4,282.4,127z"/>
	<path class="st307" d="M280.3,127.2c-0.7,1-1.4,1.9-2.2,2.7c-1.4,1.6-3.3,3.9-5.5,6.3l-0.8,0.8l0-0.1c-0.8,2.9-1.6,5.5-2.2,7.3
		c-0.3,1-0.6,2-1,2.9c0.2-1,0.4-2,0.7-3c0.5-1.9,1.2-4.4,2.1-7.3v0v0l0.8-0.8c2.2-2.4,4.2-4.6,5.6-6.2
		C278.6,128.8,279.4,128,280.3,127.2z"/>
</g>
</svg>
