<?xml version="1.0" encoding="utf-8"?>
<!-- Generator: Adobe Illustrator 23.0.2, SVG Export Plug-In . SVG Version: 6.00 Build 0)  -->
<svg version="1.1" id="Layer_1" xmlns="http://www.w3.org/2000/svg" xmlns:xlink="http://www.w3.org/1999/xlink" x="0px" y="0px"
	 viewBox="0 0 750 420" style="enable-background:new 0 0 750 420;" xml:space="preserve">
<style type="text/css">
	.st0{fill:#FF725E;}
	.st1{fill:#EAF0F6;}
	.st2{fill:#ff4500;}
	.st3{fill:#FFFFFF;}
	.st4{fill:#EFF9F8;}
	.st5{fill:#CCA2A5;}
	.st6{fill:#263238;}
	.st7{fill:#CBD6E2;}
	.st8{fill:#00BDA5;}
	.st9{opacity:0.3;}
	.st10{fill:#253342;}
	.st11{fill:#455A64;}
	.st12{fill:#FAFAFA;}
	.st13{fill:#F5F5F5;}
	.st14{fill:#EBEBEB;}
	.st15{fill:#F5F1E8;}
	.st16{fill:none;}
	.st17{fill:#FFF8F6;}
	.st18{fill:#BDE1E5;}
	.st19{fill:#F3F4FF;}
	.st20{fill:#FFF2F0;}
	.st21{fill:#F6DDDF;}
	.st22{fill:#B7DBDF;}
	.st23{fill:#EDEEFF;}
	.st24{fill:#7C92B0;}
	.st25{fill:#C5D0DC;}
	.st26{fill:url(#SVGID_1_);}
	.st27{fill:url(#SVGID_2_);}
	.st28{fill:url(#SVGID_3_);}
	.st29{fill:url(#SVGID_4_);}
	.st30{fill:url(#SVGID_5_);}
	.st31{fill:#00B79F;}
	.st32{fill:#6A78CB;}
	.st33{fill:#FF7A59;}
	.st34{fill:#EFBC6B;}
	.st35{fill:#00A3F4;}
	.st36{fill:#E9F3F2;}
	.st37{fill:#E4EAF0;}
	.st38{fill:#DAEFF8;}
	.st39{fill:#EC545B;}
	.st40{fill:#009EB7;}
	.st41{fill:#F4F4F4;}
	.st42{fill:#DADADA;}
	.st43{opacity:0.6;}
	.st44{fill:#E49B85;}
	.st45{fill:#A46550;}
	.st46{opacity:0.71;fill:#6A78CB;enable-background:new    ;}
	.st47{opacity:0.5;fill:#6A78CB;enable-background:new    ;}
	.st48{fill:#FFB897;}
	.st49{fill:#E5936E;}
	.st50{opacity:0.2;}
	.st51{fill:#E9AF9D;}
	.st52{fill:#CCA2A5;enable-background:new    ;}
	.st53{fill:none;}
	.st54{fill-rule:evenodd;clip-rule:evenodd;fill:#6A78CB;}
	.st55{fill:#EFEFEF;}
	.st56{fill:#884842;}
	.st57{fill:#EC9A68;}
	.st58{fill:#E48565;}
	.st59{fill:#E5E5E5;}
	.st60{fill:#DA9D8A;}
	.st61{fill:#935037;}
	.st62{fill:#F6F6F6;}
	.st63{fill:#D5976A;}
	.st64{fill:#C5D0DC;enable-background:new    ;}
	.st65{fill:#E4EAF0;enable-background:new    ;}
	.st66{fill:#B18276;}
	.st67{fill:#DFA796;}
	.st68{fill:#FFFFFF;stroke:#000000;stroke-width:0.5;stroke-miterlimit:10;}
	.st69{fill:#DC9E8B;}
	.st70{fill:#CD8C80;}
	.st71{fill:#65463C;}
	.st72{fill:#E7907E;}
	.st73{fill:#DC8679;}
	.st74{fill:#6F4439;}
	.st75{fill:#F1B483;}
	.st76{fill:none;stroke:#E4EAF0;stroke-width:0.6249;stroke-linecap:round;stroke-miterlimit:10;}
	.st77{fill:none;stroke:#E4EAF0;stroke-width:1.2063;stroke-linecap:round;stroke-miterlimit:10;}
	.st78{fill:none;stroke:#E4EAF0;stroke-width:1.0028;stroke-linecap:round;stroke-miterlimit:10;}
	.st79{fill:#C5D0DC;stroke:#282828;stroke-width:0.436;stroke-miterlimit:10;}
	.st80{fill:none;stroke:#232323;stroke-width:0.3051;stroke-linecap:round;stroke-miterlimit:10;}
	.st81{fill:none;stroke:#263238;stroke-width:0.3068;stroke-miterlimit:10;}
	.st82{fill:#6A78D1;}
	.st83{fill:#E7AA97;}
	.st84{fill:#D79584;}
	.st85{fill:url(#SVGID_6_);}
	.st86{fill:url(#SVGID_7_);}
	.st87{fill:url(#SVGID_8_);}
	.st88{fill:url(#SVGID_9_);}
	.st89{fill:url(#SVGID_10_);}
	.st90{fill:#F5C26B;}
	.st91{fill:#00A9FA;}
	.st92{fill:#E0F5FE;}
	.st93{fill:#F2545B;}
	.st94{fill:#FCE3E5;}
	.st95{fill:#00A4BD;}
	.st96{fill:#DF9582;}
	.st97{fill:#7C92B0;stroke:#FFFFFF;stroke-width:0.25;stroke-miterlimit:10;}
	.st98{fill:#E2A39D;}
	.st99{fill:#D58C89;}
	.st100{fill:#6F4C47;}
	.st101{fill:#E29781;}
	.st102{fill:#E4886E;}
	.st103{fill:#E0E0E0;}
	.st104{fill:none;stroke:#FFFFFF;stroke-width:0.5;stroke-miterlimit:10;}
	.st105{fill:#FFBE9D;}
	.st106{fill:#EB996E;}
	.st107{fill-rule:evenodd;clip-rule:evenodd;fill:#FFFFFF;}
	.st108{fill:#E89A77;}
	.st109{fill:#724940;}
	.st110{fill-rule:evenodd;clip-rule:evenodd;fill:#F5C26B;}
	.st111{fill-rule:evenodd;clip-rule:evenodd;fill:#263238;}
	.st112{fill:#F2A888;}
	.st113{fill:#AA6550;}
	.st114{fill:#E89D89;}
	.st115{fill:#DB9082;}
	.st116{fill-rule:evenodd;clip-rule:evenodd;fill:#EAF0F6;}
	.st117{fill-rule:evenodd;clip-rule:evenodd;fill:#ff4500;}
	.st118{fill-rule:evenodd;clip-rule:evenodd;fill:#FF725E;}
	.st119{fill:#B78876;}
	.st120{fill:#253342;enable-background:new    ;}
	.st121{fill:none;stroke:#CBD6E2;stroke-miterlimit:10;}
	.st122{fill:#FFFFFF;enable-background:new    ;}
	.st123{fill:none;stroke:#000000;stroke-width:0.12;stroke-miterlimit:10;}
	.st124{fill:none;stroke:#00BDA5;stroke-miterlimit:10;}
	.st125{fill:#EFAE92;}
	.st126{fill:#FFC8A9;}
	.st127{clip-path:url(#SVGID_14_);}
	.st128{opacity:0.4;}
	.st129{clip-path:url(#SVGID_16_);}
	.st130{opacity:0.8;}
	.st131{opacity:0.7;}
	.st132{opacity:0.5;}
	.st133{opacity:0.1;}
	.st134{fill:#F9A88F;}
	.st135{fill:#ED9B85;}
	.st136{fill:#664D42;}
	.st137{fill:#FFBF9D;}
	.st138{fill:#FF9A6C;}
	.st139{fill:#F9C99D;}
	.st140{fill:none;stroke:#EAF0F6;stroke-width:0.5705;stroke-linecap:round;stroke-miterlimit:10;}
	.st141{fill:none;stroke:#EAF0F6;stroke-width:1.1014;stroke-linecap:round;stroke-miterlimit:10;}
	.st142{fill:none;stroke:#EAF0F6;stroke-width:0.9156;stroke-linecap:round;stroke-miterlimit:10;}
	.st143{fill:#CBD6E2;stroke:#282828;stroke-width:0.3981;stroke-miterlimit:10;}
	.st144{fill:none;stroke:#232323;stroke-width:0.2786;stroke-linecap:round;stroke-miterlimit:10;}
	.st145{fill:#020202;}
	.st146{fill:#FFFFFF;stroke:#020202;stroke-width:0.25;stroke-miterlimit:10;}
	.st147{fill:#FFFFFF;stroke:#020202;stroke-miterlimit:10;}
	.st148{fill:#FFFFFF;stroke:#020202;stroke-width:0.5;stroke-miterlimit:10;}
	.st149{fill:#C69481;}
	.st150{fill:#936457;}
	.st151{fill:#EFA8A0;}
	.st152{fill:#E5958F;}
</style>
<rect x="-0.2" y="0.3" class="st16" width="750" height="420"/>
<g>
	<g id="freepik--background-complete--inject-32">
		<path class="st7" d="M557,291.8l-36.8-14c-2.5-1-3.8-3.8-2.9-6.4l19.4-50.9c1-2.5,3.8-3.8,6.4-2.9l23.4,8.9l11,25.5L563.4,289
			C562.4,291.5,559.6,292.8,557,291.8C557,291.8,557,291.8,557,291.8z"/>
		<path class="st103" d="M566.5,226.6l-5.5,14.3c-0.9,2.4,0.3,5,2.7,5.9c0,0,0,0,0,0l13.8,5.3L566.5,226.6z"/>
		<path class="st3" d="M558.1,239.1c-0.1,0.2-3.9-1.1-8.6-2.9c-4.7-1.8-8.5-3.4-8.4-3.6c0.1-0.2,3.9,1.1,8.6,2.9
			C554.4,237.3,558.2,238.9,558.1,239.1z"/>
		<path class="st3" d="M566,251.4c-0.1,0.2-6.4-2.1-14.1-5c-7.7-2.9-14-5.5-13.9-5.7c0.1-0.2,6.4,2.1,14.1,5
			C559.9,248.7,566.1,251.2,566,251.4z"/>
		<path class="st3" d="M566,259.2c-0.1,0.2-7-2.3-15.4-5.5s-15.2-6-15.1-6.1c0.1-0.2,7,2.3,15.4,5.5S566,259,566,259.2z"/>
		<path class="st3" d="M563.5,265.6c-0.1,0.2-7-2.3-15.4-5.5s-15.2-6-15.2-6.1c0.1-0.2,7,2.3,15.4,5.5
			C556.8,262.6,563.6,265.4,563.5,265.6z"/>
		<path class="st3" d="M561.1,271.9c-0.1,0.2-7-2.3-15.4-5.5c-8.4-3.2-15.2-6-15.1-6.2s7,2.3,15.4,5.5
			C554.4,269,561.2,271.7,561.1,271.9z"/>
		<path class="st3" d="M558.7,278.3c-0.1,0.2-7-2.3-15.4-5.5c-8.4-3.2-15.2-6-15.2-6.2s7,2.3,15.4,5.5
			C552,275.4,558.7,278.1,558.7,278.3z"/>
		<path class="st13" d="M382.8,128.4c-0.1-1.1-0.2-2.2-0.4-3.3c-0.2-1.1-0.3-2.3-0.5-3.5c0.2,1.2,0.4,2.3,0.5,3.5
			C382.6,126.2,382.6,127.3,382.8,128.4z"/>
		<path class="st1" d="M373.8,142.3c-1-2.2-1.2-4.6-1.8-6.9c-0.2-1.3-1-2.4-2.1-3.1c-0.8-0.2-1.6-0.4-2.5-0.6
			c-2.9-0.9-3.7-4.9-6.5-6.2c-0.9-0.3-1.8-0.5-2.8-0.6c-3.7-0.4-7.5-1.7-9.9-4.6c-0.7-1-1.4-2-2.3-2.8c-0.9-0.8-2.4-1.1-3.3-0.3
			c0.8,1.6,1.6,3.1,2.3,4.7c0.6,1.4,1.5,2.8,2.6,3.9c1.2,1.1,2.9,1.5,4.4,0.9c0.4-0.3,0.9-0.5,1.5-0.5c0.4,0.1,0.7,0.3,0.9,0.6
			c2,2.2,1.4,5.9-0.6,8.2c-2,2.3-4.9,3.4-7.7,4.6c-1,0.5-2,0.7-3.1,0.6c-1.9-0.4-3-2.5-3.5-4.4c-1.3-4.2-1.9-8.7-4.5-12.3
			c-0.9-1-1.7-2.2-2.4-3.4c-0.5-1.4-0.4-3-1.3-4.3c-0.8-1.2-2.7-2.1-2.9-3.6c0-1.1,0.7-2.1,1.8-2.5c1-0.5,2.1-0.6,3.2-1
			c0.4-0.2,0.9-0.5,0.9-0.9c0-0.7-0.9-0.9-1.1-1.5c-0.3-0.6,0.5-1.3,0.8-2c0.6-1.5-0.9-3.1-2.5-3.7s-3.4-1.1-4.1-2.6
			c-0.3-0.7-0.4-1.5-0.5-2.2c-0.3-2-1.7-3.5-3.7-4c-1.9-0.3-4,1.4-3.7,3.3c0.2,1,1,1.9,1.4,2.8c0.4,1,0.3,2.4-0.7,2.7
			c-1.6,0.5-3.2-2.5-4.6-1.5c0.6,1.9,1.1,3.8,1.7,5.8c-2.2,1.1-4.7-0.9-5.7-3.1c-0.9-2.2-1-4.8-2.1-7c-1.1-2.2-4-3.8-5.9-2.2
			c-0.1,2.8,3.6,3.9,5.2,6.2c1.2,1.6,1,4.3-0.7,5.3c-1.7,1-4.5-0.8-3.8-2.7c0.2-0.7,0.8-1.2,0.8-1.9c0.1-0.9-0.7-1.6-1.3-2.1
			l-3.1-2.6c-0.6-0.6-1.4-1.1-2.2-1.4c-2.2-0.6-4.3,1.1-5.4,3c-1.1,1.9-1.8,4.2-3.4,5.8c-2.3,2.3-6.6,2.5-8.7,0
			c-2.1-2.5-1-7.1,2.1-7.9c1.2-0.3,2.7-0.3,3.3-1.3c1.1-1.9-2-4.2-0.9-6.1c0.8-1.4,3-0.8,4.6-1.3c1.6-0.5,2.5-2.1,3.4-3.4
			c0.9-1.4,2.4-2.7,4-2.4c-0.2-0.9-0.2-1.9,0.2-2.8c0.4-0.9,1.5-1.3,2.4-0.9c0,0,0,0,0,0c-0.8,1.3,0.2,3.1,1.6,3.8
			c1.5,0.5,3,0.6,4.5,0.3c1.5-0.2,3.4-0.7,3.6-2.3c0-0.5-0.1-1,0-1.5c0.7-1.8,4,0.7,5.4-0.8c0.7-0.8-0.1-2.1-1.1-2.4
			c-1-0.3-2.1,0.1-3.2,0.2c-1.1,0-2.4-0.5-2.4-1.6c0-1.1,1.1-1.8,1.2-2.8c0.2-1.8-2.8-2.2-3.8-0.8c-1,1.4-0.7,3.4-0.4,5.1
			c0.3,1.7,0.5,3.8-0.8,5c-0.5,0.8-2,0.4-2.4-0.5c-0.4-0.9-0.5-1.9-0.5-2.9c-0.1-1-0.5-2.1-1.5-2.4c-0.7-0.1-1.4,0-2.1,0.2
			c-2.7,0.3-4.6-3.2-3.8-5.8c0.9-2.6,3.3-4.3,5.7-5.6c1.8-1,3.9-1.9,5.7-0.9c0.8,0.5,1.4,1.2,2.2,1.7c1.4,0.8,3.1,0.5,4.7,0.5
			c2.5,0.1,4.9,1,6.8,2.7c0.7,0.6,1.4,1.7,0.8,2.5s-2.3,1-2,1.9c1.8,0.5,3.7-0.5,4.2-2.3c0-0.1,0.1-0.2,0.1-0.3
			c0.9,0.4,1.5,1.3,1.6,2.3c2.1-1.9,5.3-1.8,7.2,0.3c0.1,0.1,0.2,0.2,0.3,0.3c0.3,0.7,0.8,1.3,1.4,1.8c0.6,0.4,1.7,0.2,1.8-0.5
			c0-0.2,0-0.5-0.1-0.7c-0.4-1.1-0.8-2.1-1.1-3.2c1.5-0.8,3.2,0.4,4.2,1.8c3.7,4.9,6.3,1.9,11.4,2.7c3.5,0.5,5,2.8,7,5.5
			c6,8.3,14,15.1,19.5,23.8c0.6,0.9,1.1,1.8,1.6,2.8c-0.1-0.2-0.2-0.5-0.3-0.7c-2.1-5.6-4.8-11.1-8-16.2c-0.7-1.1-1.4-2.2-2.1-3.2
			c-0.4-0.7-0.9-1.3-1.3-2c-0.6-0.8-1.2-1.7-1.8-2.5c-0.5-0.7-1-1.3-1.5-1.9c-0.3-0.4-0.7-0.9-1.1-1.3c-0.4-0.5-0.8-1-1.2-1.5
			l-1.3-1.5c-0.1-0.2-0.3-0.3-0.4-0.5c-0.5-0.5-0.9-1-1.4-1.6c0-0.1-0.1-0.1-0.1-0.2c-0.1-0.1-0.3-0.3-0.4-0.4
			c-0.4-0.4-0.8-0.9-1.2-1.3c-0.7-0.7-1.4-1.4-2.1-2c-0.6-0.6-1.2-1.1-1.8-1.7s-1.1-1-1.6-1.4c-0.5-0.5-1.1-0.9-1.6-1.4
			s-1.3-1.1-2-1.7l0,0c-1.9-1.5-3.8-2.9-5.8-4.3c-0.5-0.3-1-0.7-1.5-1c-0.5-0.3-1-0.7-1.5-1c-0.5-0.3-1-0.6-1.5-0.9
			c-0.5-0.3-1-0.6-1.5-0.9s-0.8-0.5-1.3-0.7c-0.2-0.1-0.4-0.3-0.6-0.4c-0.9-0.5-1.8-1-2.7-1.4c-0.4-0.2-0.9-0.5-1.4-0.7
			s-1.2-0.6-1.8-0.8c-0.1-0.1-0.2-0.1-0.3-0.1c-0.5-0.3-1.1-0.5-1.6-0.7c-0.8-0.3-1.5-0.7-2.3-1c-0.8-0.3-1.7-0.7-2.6-1
			c-0.9-0.3-2-0.7-3-1.1s-2-0.7-3-1c-1-0.3-2-0.6-3.1-0.9c-2-0.5-4.1-1-6.2-1.5c-3.1-0.6-0.1,0-0.1,0c-0.8-0.2-1.6-0.3-2.4-0.4
			c-0.1,0-0.1,0-0.2,0c-0.3-0.1-0.7-0.1-1.1-0.2c-1.5-0.3-3-0.5-4.5-0.6l-0.5-0.1c-0.4-0.1-0.9-0.1-1.3-0.1c-1-0.1-2-0.2-3-0.2
			c-1-0.1-2.1-0.1-3.2-0.2c-1.1,0-2.2-0.1-3.3-0.1c-2.9,0-5.8,0.1-8.7,0.4c-0.7,0-1.4,0.1-2,0.2l-2.1,0.3c-0.7,0.1-1.4,0.2-2.1,0.3
			l-2.1,0.3c-0.6,0.1-1.2,0.2-1.8,0.3c-1.5,0.3-2.9,0.6-4.4,0.9c-0.7,0.2-1.3,0.3-2,0.5s-1.3,0.4-2,0.5c-1.1,0.3-2.2,0.7-3.3,1l0,0
			c-0.9,0.3-1.8,0.6-2.6,0.9c0,0-0.1,0-0.1,0c-0.9,0.3-1.8,0.6-2.6,1h-0.1c-0.8,0.3-1.6,0.6-2.4,1c-1,0.4-2,0.8-2.9,1.3
			c-0.8,0.4-1.6,0.8-2.4,1.1c-0.8,0.4-1.7,0.8-2.5,1.3l-0.1,0.1c-0.8,0.4-1.6,0.9-2.4,1.3c-0.8,0.4-1.6,0.9-2.4,1.4l0,0
			c-0.8,0.4-1.5,0.9-2.2,1.4c-0.3,0.2-0.5,0.4-0.8,0.5c-0.8,0.5-1.5,1-2.3,1.6c-0.9,0.6-1.8,1.3-2.8,2c-0.9,0.7-1.6,1.2-2.3,1.8
			c-4.4,3.5-8.5,7.4-12.3,11.6c-1.3,1.5-2.6,3-3.8,4.5c-1,1.3-2,2.6-3,4c-0.9,1.2-1.7,2.4-2.5,3.6c0.8-1.2,1.6-2.5,2.5-3.6l0.8-0.1
			c1.4,0,2.8-0.2,4.2-0.7c1.2-0.6,2-1.6,3.1-2.4c2.7-1.9,7.2-2.3,7.9-5.5c0.3-1.1-0.1-2.3,0.4-3.3c0.8-2,3.4-2.2,5.5-2.2
			c0.9,0,1.9,0.1,2.3,0.9c0.2,0.6,0.2,1.2-0.1,1.8c-1.3,3.7-3.8,6.8-7.2,8.8c-2.7,1.7-6.3,2.9-7,6c0.4,1,2.3,1,2.4,2.1
			c0.1,0.9-1,1.3-1.4,2.1c-0.6,1.1,0.8,2.5,2.1,2.5s2.4-1,3.3-1.9c2.8-2.7,5.8-5.5,6.9-9.2c0.4-1.5,0.6-3.4,1.8-4.4
			c1.4-1,3.3-0.6,4.2,0.7c0.2,0.2,0.3,0.5,0.4,0.8c1.2-0.7,3.2-1.2,3.8,0.1c0.1,0.5,0.2,1,0.3,1.5c0.4,2,3.1,2.9,3.4,4.9
			c0.3,2.3-2.7,3.5-5,3.9l-6.3,1c-0.9,0.1-1.8,0.4-2.6,0.8c-0.8,0.5-1.1,1.6-0.8,2.5c0.3,0.4,0.7,0.8,1.1,1.1
			c1.8,1.8,0.3,5.4-2.2,5.4c-0.8,0-1.7-0.3-2.5-0.3c-2.5-0.1-4.5,2.1-5.7,4.3c-1.2,2.2-2.1,4.7-4.1,6.2c-3.2,2.4-8.8,1.9-10.3,5.6
			c-0.6,1.5-0.3,3.2,0,4.8c0.3,1.6,0.4,3.4-0.6,4.7c-0.9,1.3-3.3,1.6-4,0.1c-0.2-0.7-0.3-1.4-0.1-2.1c0.4-2.3,0.7-4.6,1.1-6.9
			c0.3-1.7,0.5-3.6-0.5-5c-1.4-2-4.6-1.8-6.5-0.2c-1.8,1.6-2.6,4-3.1,6.4c-0.4,2.1-1,4.2-1.8,6.2l0,0c-0.3,1.9-0.6,3.9-0.8,5.9
			c-0.2,2-0.3,4-0.4,6.1c0.3-0.2,0.5-0.5,0.8-0.8c1-1,3-5.3,4.7-3.2c0.4,0.6,0.4,1.4,0,2c-0.5,0.7-1.6,0.9-2.1,1.6
			c-0.5,0.9,0.2,2,1,2.6c0.8,0.6,1.9,1,2.5,1.8c1.1,1.6,0.1,4.1,1.2,5.8c1,1.4,3,1.5,4.7,1.7l0.6,0.1c0.5-3.4,2.1-6.2,6.8-7.3
			c6.5-1.5,15,3.9,18.6,8.8c4.1,5.5,6,13.2,12.2,15.9c4.5,2,10.8,1.2,12.9,5.6c1.9,3.9-1.4,8.3-2,12.6c-0.3,2.9,0.6,5.7,0.8,8.6
			c0.2,2.9-0.6,6.2-3.3,7.4c-1.5,0.7-3.3,0.6-4.5,1.7c-2.1,2-0.4,6-2.4,8c-0.8,0.6-1.7,1.1-2.7,1.4c-4.7,2.4-4.5,9.2-2.4,14
			c0.1,0.2,0.2,0.3,0.2,0.5c29.6,17.7,66.4,18.7,96.9,2.5l0,0c3-1.6,5.9-3.4,8.7-5.3c4.3-2.9,8.4-6.2,12.3-9.7
			c2.6-2.5,5.1-5.1,7.5-7.8c1.7-1.9,3.2-3.9,4.7-5.9c0.8-1,1.5-2.1,2.2-3.2c2.2-3.2,4.1-6.5,5.9-9.9c2.6-4.9,4.7-10.1,6.4-15.4
			c1.7-5.5,3-11.1,3.8-16.7c0.3-2.2,0.5-4.5,0.7-6.7c-1,1.1-2.5,1.7-4,1.8C376.7,146.4,374.7,144.4,373.8,142.3z"/>
		<path class="st1" d="M198.7,164.1c-0.3-2.8,0.6-5.7,0.7-8.5c0-2-0.1-4-0.1-6c-1.7-0.1-3.4-0.3-5-0.7c-0.3-0.1-0.7-0.2-0.9-0.5
			c-0.2-0.3-0.2-0.7-0.2-1c-0.1-2.2-2.3-3.7-4.2-4.8c-1-0.6-2-1.1-3-1.5c0,0.2,0,0.5,0,0.7c0.4,10.7,2.5,21.3,6.3,31.3
			c1.7,4.5,3.7,8.8,6,12.9c1,1.8,2,3.6,3.1,5.3c1.4,2.1,2.8,4.2,4.4,6.3c1.5,2,3,3.8,4.6,5.6c2.2,2.5,4.5,4.9,7,7.2
			c2.2,2,4.4,4,6.8,5.8c-5.4-14.5-10.5-29.2-19.7-41.5C202,171.4,199.2,168.1,198.7,164.1z"/>
		<path class="st13" d="M185.9,136.4c0,0.6,0,1.2,0,1.8s0,1,0,1.4c0-0.5,0-1,0-1.4S185.9,137,185.9,136.4z"/>
		<g class="st43">
			<path class="st13" d="M229.6,220.2c0.8,0.6,1.7,1.1,2.5,1.6l1.8,1.1l-1.8-1.1C231.3,221.3,230.5,220.7,229.6,220.2z"/>
		</g>
		<path class="st7" d="M313.2,214c-0.6,0-1.2-0.1-1.8-0.2c-1.9-0.3-3.5-1.6-4.4-3.3c-0.5-1.4-0.8-2.8-0.8-4.3c0-1-0.1-2-0.3-2.9
			c-0.5-1.7-1.3-3.3-2.3-4.7c-2.3-3.2-3.4-7.2-3.1-11.1v-0.6c-0.5-17.4-5.4-31.4-14-40.7c-1.1-1.4-2.6-2.4-4.2-3
			c-2-0.5-4.2,0.2-5.4,1.9c-0.3,0.4-0.6,0.9-0.8,1.3c-0.4,0.8-0.8,1.4-1.4,2c-1,0.8-2.2,1.2-3.5,0.9c-1.8-0.3-3.4-1.4-4.3-3
			c-1.5-2.7-1.3-6-1-8.7l0.9-10.8c0.1-1.7,0.3-3.9,1.7-5.5c1.1-1.1,2.5-1.9,4-2.3c1.1-0.3,2.1-0.8,3.1-1.5c1.7-1.3,2.5-3.3,3.3-5.5
			c0.4-1.2,0.9-2.4,1.6-3.6c1.3-2.1,3.7-3.3,6.2-3c1,0.1,1.8,0.7,2.3,1.5c0.8-1.7,2.2-3.1,4-3.7c3.6-1,7.9,1.8,12.1,4.5
			c3.8,2.5,7.5,4.8,10.3,4.3c0.7-0.1,1.4-0.3,2.2-0.5c1.5-0.5,3.1-0.7,4.6-0.6c4.1,0.6,6.3,5.1,7.6,9l6.7,18.8
			c0.8,2.3,1.9,4.9,4.2,5.8c0.9,0.3,1.9,0.4,2.8,0.4c1,0,2,0.1,2.9,0.4c1.7,0.6,2.9,2.1,3.1,3.8c0.6,3.1-1,7.2-3.6,9.5l0,0
			c-1.3,1-2.6,2-4,2.9c-3,2.1-5.9,4-7.2,7.3c-0.6,1.8-0.9,3.6-0.8,5.5c0,2-0.3,4-1,5.9c-0.8,1.6-1.7,3-2.9,4.3
			c-0.7,0.8-1.4,1.6-2,2.5c-2.2,3.3-2.8,7.3-3.3,11.2c-0.1,0.5-0.1,1-0.2,1.5c-0.7,4.4-1.8,9.2-5.4,12.2
			C317.4,213.2,315.3,214,313.2,214z"/>
		<g class="st43">
			<path class="st13" d="M186,134.1L186,134.1c0,0.2,0,0.4,0,0.5c0,0.6,0,1.2,0,1.8c0-0.6,0-1.2,0-1.8
				C185.9,134.4,185.9,134.3,186,134.1z"/>
		</g>
		<g class="st43">
			<path class="st13" d="M185.9,139.6c0,0.5,0,1,0,1.4l0,0C185.9,140.6,185.9,140.1,185.9,139.6z"/>
		</g>
		<path class="st7" d="M199.5,145.8l-0.6-0.1c-1.7-0.2-3.8-0.3-4.7-1.7c-1.1-1.7,0-4.2-1.2-5.8c-0.6-0.9-1.6-1.2-2.5-1.8
			c-0.8-0.6-1.6-1.7-1-2.6c0.4-0.8,1.5-0.9,2.1-1.6c0.4-0.6,0.4-1.4,0-2c-1.8-2.1-3.8,2.2-4.7,3.2c-0.3,0.3-0.5,0.5-0.8,0.8l0,0
			c0,0.2,0,0.4,0,0.5c0,0.6,0,1.2,0,1.8c0,0.6,0,1.2,0,1.8s0,1,0,1.4s0,1,0,1.4c1.1,0.4,2.1,0.9,3,1.5c1.9,1.1,4.1,2.6,4.2,4.8
			c0,0.4,0,0.7,0.2,1c0.2,0.3,0.6,0.4,0.9,0.5c1.6,0.4,3.3,0.6,5,0.7"/>
		<path class="st7" d="M199.3,149.6c0,2,0.2,4.1,0.1,6c0,2.9-1,5.7-0.7,8.5c0.4,4,3.2,7.3,5.7,10.5c9.2,12.3,14.3,27.1,19.7,41.5
			l0,0c1,0.8,2,1.6,3,2.3c0.8,0.6,1.6,1.2,2.5,1.7c0.8,0.6,1.7,1.1,2.5,1.6l1.8,1.1c-0.1-0.2-0.2-0.3-0.2-0.5
			c-2.2-4.8-2.3-11.6,2.4-14c1-0.3,1.9-0.8,2.7-1.4c2.1-2,0.4-6,2.4-8c1.2-1.1,3-1,4.5-1.7c2.6-1.2,3.5-4.6,3.3-7.4
			c-0.2-2.9-1.2-5.7-0.8-8.6c0.5-4.3,3.9-8.7,2-12.6c-2.2-4.4-8.5-3.7-12.9-5.6c-6.3-2.7-8.2-10.4-12.3-15.9
			c-3.6-4.9-12.1-10.2-18.6-8.8c-4.7,1.1-6.3,3.9-6.8,7.3"/>
		<path class="st7" d="M192.1,109.4c1.8-1.6,5-1.8,6.5,0.2c1,1.4,0.8,3.3,0.5,5c-0.4,2.3-0.7,4.6-1.1,6.9c-0.2,0.7-0.1,1.4,0.1,2.1
			c0.7,1.5,3.1,1.2,4-0.1c0.9-1.3,0.8-3.1,0.6-4.7c-0.3-1.6-0.6-3.3,0-4.8c1.6-3.7,7.1-3.2,10.3-5.6c2-1.5,2.9-4,4.1-6.2
			c1.2-2.2,3.2-4.4,5.7-4.3c0.8,0,1.7,0.3,2.5,0.3c2.5-0.1,3.9-3.7,2.2-5.4c-0.4-0.3-0.7-0.7-1-1.1c-0.3-0.9,0-1.9,0.8-2.5
			c0.8-0.5,1.7-0.8,2.6-0.8l6.3-1c2.3-0.4,5.3-1.6,5-3.9c-0.3-2-3-2.9-3.4-4.9c0-0.5-0.1-1-0.3-1.5c-0.6-1.3-2.6-0.8-3.8-0.1
			c-0.6-1.6-2.3-2.4-3.9-1.9c-0.3,0.1-0.5,0.2-0.7,0.4c-1.3,1-1.4,2.8-1.8,4.4c-1,3.8-4,6.6-6.9,9.2c-1,0.9-2,1.8-3.3,1.9
			c-1.3,0.1-2.7-1.3-2.1-2.5c0.4-0.8,1.5-1.2,1.4-2.1c-0.2-1.1-2.1-1-2.4-2.1c0.8-3.1,4.3-4.4,7-6c3.3-2,5.9-5.1,7.2-8.8
			c0.3-0.6,0.3-1.2,0.1-1.8c-0.4-0.8-1.5-0.9-2.3-0.9c-2.1,0-4.7,0.3-5.5,2.2c-0.4,1-0.1,2.2-0.4,3.3c-0.7,3.3-5.2,3.6-7.9,5.5
			c-1.1,0.8-1.9,1.8-3.1,2.4c-1.3,0.5-2.7,0.7-4.2,0.7l-0.8,0.1c-0.9,1.2-1.7,2.4-2.5,3.6c-0.8,1.2-1.6,2.5-2.3,3.7
			c-3.5,6-6.4,12.4-8.6,19.1c-0.8,2.3-1.4,4.7-2,7.1s-1.1,4.9-1.5,7.3c0.8-2,1.4-4.1,1.8-6.2C189.5,113.5,190.2,111,192.1,109.4z"/>
		<path class="st7" d="M274.9,63.7c0.9-1.2,0.7-3,1.3-4.4c1-2.3,4.1-3.2,5.2-5.5c0.4-0.9,0.5-2,1.2-2.6c0.7-0.7,1.5-0.7,2.2-1.2
			c1.5-1.1,0.9-3.7-0.7-4.6c-3.9-2.5-11,0.4-14.3,2.8c-4.3,3.1-8.5,6.9-14.2,6.5c-1.6-0.1-3.2-0.5-4.7,0c-1.5,0.5-2.4,2.8-1.1,3.7
			c0.7,0.5,1.7,0.4,2.5,0.8c1.5,0.7,1.6,2.8,0.9,4.3c-0.7,1.5-2,2.6-2.9,4c-0.8,1.3-1.2,2.9-1.1,4.5c0,1.1,0.5,2.2,1.3,2.9
			c1.8,1.4,4.5,0.2,6-1.5c1.5-1.7,2.6-3.9,4.5-5.1c1-0.5,2.1-0.9,3.2-1.1l7.5-1.8C272.8,65.1,274,64.5,274.9,63.7z"/>
		<g class="st43">
			<path class="st13" d="M383.2,136.8c0-1.4-0.1-2.8-0.1-4.2C383.1,134,383.2,135.4,383.2,136.8c0,0.5,0,0.9,0,1.4
				c0,2.2-0.1,4.3-0.2,6.5c0.1-2.2,0.2-4.3,0.2-6.5C383.2,137.7,383.2,137.3,383.2,136.8z"/>
		</g>
		<g class="st43">
			<path class="st13" d="M377,103.7c0.5,1.2,0.9,2.5,1.3,3.8C377.9,106.2,377.5,105,377,103.7L377,103.7L377,103.7z"/>
		</g>
		<path class="st7" d="M383.2,136.8c0-1.4-0.1-2.8-0.1-4.2c-0.1-1.4-0.2-2.8-0.3-4.2c-0.1-1.1-0.2-2.2-0.4-3.3
			c-0.2-1.1-0.3-2.3-0.5-3.5c-0.6-3.5-1.3-6.9-2.3-10.2c-0.4-1.3-0.8-2.6-1.2-3.8c-0.4-1.3-0.9-2.5-1.3-3.8l0,0l0,0
			c-0.5-0.9-1-1.9-1.6-2.8c-5.5-8.7-13.4-15.5-19.5-23.8c-2-2.7-3.5-4.9-7-5.5c-5.2-0.8-7.8,2.1-11.4-2.7c-1-1.3-2.7-2.5-4.2-1.8
			c0.4,1,0.8,2.1,1.1,3.2c0.1,0.2,0.1,0.5,0.1,0.7c-0.1,0.7-1.2,0.9-1.8,0.5c-0.6-0.5-1-1.1-1.4-1.8c-1.7-2.2-4.9-2.6-7.1-0.9
			c-0.1,0.1-0.2,0.2-0.3,0.3c-0.1-1-0.7-1.9-1.6-2.3c-0.3,1.8-2.1,3.1-3.9,2.8c-0.1,0-0.2,0-0.3-0.1c-0.3-0.9,1.4-1.1,2-1.9
			c0.6-0.8-0.1-1.8-0.8-2.5c-1.9-1.7-4.3-2.6-6.8-2.7c-1.6,0-3.3,0.3-4.7-0.5c-0.8-0.5-1.4-1.2-2.2-1.7c-1.7-1-3.9-0.1-5.7,0.9
			c-2.4,1.3-4.9,3-5.7,5.6c-0.9,2.6,1,6.1,3.8,5.8c0.7-0.2,1.4-0.3,2.1-0.2c1,0.3,1.4,1.4,1.5,2.4c-0.1,1,0.1,2,0.5,2.9
			c0.5,0.9,1.9,1.3,2.4,0.5c1.3-1.2,1.1-3.3,0.8-5s-0.7-3.7,0.4-5.1c1-1.4,4-1,3.8,0.8c-0.1,1-1.3,1.8-1.2,2.8c0,1,1.3,1.6,2.4,1.6
			s2.1-0.4,3.2-0.2s1.9,1.6,1.1,2.4c-1.3,1.5-4.7-1-5.4,0.8c-0.2,0.5,0,1,0,1.5c-0.1,1.5-2,2.1-3.6,2.3c-1.5,0.3-3.1,0.2-4.5-0.3
			c-1.4-0.7-2.3-2.5-1.5-3.8c-0.9-0.4-2,0-2.4,0.9c0,0,0,0,0,0c-0.3,0.9-0.4,1.9-0.2,2.8c-1.6-0.4-3.1,1-4,2.4
			c-0.9,1.4-1.8,3-3.4,3.4c-1.6,0.5-3.8-0.2-4.6,1.3c-1.1,1.9,2,4.2,0.9,6.1c-0.6,1-2.1,1-3.3,1.3c-3.1,0.9-4.2,5.5-2.1,7.9
			s6.4,2.3,8.7,0c1.6-1.6,2.2-3.9,3.4-5.8c1.1-1.9,3.3-3.7,5.4-3c0.8,0.3,1.6,0.8,2.2,1.4l3.1,2.6c0.7,0.6,1.4,1.3,1.3,2.1
			c-0.1,0.7-0.6,1.3-0.8,1.9c-0.7,1.9,2.1,3.7,3.8,2.7c1.7-1,1.9-3.7,0.7-5.3c-1.6-2.2-5.3-3.4-5.2-6.2c1.9-1.5,4.8,0.1,5.9,2.2
			c1.1,2.2,1.1,4.7,2.1,7c0.9,2.2,3.5,4.2,5.7,3.1c-0.6-1.9-1.1-3.9-1.7-5.8c1.4-1,3,2,4.6,1.5c1-0.3,1.1-1.8,0.7-2.7
			s-1.2-1.8-1.4-2.8c-0.3-1.9,1.8-3.6,3.7-3.3c1.9,0.5,3.4,2.1,3.7,4c0.1,0.8,0.2,1.5,0.5,2.2c0.7,1.5,2.6,2,4.1,2.6
			s3.1,2.2,2.5,3.7c-0.3,0.7-1,1.3-0.8,2s1.1,0.9,1.1,1.5c0,0.4-0.5,0.7-0.9,0.9c-1,0.4-2.2,0.6-3.2,1c-1,0.4-1.7,1.4-1.8,2.5
			c0.1,1.6,2,2.3,2.9,3.6c0.9,1.3,0.7,2.9,1.3,4.3c0.6,1.2,1.4,2.4,2.4,3.4c2.6,3.5,3.2,8.1,4.5,12.3c0.6,1.9,1.6,4,3.5,4.4
			c1.1,0.1,2.2-0.1,3.1-0.6c2.8-1.1,5.7-2.3,7.7-4.6c2-2.3,2.6-6,0.6-8.2c-0.2-0.3-0.6-0.5-0.9-0.6c-0.5,0-1,0.2-1.5,0.5
			c-1.5,0.6-3.2,0.2-4.4-0.9c-1.1-1.1-2-2.4-2.6-3.9c-0.8-1.5-1.5-3.1-2.3-4.7c0.9-0.8,2.4-0.4,3.3,0.3c0.9,0.9,1.6,1.8,2.3,2.8
			c2.3,2.9,6.2,4.2,9.9,4.6c1,0.1,1.9,0.2,2.8,0.6c2.8,1.3,3.6,5.4,6.5,6.2c0.8,0.1,1.7,0.3,2.5,0.6c1.1,0.7,1.9,1.8,2.1,3.1
			c0.6,2.3,0.9,4.7,1.8,6.9c0.9,2.2,2.9,4.2,5.3,4.2c1.5,0,2.9-0.7,4-1.8l0,0c0.1-2.2,0.2-4.3,0.2-6.5
			C383.2,137.7,383.2,137.3,383.2,136.8z"/>
		<path class="st7" d="M343.2,177.8c-1.5,0.3-1.8,1.1-2.6,2.2c-1,1.4-2.5,2.8-3.5,4.2c-1.6,2.4-0.2,6.1-2.3,8.1
			c-0.4,0.4-1,0.7-1.4,1.1c-0.8,1.1-0.6,2.6,0.5,3.4c1.1,0.7,2.5,0.8,3.7,0.1c1.1-0.7,1.9-1.8,2.3-3.1c0.1-0.9,0.5-1.8,1.1-2.5
			c1.2-1.1,3.1-0.3,4.7-0.5C352.6,189.9,349.7,176.5,343.2,177.8z"/>
		<path class="st7" d="M341.3,379.3l-35.2,11c-2.4,0.8-5-0.6-5.8-3L285,338.5c-0.8-2.4,0.6-5,3-5.8l22.3-7l22.9,12.5l11.1,35.4
			C345.1,375.9,343.7,378.5,341.3,379.3z"/>
		<path class="st1" d="M296.1,374.2l44.1-13.8l0,0l4,12.8c0.8,2.6-0.6,5.3-3.2,6.1l-34.8,10.9c-2.5,0.8-5.2-0.6-6-3.1L296.1,374.2
			L296.1,374.2z"/>
		<path class="st3" d="M315,373.8l2.2,7.1l-1.6,0.5l-0.9-2.9l-3.1,1l0.9,2.9l-1.6,0.5l-2.2-7.1l1.6-0.5l0.9,2.8l3.1-1l-0.9-2.8
			L315,373.8z"/>
		<path class="st3" d="M322,379.1c-0.3,0.4-0.7,0.6-1.1,0.7c-0.9,0.4-2,0-2.4-0.9c-0.1-0.1-0.1-0.3-0.1-0.4l-0.7-2.2l-0.8,0.3
			l-0.4-1.2l0.8-0.3l-0.4-1.3l1.5-0.5l0.4,1.3l1.3-0.4l0.4,1.2l-1.3,0.4l0.7,2.2c0,0.4,0.4,0.6,0.7,0.6c0.1,0,0.1,0,0.2,0
			c0.2-0.1,0.4-0.2,0.5-0.4L322,379.1z"/>
		<path class="st3" d="M330.9,373.2l1,3.1l-1.5,0.5l-0.9-2.9c-0.3-0.9-0.8-1.2-1.4-1c-0.6,0.2-1,0.8-0.7,1.8l0.9,2.8l-1.5,0.5
			l-0.9-2.9c-0.3-0.9-0.8-1.2-1.4-1c-0.6,0.2-1,0.8-0.7,1.8l0.9,2.7l-1.5,0.5l-1.7-5.5l1.5-0.4l0.2,0.6c0.3-0.6,0.8-1.1,1.4-1.2
			c0.7-0.2,1.5-0.1,2,0.4c0.3-0.7,0.9-1.3,1.6-1.5C329.2,371,330.3,371.5,330.9,373.2z"/>
		<path class="st3" d="M330.8,368.3l1.5-0.5l2.4,7.5l-1.5,0.5L330.8,368.3z"/>
		<path class="st3" d="M307.9,349.6l-5.1,4.3l6.6,0.6l0.8,2.5l-9.5-1.1l-0.8-2.6l7.2-6.3L307.9,349.6z"/>
		<path class="st3" d="M311.8,340.1l2.4-0.8l0.2,21l-2.4,0.8L311.8,340.1z"/>
		<path class="st3" d="M325.7,345.3l0.8,2.7l-7.2,6.3l-0.8-2.5l5.1-4.3l-6.6-0.7l-0.8-2.5L325.7,345.3z"/>
		<g class="st9">
			<path class="st3" d="M310.4,325.7l4.3,13.7c0.7,2.3,3.1,3.5,5.4,2.8l13.2-4.1L310.4,325.7z"/>
		</g>
		<path class="st103" d="M315.2,340.6c0.7,2.1,2.8,3.5,5,3.3c0.2,0,0.3,0,0.5,0c1.8-0.2,13.8-1.8,13.7-2l-1.2-3.7l-13.2,4.1
			C320.1,342.3,316.7,343.2,315.2,340.6z"/>
	</g>
	<g id="freepik--Floor--inject-32">
		<path class="st6" d="M560.1,409.8c0,0.1-82.6,0.2-184.5,0.2s-184.5-0.1-184.5-0.2s82.6-0.2,184.6-0.2S560.1,409.6,560.1,409.8z"/>
	</g>
	<g id="freepik--Window--inject-32">
		<rect x="237.5" y="98.6" class="st3" width="267.6" height="201.1"/>
		<path class="st6" d="M505.1,299.7c0,0,0-0.3,0-0.9c0-0.6,0-1.5,0-2.8c0-2.4,0-6,0-10.7c0-9.4-0.1-23.1-0.1-40.6
			c0-35-0.1-85.3-0.2-146l0.4,0.4l-267.6,0.1l0,0l0.5-0.5c0,72.3,0,140.8,0,201.1l-0.4-0.4l193.1,0.2l54.9,0.1l14.6,0.1h3.8h1l0,0
			H504h-3.7l-14.5,0.1l-54.8,0.1l-193.4,0.2h-0.5v-0.4c0-60.3,0-128.8,0-201.1v-0.5h0.5l267.6,0.1h0.4v0.4
			c-0.1,60.9-0.1,111.2-0.2,146.3c0,17.5-0.1,31.2-0.1,40.6c0,4.6,0,8.2,0,10.6c0,1.2,0,2.1,0,2.7S505.1,299.7,505.1,299.7z"/>
		<path class="st6" d="M503.8,123.2c-0.2,0-0.4,0-0.7,0h-2l-7.6,0.1c-6.6,0.1-16.2,0.1-28.1,0.1c-23.7,0-56.4-0.2-92.6-0.5
			l-92.6-0.7l-28.1-0.2l-7.6-0.1l-2-0.1c-0.2,0-0.4,0-0.7,0c0.2,0,0.4-0.1,0.7,0h2l7.6-0.1c6.6-0.1,16.2-0.1,28.1-0.1
			c23.7,0,56.4,0.2,92.6,0.5l92.6,0.7l28.1,0.2l7.6,0.1h2C503.3,123.2,503.6,123.2,503.8,123.2z"/>
		<path class="st6" d="M255,108.8c0,1.7-1.4,3.2-3.1,3.2c-1.7,0-3.2-1.4-3.2-3.1c0-1.7,1.4-3.2,3.1-3.2c0,0,0,0,0,0
			C253.6,105.6,255,107,255,108.8z"/>
		<path class="st6" d="M267.6,108.8c0,1.7-1.4,3.2-3.1,3.2c-1.7,0-3.2-1.4-3.2-3.1c0-1.7,1.4-3.2,3.1-3.2c0,0,0,0,0,0
			C266.2,105.6,267.6,107,267.6,108.8z"/>
		<circle class="st6" cx="277.1" cy="108.8" r="3.2"/>
		<rect x="272.2" y="240" class="st7" width="55" height="41.2"/>
		<rect x="344.6" y="240" class="st7" width="55" height="41.2"/>
		<rect x="415" y="240" class="st7" width="55" height="41.2"/>
	</g>
	<g id="freepik--Rocket--inject-32">
		<path class="st1" d="M564.5,141.9c-1.7-31-34.1-46.7-50.7-48.7l-13.3,15.6c10.7-1.6,37.3,13.2,38.6,24
			c1.3,10.7-6.9,24.5-17.7,25.4c-8.5,0.8-22.6-6.7-27.9-0.2c-13.6-12.1-36.7-11.1-49.2,2.1c-17.6-6.3-37,2.9-43.3,20.5
			c-0.9,2.5-1.5,5.1-1.8,7.7l49.9,29c0,0,20.8,18.7,35,7.2c4.8-3.9,6.7-9.6,7.2-15c0.9,0.1,1.9,0.1,2.8-0.2c3.6-1,6.3-4.2,7.5-7.7
			c0.2-0.5,0.3-0.9,0.4-1.4c12.1,2.7,28.7-0.4,38.4-6.5C554.6,184.9,565.4,158.5,564.5,141.9z"/>
		<path class="st6" d="M497,164.1c0,0-0.1-0.1-0.2-0.2l-0.5-0.7c-0.2-0.3-0.5-0.7-0.8-1.2c-0.3-0.4-0.7-1-1.2-1.5
			c-2.7-3.2-6-5.9-9.7-7.8c-2.5-1.3-5.3-2.3-8.1-2.9c-3.2-0.7-6.6-0.9-9.9-0.4c-7.6,0.9-14.6,4.6-19.7,10.2c-0.7,0.8-1.4,1.7-2,2.5
			l-0.1,0.2l-0.2-0.1c-8-3.9-17.3-4.2-25.6-0.9c-1.4,0.6-2.7,1.3-4.1,2c-2.4,1.3-4.6,3-6.5,4.8c-2.9,2.7-5.1,6-6.5,9.7
			c-0.3,0.6-0.4,1.2-0.6,1.7c-0.1,0.4-0.3,0.9-0.4,1.3l-0.2,0.8c0,0.1,0,0.2-0.1,0.3c0,0,0-0.1,0-0.3l0.2-0.8
			c0.1-0.4,0.2-0.9,0.3-1.3c0.1-0.5,0.3-1.1,0.6-1.8c1.4-3.7,3.6-7.1,6.5-9.9c2-1.9,4.2-3.6,6.6-4.9c1.3-0.8,2.7-1.5,4.1-2.1
			c1.5-0.6,3.1-1.1,4.7-1.5c7.2-1.7,14.7-0.9,21.3,2.3l-0.3,0.1c5.2-7.2,13.2-11.8,22.1-12.9c3.3-0.4,6.7-0.2,10,0.5
			c2.9,0.6,5.6,1.6,8.2,3c3.7,2,7,4.7,9.7,8c0.4,0.5,0.8,1,1.2,1.6c0.3,0.4,0.6,0.8,0.8,1.2c0.2,0.3,0.3,0.6,0.5,0.8
			C497,163.8,497,164,497,164.1z"/>
		<path class="st6" d="M506.7,157.6c-0.1,0.1-0.7-0.4-1.9-0.8c-0.7-0.3-1.4-0.4-2.1-0.5c-0.9-0.1-1.8-0.1-2.7,0
			c-0.9,0.1-1.8,0.4-2.6,0.7c-0.7,0.3-1.3,0.6-1.9,1.1c-1,0.7-1.5,1.4-1.6,1.3s0.1-0.2,0.3-0.5c0.3-0.4,0.7-0.8,1.1-1.1
			c0.6-0.5,1.2-0.9,1.9-1.2c1.7-0.8,3.6-1,5.5-0.8c0.8,0.1,1.5,0.3,2.2,0.6c0.5,0.2,0.9,0.5,1.3,0.8
			C506.6,157.4,506.7,157.6,506.7,157.6z"/>
		<path class="st6" d="M520.8,176.5c0,0-0.5-0.3-1.5-0.6c-1.4-0.5-2.8-0.7-4.3-0.6c-2.2,0.1-4.3,0.9-5.9,2.3
			c-2.1,1.7-3.4,4.2-3.8,6.9l0,0.4l-0.3-0.2c-1-0.7-2.1-1.2-3.3-1.6c-3-1.1-6.2-1.3-9.3-0.6c-2.5,0.6-4.8,1.8-6.8,3.4
			c-1.3,1.1-2.5,2.4-3.4,3.9c-0.7,1-0.9,1.7-1,1.6c0-0.2,0.1-0.3,0.2-0.5c0.2-0.4,0.4-0.9,0.7-1.3c2.3-3.8,6-6.6,10.3-7.6
			c4.4-1,9.1-0.2,12.9,2.2l-0.4,0.2c0.3-2.8,1.8-5.4,4-7.2c1.8-1.4,3.9-2.2,6.2-2.3c1.5-0.1,3,0.2,4.3,0.8c0.4,0.1,0.7,0.3,1.1,0.5
			C520.5,176.3,520.7,176.4,520.8,176.5z"/>
		<path class="st6" d="M559.5,123.7c0.1,0.2,0.3,0.4,0.4,0.6c0.2,0.4,0.6,1,0.9,1.9c1.1,2.3,1.9,4.7,2.5,7.2
			c0.9,3.7,1.3,7.4,1.4,11.2c0,2.2-0.1,4.5-0.3,6.7c-0.2,2.4-0.6,4.8-1.1,7.1c-1.8,8.2-4.9,16.1-9.4,23.3c-1.3,2.2-2.9,4.2-4.6,6.1
			c-0.6,0.7-1.1,1.2-1.5,1.5c-0.2,0.2-0.4,0.3-0.6,0.5c0.2-0.2,0.3-0.4,0.5-0.5c0.3-0.3,0.8-0.9,1.4-1.5c1.6-1.9,3.1-4,4.4-6.2
			c4.3-7.2,7.4-15,9.2-23.2c0.5-2.3,0.9-4.7,1.1-7c0.3-2.2,0.4-4.4,0.4-6.6c0-3.8-0.4-7.5-1.2-11.2c-0.6-2.5-1.4-4.8-2.4-7.2
			c-0.3-0.8-0.7-1.4-0.9-1.9C559.6,124.2,559.6,124,559.5,123.7z"/>
		<path class="st6" d="M534.7,124.9c0.3,0.3,0.6,0.6,0.8,0.9c0.7,0.8,1.3,1.7,1.9,2.7c3.7,6.4,3.4,14.4-0.7,20.6
			c-0.6,0.9-1.3,1.8-2,2.6c-0.3,0.3-0.6,0.6-0.9,0.8c0.9-1.1,1.8-2.3,2.6-3.5c3.8-6.1,4.1-13.8,0.7-20.2
			C536.4,127.4,535.6,126.1,534.7,124.9z"/>
		<path class="st90" d="M501.9,100.9c2.3,3.5,5.3,6.5,8.7,8.9c1.3,0.9,3.1,0.5,3.9-0.8c0.5-0.7,0.6-1.7,0.3-2.5v-0.1
			c4.1,3.1,8.3,6,12.8,8.5c1.7,1,3.8,0.4,4.8-1.2c0.5-0.9,0.6-2,0.3-3c-4.5-12.2-13.2-22.3-24.5-28.6L501.9,100.9z"/>
		<path class="st90" d="M541.5,122.6c0.1,1.7,1.5,3.1,3.2,3s3.1-1.5,3-3.2c-0.1-1.7-1.5-3.1-3.2-3c-1.6,0.1-3,1.4-3,3"/>
		<path class="st7" d="M376.8,14.5c-2.5,3.9,3,17.7,15.7,35.3c7.5,10.4,16.5,19.5,26.9,27l73.1,46.9l12.3-19.2l7.2-11.2l12.3-19.2
			l-66.3-42.5c-6.5-4.2-13.4-7.7-20.5-10.6c-7.2-2.9-14.5-5.2-22.1-6.9C394.3,9.4,379.3,10.6,376.8,14.5"/>
		<path class="st90" d="M478.4,44.7l0.3-0.1c15.7-5.3,33-3.1,46.9,5.8l8.8,5.6l-23.2,9.6L478.4,44.7z"/>
		<path class="st6" d="M478.4,44.7l0.2,0.1l0.5,0.3l1.8,1.2l6.8,4.3l23.6,15h-0.1l21.2-8.7l2.1-0.9v0.3l-5.2-3.3
			c-1.7-1.1-3.4-2.2-5-3.2c-3.2-1.9-6.6-3.5-10.1-4.7c-3.2-1.1-6.5-1.9-9.8-2.4c-1.6-0.3-3.1-0.4-4.5-0.5c-1.5-0.2-2.9-0.2-4.2-0.1
			c-4.2,0-8.4,0.6-12.5,1.6c-1.5,0.3-2.6,0.7-3.3,0.9L478.4,44.7l0.3-0.1l0.8-0.3c0.8-0.2,1.8-0.6,3.3-1c4.1-1.1,8.3-1.6,12.6-1.7
			c1.3-0.1,2.8,0,4.2,0.1c1.5,0.1,3,0.2,4.6,0.5c3.4,0.5,6.7,1.3,9.9,2.4c3.5,1.2,6.9,2.8,10.2,4.8c1.7,1,3.3,2.1,5,3.2l5.2,3.3
			l0.3,0.2l-0.3,0.1l-2.1,0.9l-21.2,8.8h-0.1h-0.1l-23.6-15.2l-6.7-4.4l-1.8-1.2c-0.2-0.1-0.3-0.2-0.4-0.3L478.4,44.7z"/>
		<path class="st90" d="M446.6,94.4c0,0,0,0.1,0,0.3c1.7,16.3,10.8,30.9,24.5,39.7l8.6,5.5l-0.9-24.8L446.6,94.4z"/>
		<path class="st6" d="M446.6,94.4l0.1,0.1l0.4,0.3l1.8,1.1l6.7,4.2l23.3,14.9l0.1,0v0.1c0.3,7,0.5,14.6,0.8,22.6
			c0,0.8,0.1,1.5,0.1,2.2v0.3l-0.3-0.2l-5.1-3.3c-1.7-1.1-3.3-2.1-4.9-3.2c-3.1-2.1-5.9-4.5-8.4-7.2c-2.3-2.4-4.4-5-6.2-7.8
			c-0.9-1.3-1.6-2.6-2.3-3.9c-0.7-1.3-1.3-2.5-1.8-3.8c-1.7-3.8-3-7.8-3.7-11.9c-0.3-1.5-0.4-2.6-0.5-3.4c0-0.4-0.1-0.7-0.1-0.9
			C446.6,94.4,446.6,94.4,446.6,94.4c0,0.2,0.1,0.5,0.2,1.2s0.2,1.9,0.5,3.4c0.8,4.1,2.1,8.1,3.8,11.9c0.5,1.2,1.2,2.4,1.8,3.7
			c0.6,1.3,1.5,2.6,2.3,3.9c1.8,2.8,3.9,5.4,6.2,7.8c2.6,2.6,5.4,5,8.4,7.1c1.6,1.1,3.2,2.1,4.9,3.2l5.1,3.3l-0.2,0.1
			c0-0.7,0-1.4-0.1-2.2c-0.3-8-0.6-15.6-0.8-22.6l0.1,0.1l-23.2-14.9l-6.7-4.3l-1.8-1.2l-0.5-0.3L446.6,94.4z"/>
		<path class="st90" d="M376.8,14.5c-2.1,3,0.9,12,8.2,24L404.6,12C390.5,10.3,379.4,10.7,376.8,14.5z"/>
		<line class="st53" x1="480.8" y1="116.3" x2="512" y2="67"/>
		<path class="st6" d="M512,67c0.1,0.1-6.9,11.1-15.5,24.8c-8.6,13.6-15.7,24.6-15.8,24.6c-0.1-0.1,6.8-11.1,15.5-24.7
			S511.9,66.9,512,67z"/>
		<line class="st53" x1="482.8" y1="117.9" x2="514.1" y2="68.6"/>
		<path class="st6" d="M514.1,68.6c0.1,0-6.9,11.1-15.5,24.7c-8.6,13.6-15.7,24.6-15.8,24.6c-0.1-0.1,6.9-11.1,15.5-24.7
			C507,79.6,514,68.5,514.1,68.6z"/>
		<line class="st53" x1="485.2" y1="119.4" x2="516.5" y2="70.1"/>
		<path class="st6" d="M516.5,70.1c0.1,0.1-6.9,11.1-15.5,24.8s-15.7,24.6-15.8,24.6c-0.1-0.1,6.9-11.1,15.5-24.7
			C509.3,81,516.4,70,516.5,70.1z"/>
		<line class="st53" x1="487.6" y1="120.9" x2="518.8" y2="71.5"/>
		<path class="st6" d="M518.8,71.5c0.1,0.1-6.9,11.1-15.5,24.8c-8.6,13.6-15.7,24.6-15.7,24.6s6.9-11.1,15.5-24.7
			C511.7,82.5,518.7,71.5,518.8,71.5z"/>
		<line class="st53" x1="489.9" y1="122.3" x2="521.2" y2="73"/>
		<path class="st6" d="M521.2,72.9c0.1,0-6.9,11.1-15.5,24.8c-8.6,13.6-15.7,24.6-15.8,24.6c-0.1,0,6.9-11.1,15.5-24.7
			S521.1,72.9,521.2,72.9z"/>
		<path class="st6" d="M462.6,69.5c0,0,0.1,0,0.4,0.2s0.6,0.3,1,0.6c0.9,0.5,2.1,1.3,3.7,2.3c3.1,1.9,7.3,4.7,12,7.7
			s8.9,5.8,11.9,7.9l3.6,2.4l1,0.7c0.1,0.1,0.2,0.2,0.3,0.3c-0.1-0.1-0.2-0.1-0.4-0.2l-1-0.6l-3.6-2.3l-11.9-7.8l-11.9-7.8l-3.6-2.3
			c-0.4-0.3-0.8-0.5-1-0.6L462.6,69.5z"/>
		<path class="st6" d="M478.4,44.7c0.1,0.1-6.9,11.1-15.6,24.7S447,94,446.9,94s6.9-11.1,15.6-24.7S478.4,44.7,478.4,44.7z"/>
		<path class="st6" d="M489.3,80.9c0-0.1,0-0.3,0-0.4c0.1-0.4,0.3-0.8,0.6-1.1c0.5-0.4,1.1-0.6,1.7-0.4c1,0.2,1.7,1.3,1.4,2.3
			c-0.1,0.6-0.5,1.1-1.1,1.3c-0.6,0.3-1.3,0.2-1.8-0.1c-0.3-0.2-0.6-0.5-0.8-0.9c-0.1-0.3-0.1-0.4-0.1-0.4s0,0.2,0.2,0.4
			c0.2,0.3,0.4,0.6,0.8,0.8c0.5,0.3,1.1,0.3,1.6,0c0.8-0.4,1.1-1.4,0.7-2.2c-0.2-0.4-0.6-0.7-1-0.9c-0.5-0.2-1.1,0-1.5,0.3
			c-0.3,0.2-0.5,0.5-0.6,0.9C489.3,80.8,489.3,80.9,489.3,80.9z"/>
		<path class="st6" d="M475.3,71.6c0,0-0.1-0.2,0-0.4c0.1-0.4,0.3-0.8,0.6-1.1c0.5-0.4,1.1-0.6,1.7-0.4c1,0.2,1.7,1.3,1.4,2.3
			c-0.1,0.6-0.5,1.1-1.1,1.3c-0.6,0.3-1.3,0.2-1.8-0.1c-0.3-0.2-0.6-0.5-0.8-0.9c-0.1-0.1-0.1-0.3-0.1-0.4c0,0,0.1,0.2,0.2,0.4
			c0.2,0.3,0.4,0.6,0.8,0.8c0.5,0.3,1.1,0.3,1.5,0c0.8-0.4,1.1-1.4,0.8-2.2c-0.2-0.4-0.6-0.7-1-0.9c-0.5-0.2-1.1,0-1.5,0.3
			c-0.3,0.2-0.5,0.5-0.6,0.9C475.3,71.5,475.3,71.6,475.3,71.6z"/>
		<path class="st6" d="M448.4,65.1c0-0.1,0-0.3,0-0.4c0.1-0.4,0.3-0.8,0.6-1.1c0.5-0.5,1.2-0.6,1.8-0.4c1,0.2,1.6,1.3,1.4,2.3
			c-0.1,0.6-0.5,1.1-1.1,1.3c-0.6,0.3-1.3,0.2-1.8-0.1c-0.3-0.2-0.6-0.5-0.8-0.9c-0.1-0.3-0.1-0.4-0.1-0.4c0.1,0.1,0.1,0.3,0.2,0.4
			c0.2,0.3,0.4,0.6,0.8,0.8c0.5,0.3,1.1,0.3,1.6,0c0.6-0.3,0.9-1,0.9-1.6c-0.1-0.7-0.6-1.2-1.2-1.4c-0.5-0.2-1.1,0-1.5,0.3
			c-0.3,0.2-0.5,0.5-0.6,0.9C448.5,65,448.5,65.1,448.4,65.1z"/>
		<path class="st6" d="M436.5,62.2c0.1-0.1,5.2,2.8,11.5,6.3s11.3,6.5,11.3,6.6s-5.2-2.8-11.5-6.3C441.5,65.2,436.4,62.3,436.5,62.2
			z"/>
		<circle class="st3" cx="427.1" cy="47.4" r="17.7"/>
		<path class="st6" d="M444.8,48.4c0-0.1,0-0.2,0-0.3c0-0.2,0-0.5,0-0.8c0-0.5,0-0.9-0.1-1.4c0-0.6-0.1-1.2-0.3-1.8
			c-0.3-1.7-0.9-3.3-1.7-4.8c-1.1-2-2.5-3.8-4.2-5.2c-4.5-3.8-10.7-5.1-16.4-3.4c-1.6,0.5-3.1,1.2-4.5,2.1c-0.7,0.5-1.4,1-2.1,1.6
			c-0.6,0.6-1.2,1.2-1.8,1.9c-4.9,5.9-5.3,14.2-1.2,20.6c0.5,0.7,1,1.4,1.5,2.1c0.6,0.6,1.2,1.2,1.9,1.8c1.3,1.1,2.7,2,4.3,2.6
			c2.9,1.2,6,1.7,9.1,1.3c5-0.6,9.5-3.4,12.3-7.5c1-1.4,1.7-2.9,2.2-4.5c0.2-0.6,0.4-1.2,0.5-1.8c0.1-0.4,0.2-0.9,0.2-1.3
			c0-0.3,0.1-0.6,0.1-0.8C444.7,48.6,444.7,48.5,444.8,48.4c0,0.1,0,0.2,0,0.3c0,0.2,0,0.5-0.1,0.8c0,0.5-0.1,0.9-0.2,1.4
			c-0.1,0.6-0.3,1.2-0.4,1.8c-0.5,1.7-1.2,3.2-2.2,4.7c-2.8,4.3-7.4,7.1-12.4,7.8c-3.2,0.4-6.4,0-9.3-1.3c-1.6-0.7-3.1-1.6-4.4-2.7
			c-1.4-1.1-2.6-2.5-3.6-4c-1-1.6-1.8-3.3-2.3-5.1c-0.5-1.9-0.7-3.8-0.6-5.7c0.2-3.8,1.7-7.4,4.1-10.4c0.6-0.7,1.2-1.4,1.9-2
			c0.7-0.6,1.4-1.1,2.1-1.6c1.4-1,3-1.7,4.7-2.2c3.1-0.9,6.3-1,9.4-0.2c5,1.2,9.2,4.6,11.5,9.1c0.8,1.5,1.4,3.2,1.7,4.9
			c0.1,0.6,0.2,1.2,0.2,1.9c0.1,0.5,0.1,0.9,0,1.4c0,0.3,0,0.6,0,0.8C444.9,48.2,444.8,48.3,444.8,48.4z"/>
		<path class="st6" d="M376.8,14.5c0-0.1,0.1-0.1,0.1-0.2c0.1-0.2,0.2-0.3,0.4-0.5c0.6-0.5,1.3-1,2.1-1.3c3-1,6.1-1.6,9.2-1.6
			c5-0.2,9.9,0.1,14.9,0.8c6.6,0.9,13.1,2.2,19.4,4c3.5,1,7.2,2.2,11,3.6c4,1.4,7.9,3.1,11.6,4.9c4.1,2,8,4.2,11.9,6.6l12.2,7.8
			l54.8,35.1l0.2,0.1l-0.1,0.2c-5.1,8-10.5,16.3-15.9,24.8c-5.4,8.5-10.8,16.9-15.9,24.8l-0.1,0.2l-0.2-0.1l-54.8-35.1l-12.1-7.8
			l-5.8-3.7c-1.9-1.3-3.6-2.7-5.4-4c-6.2-5.2-12-10.9-17.1-17.1c-4.2-5.2-8-10.6-11.4-16.2c-2.6-4.2-5-8.6-6.9-13.2
			c-1.3-2.8-2.2-5.9-2.5-9c-0.1-0.8,0-1.6,0.3-2.4c0.1-0.2,0.1-0.4,0.3-0.6C376.7,14.6,376.7,14.6,376.8,14.5
			c-0.1,0.2-0.2,0.5-0.3,0.7c-0.2,0.8-0.3,1.6-0.2,2.4c0.4,3.1,1.2,6.1,2.6,9c2,4.5,4.3,8.9,7,13.1c3.5,5.6,7.3,11,11.5,16.1
			c5.2,6.2,10.9,11.9,17.1,17c1.7,1.4,3.4,2.8,5.3,4l5.8,3.7l12.2,7.8l54.8,35.1l-0.3,0.1l15.9-24.8L524,73.9l0.1,0.3l-54.8-35.2
			l-12.2-7.8c-3.8-2.4-7.8-4.6-11.8-6.6c-3.9-1.9-7.8-3.5-11.6-4.9c-3.8-1.4-7.5-2.6-11-3.6c-6.4-1.8-12.8-3.2-19.4-4
			c-4.9-0.7-9.9-1-14.8-0.9c-3.1,0-6.2,0.5-9.2,1.5c-0.8,0.3-1.5,0.7-2.1,1.2C377.1,14.1,377,14.3,376.8,14.5z"/>
	</g>
	<g id="freepik--search-bar--inject-32">
		<path class="st3" d="M449.1,217.3H293.5c-10.2,0-18.4-8.2-18.4-18.4l0,0c0-10.2,8.2-18.4,18.4-18.4h155.6
			c10.2,0,18.4,8.2,18.4,18.4l0,0C467.5,209.1,459.3,217.3,449.1,217.3z"/>
		<path class="st6" d="M449.1,217.3l1.1-0.1c0.5,0,0.9-0.1,1.3-0.1c0.6-0.1,1.2-0.2,1.8-0.3l1.1-0.3c0.4-0.1,0.8-0.3,1.2-0.4
			l0.6-0.2l0.6-0.3c0.5-0.2,0.9-0.4,1.3-0.7c2.1-1.2,3.9-2.8,5.3-4.7c0.4-0.5,0.8-1.1,1.2-1.7c0.4-0.6,0.7-1.3,1-1.9
			c0.3-0.7,0.6-1.4,0.8-2.1c0.1-0.4,0.2-0.8,0.3-1.1l0.2-0.6l0.1-0.6l0.2-1.2l0.1-1.3v-0.6v-0.6c0-0.4,0-0.9-0.1-1.3
			c-0.2-1.8-0.7-3.6-1.4-5.3c-1.7-3.7-4.5-6.8-8.1-8.8c-2-1-4.1-1.7-6.3-2c-2.3-0.3-4.6-0.1-7-0.2l-150.9,0.1
			c-1.8,0-3.6,0.3-5.4,0.8c-1.7,0.6-3.4,1.3-4.9,2.3c-1.5,1-2.8,2.2-3.9,3.6c-1.1,1.4-2,2.9-2.7,4.6c-0.7,1.6-1.1,3.4-1.3,5.1
			c-0.1,1.7-0.1,3.5,0.3,5.2c0.7,3.4,2.3,6.6,4.7,9.1c2.4,2.5,5.4,4.2,8.7,5c0.8,0.2,1.6,0.4,2.5,0.4c0.8,0,1.7,0.1,2.5,0.1h24.6
			l67.8,0.1l45.7,0.1l12.4,0h3.2L449.1,217.3l-1.1-0.1h-3.2h-12.4l-45.7,0.1l-67.8,0h-24.6c-0.8,0-1.7-0.1-2.6-0.1
			c-0.9-0.1-1.7-0.3-2.5-0.5c-3.4-0.8-6.5-2.6-9-5.1c-1.2-1.3-2.3-2.7-3.1-4.3c-0.8-1.6-1.4-3.3-1.8-5c-0.3-1.8-0.4-3.6-0.3-5.4
			c0.3-3.6,1.7-7.1,4-10c2.3-2.9,5.5-5,9-6.1c1.8-0.5,3.6-0.8,5.5-0.8l150.9,0.1c2.4,0,4.8-0.1,7.1,0.2c2.2,0.3,4.4,1,6.4,2
			c3.7,2,6.5,5.1,8.2,9c0.7,1.7,1.2,3.5,1.4,5.4c0,0.4,0,0.9,0.1,1.3v0.7v0.6c0,0.4,0,0.9-0.1,1.3c0,0.4-0.1,0.8-0.2,1.2l-0.1,0.6
			l-0.2,0.6c-0.1,0.4-0.2,0.8-0.3,1.2c-0.3,0.7-0.5,1.5-0.8,2.2c-0.3,0.7-0.6,1.3-1,1.9c-0.4,0.6-0.8,1.2-1.2,1.7
			c-1.5,1.9-3.3,3.5-5.4,4.7c-0.4,0.3-0.9,0.5-1.3,0.7l-0.6,0.3l-0.6,0.2c-0.4,0.2-0.8,0.3-1.2,0.4l-1.1,0.3
			c-0.6,0.2-1.2,0.3-1.9,0.3c-0.4,0.1-0.9,0.1-1.3,0.1L449.1,217.3z"/>
		
			<ellipse transform="matrix(0.7071 -0.7071 0.7071 0.7071 -10.4901 370.5746)" class="st3" cx="442.1" cy="197.9" rx="8.2" ry="8.2"/>
		<path class="st6" d="M442.1,206.6c-4.8,0-8.6-3.9-8.6-8.6s3.9-8.6,8.6-8.6c4.8,0,8.6,3.9,8.6,8.6c0,0,0,0,0,0
			C450.7,202.7,446.8,206.6,442.1,206.6z M442.1,190.2c-4.3,0-7.7,3.5-7.7,7.7c0,4.3,3.5,7.7,7.7,7.7c4.3,0,7.7-3.5,7.8-7.7
			c0,0,0,0,0,0C449.8,193.7,446.3,190.2,442.1,190.2L442.1,190.2z"/>
		
			<rect x="451.7" y="200.9" transform="matrix(0.5339 -0.8455 0.8455 0.5339 37.4213 477.8422)" class="st6" width="0.9" height="8.2"/>
	</g>
	<g id="freepik--Text--inject-32">
		<path class="st6" d="M301,202l0.7-1.5c0.8,0.6,1.8,0.9,2.8,0.9c1.2,0,1.7-0.4,1.7-0.9c0-1.6-5-0.5-5-3.7c0-1.5,1.2-2.7,3.6-2.7
			c1,0,2.1,0.2,3,0.8l-0.6,1.5c-0.7-0.4-1.5-0.7-2.4-0.7c-1.2,0-1.6,0.4-1.6,1c0,1.6,5,0.5,5,3.6c0,1.4-1.2,2.7-3.6,2.7
			C303.2,203,302,202.6,301,202z"/>
		<path class="st6" d="M315.8,200h-5c0.2,0.8,1,1.4,1.9,1.3c0.6,0,1.2-0.2,1.7-0.6l1,1.1c-0.7,0.7-1.7,1.1-2.7,1.1
			c-2.3,0-3.8-1.4-3.8-3.4c0-1.9,1.5-3.4,3.3-3.4c0.1,0,0.1,0,0.2,0c1.8-0.1,3.3,1.3,3.4,3.1c0,0.1,0,0.2,0,0.3
			C315.8,199.7,315.8,199.9,315.8,200z M310.8,198.9h3.3c-0.1-0.9-1-1.5-1.9-1.4C311.4,197.7,310.9,198.2,310.8,198.9z"/>
		<path class="st6" d="M322.8,199v3.8H321V202c-0.5,0.6-1.2,1-2,0.9c-1.5,0-2.5-0.9-2.5-2s0.8-2,2.8-2h1.5c0-0.8-0.5-1.3-1.5-1.3
			c-0.7,0-1.3,0.2-1.9,0.6l-0.7-1.3c0.8-0.5,1.8-0.8,2.8-0.8C321.6,196.1,322.8,197,322.8,199z M320.8,200.7V200h-1.3
			c-0.9,0-1.2,0.3-1.2,0.8c0,0.4,0.4,0.8,1.1,0.8C320,201.6,320.6,201.3,320.8,200.7L320.8,200.7z"/>
		<path class="st6" d="M328.6,196.1v1.8h-0.4c-0.9-0.1-1.7,0.5-1.8,1.4c0,0.1,0,0.3,0,0.4v3.1h-1.9v-6.6h1.8v0.9
			C326.8,196.4,327.7,196,328.6,196.1z"/>
		<path class="st6" d="M329.2,199.5c0-1.9,1.5-3.4,3.4-3.4c0.1,0,0.2,0,0.3,0c1.2-0.1,2.4,0.6,3,1.7l-1.5,0.8
			c-0.3-0.6-0.9-0.9-1.5-0.9c-1,0-1.8,0.8-1.8,1.8c0,1,0.8,1.8,1.8,1.8c0.6,0,1.2-0.3,1.5-0.9l1.5,0.8c-0.6,1.1-1.7,1.8-3,1.7
			c-1.9,0.1-3.5-1.3-3.7-3.1C329.2,199.7,329.2,199.6,329.2,199.5z"/>
		<path class="st6" d="M343.6,199v3.8h-1.9v-3.5c0-1.1-0.5-1.6-1.3-1.6c-0.9,0-1.6,0.6-1.6,1.8v3.3h-1.9v-9.1h1.9v3.2
			c0.6-0.5,1.3-0.8,2.1-0.8C342.5,196.1,343.6,197,343.6,199z"/>
		<path class="st6" d="M344.9,201.7c0-0.7,0.5-1.2,1.2-1.2c0.7,0,1.2,0.5,1.2,1.2s-0.5,1.2-1.2,1.2
			C345.4,202.9,344.9,202.3,344.9,201.7z"/>
		<path class="st6" d="M348.1,201.7c0-0.7,0.5-1.2,1.2-1.2s1.2,0.5,1.2,1.2s-0.5,1.2-1.2,1.2S348.1,202.3,348.1,201.7z"/>
		<path class="st6" d="M351.3,201.7c0-0.7,0.5-1.2,1.2-1.2c0.7,0,1.2,0.5,1.2,1.2s-0.5,1.2-1.2,1.2
			C351.8,202.9,351.3,202.3,351.3,201.7z"/>
	</g>
	<g id="freepik--Document--inject-32">
		<path class="st90" d="M242.1,72.1l-28.9-15.2c-2-1-2.8-3.5-1.7-5.5c0,0,0,0,0,0l21.1-40c1.1-2,3.5-2.8,5.5-1.7l18.4,9.7l6.5,22.1
			l-15.3,29C246.5,72.4,244.1,73.2,242.1,72.1z"/>
		<g>
			<path class="st7" d="M256.5,19.3l-5.9,11.3c-1,1.9-0.3,4.2,1.6,5.1l10.8,5.7L256.5,19.3z"/>
		</g>
		<path class="st12" d="M248.3,28.8c-0.1,0.1-3.1-1.3-6.8-3.3s-6.6-3.6-6.5-3.8c0.1-0.2,3.1,1.3,6.8,3.3S248.4,28.7,248.3,28.8z"/>
		<path class="st12" d="M253.6,39.8c-0.1,0.1-5.1-2.3-11.1-5.5c-6.1-3.2-10.9-6-10.9-6.1c0.1-0.1,5.1,2.3,11.1,5.5
			C248.8,36.9,253.6,39.6,253.6,39.8z"/>
		<path class="st12" d="M252.7,46.1c-0.1,0.1-5.5-2.6-12.1-6.1c-6.6-3.5-11.9-6.4-11.9-6.6c0.1-0.1,5.5,2.6,12.1,6.1
			C247.5,43,252.8,46,252.7,46.1z"/>
		<path class="st12" d="M250.1,51.1c-0.1,0.1-5.5-2.6-12.1-6.1c-6.6-3.5-11.9-6.5-11.8-6.6c0.1-0.1,5.5,2.6,12.1,6.1
			C244.9,48,250.2,51,250.1,51.1z"/>
		<path class="st12" d="M247.4,56.1c-0.1,0.1-5.5-2.6-12.1-6.1c-6.6-3.5-11.9-6.4-11.9-6.6c0.1-0.1,5.5,2.6,12.1,6.1
			S247.5,56,247.4,56.1z"/>
		<path class="st12" d="M244.8,61.2c-0.1,0.1-5.5-2.6-12.1-6.1s-11.9-6.5-11.9-6.6c0.1-0.1,5.5,2.6,12.1,6.1
			C239.6,58.1,244.9,61,244.8,61.2z"/>
	</g>
	<g id="freepik--Folders--inject-32">
		<path class="st11" d="M384.4,372.8c-2.5-0.4-4.3-2.7-4-5.3l5.8-40.1c0.4-2.1,2.4-3.5,4.5-3.1l3.8,0.5c1.5,0.2,3-0.4,3.9-1.6l1-1.5
			c0.9-1.2,2.4-1.9,3.9-1.6l17.9,2.6c1.4,0.2,2.6,1.1,3.1,2.3l0.7,1.5c0.6,1.2,1.8,2.1,3.1,2.3L451,332c2.1,0.2,3.6,2.1,3.4,4.3
			l-5.9,41c-0.4,2.5-2.7,4.3-5.3,3.9c0,0,0,0,0,0L384.4,372.8z"/>
		<g>
			<path class="st7" d="M384.4,372.8c-2.5-0.4-4.3-2.7-4-5.3l5.8-40.1c0.4-2.1,2.4-3.5,4.5-3.1l3.8,0.5c1.5,0.2,3-0.4,3.9-1.6l1-1.5
				c0.9-1.2,2.4-1.9,3.9-1.6l17.9,2.6c1.4,0.2,2.6,1.1,3.1,2.3l0.7,1.5c0.6,1.2,1.8,2.1,3.1,2.3L451,332c2.1,0.2,3.6,2.1,3.4,4.3
				l-5.9,41c-0.4,2.5-2.7,4.3-5.3,3.9c0,0,0,0,0,0L384.4,372.8z"/>
		</g>
		<path class="st90" d="M425.9,328.4l-14.5-2.1l-0.9-2.6c-0.7-1.7-2.2-3-4.1-3.2l-14.2-2c-2.4-0.4-4.7,1.2-5.2,3.6l-0.2,1.7
			l-6.3,43.5c-0.3,2.8,1.7,5.3,4.5,5.6l57.6,8.4c2.8,0.5,5.4-1.4,5.9-4.1l5.9-41.1c0.3-1.8-1-3.5-2.8-3.8c0,0,0,0,0,0L425.9,328.4z"
			/>
		
			<rect x="412.1" y="333.7" transform="matrix(0.1423 -0.9898 0.9898 0.1423 12.2241 716.1854)" class="st3" width="14.6" height="34.6"/>
		<path class="st6" d="M431.3,351.9c0,0.1-5.3-0.5-11.8-1.5s-11.8-1.8-11.7-1.9s5.3,0.5,11.8,1.5
			C426.1,350.9,431.3,351.8,431.3,351.9z"/>
		<path class="st6" d="M430.9,355c0,0.1-5.3-0.5-11.8-1.5c-6.5-0.9-11.8-1.8-11.7-1.9c0-0.1,5.3,0.5,11.8,1.5
			C425.6,354,430.9,354.8,430.9,355z"/>
		<path class="st0" d="M488.4,354.9c-1.6,0.6-3.4-0.2-3.9-1.8c0,0,0,0,0,0l-9.5-24.8c-0.5-1.3,0.2-2.8,1.6-3.2c0,0,0,0,0,0l2.3-0.9
			c0.9-0.4,1.6-1.2,1.7-2.2l0.1-1.2c0.1-1,0.8-1.8,1.7-2.2l11.1-4.2c0.8-0.3,1.8-0.2,2.5,0.3l0.9,0.7c0.7,0.5,1.7,0.6,2.5,0.3
			l14.1-5.4c1.3-0.5,2.8,0.1,3.3,1.4l9.7,25.4c0.6,1.6-0.2,3.3-1.8,3.9c0,0,0,0,0,0L488.4,354.9z"/>
		<g>
			<path class="st7" d="M488.4,354.9c-1.6,0.6-3.4-0.2-3.9-1.8c0,0,0,0,0,0l-9.5-24.8c-0.5-1.3,0.2-2.8,1.6-3.2c0,0,0,0,0,0l2.3-0.9
				c0.9-0.4,1.6-1.2,1.7-2.2l0.1-1.2c0.1-1,0.8-1.8,1.7-2.2l11.1-4.2c0.8-0.3,1.8-0.2,2.5,0.3l0.9,0.7c0.7,0.5,1.7,0.6,2.5,0.3
				l14.1-5.4c1.3-0.5,2.8,0.1,3.3,1.4l9.7,25.4c0.6,1.6-0.2,3.3-1.8,3.9c0,0,0,0,0,0L488.4,354.9z"/>
		</g>
		<path class="st90" d="M498.1,316.3l-9,3.4l-1.4-1.2c-0.9-0.8-2.2-1-3.4-0.5l-8.8,3.4c-1.5,0.5-2.3,2.2-1.8,3.7l0.4,1l10.3,27
			c0.7,1.7,2.7,2.5,4.4,1.8l35.7-13.7c1.7-0.6,2.7-2.5,2.1-4.2l-9.7-25.5c-0.4-1.1-1.7-1.7-2.8-1.3L498.1,316.3z"/>
		
			<rect x="490.2" y="326.5" transform="matrix(0.9339 -0.3576 0.3576 0.9339 -85.3033 201.2269)" class="st3" width="22.7" height="9.6"/>
		<path class="st6" d="M508.7,328c-2.3,1.1-4.7,2.2-7.2,3c-2.4,1-4.9,1.9-7.4,2.6c2.3-1.1,4.7-2.1,7.2-3
			C503.7,329.6,506.1,328.7,508.7,328z"/>
		<path class="st6" d="M509.4,329.9c-2.3,1.1-4.7,2.1-7.2,3c-2.4,1-4.9,1.9-7.4,2.6c2.3-1.1,4.7-2.2,7.2-3
			C504.4,331.5,506.9,330.6,509.4,329.9z"/>
	</g>
	<g id="freepik--Character--inject-32">
		<path class="st11" d="M256.2,384.4l-0.5,26.1l34.3,0.8c-0.1-3.1-17.7-9.7-17.7-9.7l1.1-16.7L256.2,384.4z"/>
		<g class="st43">
			<path class="st3" d="M261.7,399.9c-0.7,0.2-1.1,0.8-1,1.5c0.2,0.7,0.9,1.1,1.5,1c0.7-0.1,1.2-0.7,1.1-1.4s-0.7-1.2-1.4-1.1
				c-0.1,0-0.2,0-0.3,0.1"/>
		</g>
		<g class="st43">
			<path class="st3" d="M255.6,410.5l0.2-2.6l32.8,1.8c0,0,1.5,0.7,1.3,1.7L255.6,410.5z"/>
		</g>
		<path class="st6" d="M272.8,401.4c0,0.2-0.8,0.2-1.7,0.7c-0.8,0.5-1.3,1.1-1.4,1.1s0.1-1,1.1-1.6S272.8,401.2,272.8,401.4z"/>
		<path class="st6" d="M276.4,402.9c0,0.2-0.7,0.4-1.3,1.1s-0.8,1.4-0.9,1.4c-0.1,0-0.3-0.9,0.5-1.7
			C275.4,402.8,276.4,402.7,276.4,402.9z"/>
		<path class="st6" d="M278.3,407c-0.2,0-0.4-0.8,0.1-1.6c0.4-0.9,1.2-1.2,1.3-1c0.1,0.1-0.4,0.6-0.8,1.3
			C278.6,406.3,278.5,407,278.3,407z"/>
		<path class="st6" d="M272.6,397.6c-0.1,0.1-0.8-0.1-1.8-0.1c-0.9,0-1.7,0.3-1.8,0.2c-0.1-0.1,0.6-0.7,1.8-0.7
			S272.7,397.4,272.6,397.6z"/>
		<path class="st6" d="M271.9,393.7c-0.6,0.1-1.2,0.1-1.7,0c-0.6-0.1-1.2-0.3-1.8-0.6c-0.3-0.2-0.7-0.3-1-0.5
			c-0.2-0.1-0.4-0.2-0.5-0.4c-0.2-0.2-0.2-0.6-0.1-0.8c0.2-0.2,0.5-0.4,0.7-0.3c0.2,0,0.4,0,0.6,0.1c0.4,0.1,0.7,0.2,1.1,0.4
			c0.6,0.3,1.1,0.6,1.5,1c0.8,0.7,1,1.3,1,1.3c-0.1,0-0.4-0.4-1.2-1c-0.5-0.3-1-0.6-1.5-0.9c-0.3-0.1-0.7-0.2-1-0.3
			c-0.4-0.1-0.7-0.1-0.8,0c-0.1,0.1,0,0.1,0,0.2c0.1,0.1,0.2,0.2,0.4,0.3c0.3,0.2,0.6,0.4,0.9,0.5c0.5,0.3,1.1,0.5,1.6,0.6
			C270.8,393.3,271.3,393.5,271.9,393.7z"/>
		<path class="st6" d="M271.7,393.9c-0.3-0.5-0.5-1-0.4-1.6c0-0.6,0.1-1.2,0.3-1.8c0.1-0.3,0.3-0.7,0.5-1c0.2-0.4,0.6-0.7,1.1-0.8
			c0.3,0,0.6,0.2,0.7,0.5c0.1,0.2,0.1,0.4,0.2,0.6c0.1,0.4,0.1,0.7,0,1.1c-0.1,0.6-0.4,1.2-0.8,1.7c-0.7,0.8-1.4,1-1.4,0.9
			c0-0.1,0.5-0.4,1.1-1.2c0.3-0.5,0.5-1,0.6-1.5c0-0.3,0-0.6,0-0.9c0-0.3-0.2-0.6-0.3-0.6c-0.1,0-0.5,0.2-0.6,0.5
			c-0.2,0.3-0.3,0.6-0.4,0.9c-0.2,0.5-0.3,1.1-0.4,1.6C271.6,393.3,271.8,393.9,271.7,393.9z"/>
		<path class="st11" d="M230.2,386.6l-3.3,25.8l-34-4.2c0.6-3,18.9-7,18.9-7l1.4-16.7L230.2,386.6z"/>
		<g class="st43">
			<path class="st3" d="M222.5,401.1c0.6,0.3,1,1,0.8,1.6c-0.3,0.6-1,0.9-1.7,0.7c-0.7-0.3-1-1-0.8-1.7
				C221.2,401.1,221.9,400.8,222.5,401.1"/>
		</g>
		<g class="st43">
			<path class="st3" d="M226.9,412.4l0.2-2.6l-32.7-3.1c0,0-1.6,0.4-1.6,1.5L226.9,412.4z"/>
		</g>
		<path class="st6" d="M211.3,400.9c0,0.2,0.8,0.3,1.6,0.9c0.8,0.6,1.1,1.3,1.3,1.3c0.2,0,0-1-0.9-1.7
			C212.3,400.7,211.3,400.8,211.3,400.9z"/>
		<path class="st6" d="M207.5,401.9c-0.1,0.2,0.6,0.5,1.1,1.2c0.5,0.7,0.6,1.5,0.7,1.5s0.4-0.9-0.2-1.8
			C208.5,401.9,207.6,401.8,207.5,401.9z"/>
		<path class="st6" d="M205,405.7c0.1,0.1,0.5-0.7,0.1-1.6c-0.3-0.9-1.1-1.4-1.1-1.2c-0.1,0.1,0.3,0.6,0.6,1.4
			C204.9,405,204.9,405.6,205,405.7z"/>
		<path class="st6" d="M212,397.2c0.1,0.2,0.8,0,1.8,0.2c0.9,0.2,1.6,0.5,1.7,0.4s-0.5-0.8-1.6-1C212.8,396.6,212,397,212,397.2z"/>
		<path class="st6" d="M213.3,393.5c0.5,0.2,1.1,0.3,1.7,0.2c0.6,0,1.2-0.1,1.8-0.3c0.4-0.1,0.7-0.2,1-0.4c0.2-0.1,0.4-0.2,0.6-0.3
			c0.2-0.2,0.3-0.5,0.2-0.8c-0.1-0.2-0.4-0.4-0.7-0.5c-0.2,0-0.4,0-0.6,0c-0.4,0-0.7,0.1-1.1,0.2c-0.6,0.2-1.2,0.4-1.7,0.8
			c-0.9,0.6-1.2,1.1-1.2,1.2c0.1,0,0.5-0.4,1.4-0.9c0.8-0.4,1.7-0.7,2.6-0.8c0.4,0,0.7,0,0.8,0.2c0.1,0.2,0,0.1-0.1,0.2
			c-0.1,0.1-0.3,0.2-0.4,0.2c-0.3,0.1-0.6,0.3-1,0.4c-0.6,0.2-1.1,0.3-1.7,0.4C214.4,393.3,213.9,393.4,213.3,393.5z"/>
		<path class="st6" d="M213.5,393.7c0.4-0.4,0.6-0.9,0.6-1.5c0.1-0.6,0.1-1.2,0-1.8c-0.1-0.4-0.2-0.7-0.3-1c-0.1-0.5-0.5-0.8-1-0.9
			c-0.3,0-0.6,0.1-0.8,0.4c-0.1,0.2-0.2,0.4-0.2,0.6c-0.1,0.4-0.2,0.7-0.1,1.1c0,0.6,0.2,1.3,0.5,1.8c0.6,0.9,1.2,1.2,1.3,1.1
			c0-0.1-0.5-0.4-0.9-1.3c-0.2-0.5-0.4-1-0.3-1.6c0-0.3,0.1-0.6,0.1-0.9c0.1-0.3,0.3-0.6,0.4-0.5s0.4,0.3,0.5,0.6
			c0.1,0.3,0.2,0.6,0.3,0.9c0.1,0.5,0.2,1.1,0.1,1.6C213.7,393.1,213.5,393.7,213.5,393.7z"/>
		<path class="st5" d="M282.8,246.1l-53.4,1.7c0,0-12.6,84-12.2,89.9l-7.8,60.9l22.6,0.8c0,0,3.6-19.8,6-33.3
			c1.6-9,4.7-22.2,5.5-29.7c0.8-7.5,14-60,14-60s-1,60.9-0.9,63.4c0,2.5-2.6,59.5-2.6,59.5h22.4c1.2-10.3,3.9-51.5,4.5-59.8
			c1.1-15,4.5-57.5,4.9-68.4C286.2,260.4,282.8,246.1,282.8,246.1z"/>
		<path class="st11" d="M279.3,246.6c-0.2-1.3-0.2-2.6,0-3.8C279.5,244,279.5,245.3,279.3,246.6z"/>
		<path class="st11" d="M281.5,247.6c-0.4-1.6-0.3-3.3,0.4-4.8c0,0.8-0.1,1.6-0.2,2.4C281.7,246,281.6,246.8,281.5,247.6z"/>
		<path class="st11" d="M261.5,243.6c-0.4,0.1-0.8,0.3-1.1,0.6c-0.3,0.3-0.4,0.8-0.4,1.3c0.2,0.8,1,1.2,1.8,1
			c0.3-0.1,0.6-0.3,0.7-0.5c0.2-0.4,0.3-0.9,0.1-1.3c-0.2-0.4-0.4-0.8-0.8-1c0,0,0.2,0,0.4,0.1c0.3,0.2,0.6,0.5,0.7,0.8
			c0.2,0.5,0.2,1.1-0.1,1.6c-0.6,0.8-1.7,1-2.5,0.5c-0.4-0.3-0.6-0.6-0.7-1.1c-0.1-0.6,0.1-1.1,0.5-1.5c0.3-0.3,0.6-0.4,0.9-0.5
			C261.4,243.5,261.5,243.5,261.5,243.6z"/>
		<path class="st11" d="M236.9,336.3c-1.9-0.6-3.9-1.3-5.7-2.1c-1.9-0.7-3.8-1.5-5.6-2.5c2,0.6,3.9,1.3,5.7,2.1
			C233.3,334.5,235.1,335.3,236.9,336.3z"/>
		<path class="st6" d="M234.1,119.9c0.2-3.1,2.1-5,4.8-6.6c2.7-1.6,6.1-1.7,9-0.4c1.9,0.9,3.5,2.4,5.6,2.7c3.4,0.4,6.6-2.7,10-1.9
			c2.4,0.6,3.8,3,3.3,5.3c-0.4,1.7-1.8,3.1-3.6,3.3c2.2,0.3,3.5,3.1,2.7,5.2c-0.8,2.1-3.2,3.3-5.4,3.4c-2.3-0.1-4.5-0.8-6.4-2
			c-1.9-1.1-3.8-2.5-5.8-3.5c-2-1.1-4.3-1.4-6.5-1c-2.9,0.8-5,3.6-5.8,6.5c-0.8,2.9-0.4,6.1,0,9.1c0.4,3,1,6,0.8,9.1
			c0,0.3-0.2,0.7-0.4,0.9c-0.4,0.3-1-0.2-1.3-0.6c-3.8-4.5-6.6-9.7-8.4-15.2c-1-3.2-1.6-6.4-0.4-9.5
			C227.3,121.5,231.5,118.5,234.1,119.9"/>
		<path class="st105" d="M231.2,134.9l5,30.7c0.9,5.7,4.7,11.3,13.7,9.4l0,0c7.7-2.2,7.1-7.8,6.1-14.6l0,0c0,0,8.5-2.2,7.7-10.8
			c-0.4-4.2-1.8-12.7-3.2-20.3c-1.5-8.2-9.1-13.9-17.4-13.1l-0.8,0.1C233.3,117.7,229.5,126,231.2,134.9z"/>
		<path class="st106" d="M255.9,160.4c-4,0.4-8-0.4-11.5-2.2c0,0,3.4,6.4,11.9,4.7L255.9,160.4z"/>
		<path class="st6" d="M258.7,136.8c0.1,0.7-0.4,1.3-1.1,1.4c-0.6,0.1-1.2-0.3-1.4-0.9c0,0,0,0,0-0.1c-0.1-0.7,0.4-1.3,1.1-1.4
			C258,135.7,258.6,136.1,258.7,136.8C258.7,136.8,258.7,136.8,258.7,136.8z"/>
		<path class="st6" d="M259,133.7c-0.1,0.2-1.1-0.4-2.5-0.3s-2.2,0.9-2.4,0.7c-0.2-0.2,0.1-0.4,0.4-0.7c0.5-0.5,1.2-0.7,1.9-0.8
			c0.7-0.1,1.4,0.1,2,0.4C258.9,133.3,259,133.6,259,133.7z"/>
		<path class="st6" d="M246.7,138.7c0.1,0.7-0.4,1.3-1.1,1.4c-0.6,0.1-1.2-0.3-1.4-0.9c0,0,0,0,0-0.1c-0.1-0.7,0.4-1.3,1.1-1.4
			C245.9,137.6,246.6,138,246.7,138.7C246.7,138.7,246.7,138.7,246.7,138.7z"/>
		<path class="st6" d="M246.3,135.2c-0.1,0.2-1.1-0.4-2.5-0.3c-1.3,0.1-2.2,0.9-2.4,0.8s0.1-0.4,0.4-0.7c0.5-0.5,1.2-0.7,1.9-0.8
			c0.7-0.1,1.4,0.1,2,0.4C246.2,134.9,246.3,135.2,246.3,135.2z"/>
		<path class="st6" d="M251.8,144.6c0.7-0.3,1.4-0.5,2.1-0.6c0.3-0.1,0.6-0.2,0.7-0.4c0-0.4-0.1-0.7-0.3-1c-0.4-0.8-0.8-1.6-1.3-2.5
			c-1.8-3.5-3.1-6.4-2.9-6.5c1.3,2,2.4,4.1,3.4,6.3l1.2,2.5c0.2,0.4,0.4,0.8,0.3,1.3c-0.1,0.3-0.3,0.5-0.5,0.6
			c-0.2,0.1-0.4,0.1-0.6,0.1C253.3,144.5,252.5,144.6,251.8,144.6z"/>
		<path class="st6" d="M245.8,130c-0.1,0.4-1.4,0.3-3,0.7s-2.7,0.9-3,0.6c-0.1-0.2,0.1-0.5,0.5-0.9c1.3-1,2.9-1.3,4.5-1
			C245.6,129.6,245.9,129.9,245.8,130z"/>
		<path class="st6" d="M258.1,129.9c-0.2,0.3-1.1,0.1-2.2,0.2c-1.1,0.1-2,0.4-2.2,0.1c-0.1-0.1,0-0.5,0.4-0.8c1-0.8,2.4-0.9,3.6-0.3
			C258,129.5,258.2,129.8,258.1,129.9z"/>
		<path class="st105" d="M232.5,141.2c-0.2-0.1-6.1-1.2-5.3,4.7c0.8,5.9,6.5,3.9,6.5,3.7C233.7,149.4,232.5,141.2,232.5,141.2z"/>
		<path class="st106" d="M231.6,147.6c0,0-0.1,0.1-0.3,0.2c-0.2,0.1-0.5,0.2-0.8,0.1c-0.8-0.4-1.4-1.2-1.5-2.1
			c-0.1-0.5-0.1-1,0.1-1.5c0.1-0.4,0.3-0.7,0.7-0.9c0.2-0.1,0.5,0,0.6,0.2c0.1,0.2,0.1,0.3,0.1,0.3s0.1-0.1,0-0.3
			c-0.1-0.1-0.1-0.3-0.3-0.3c-0.2-0.1-0.4-0.1-0.6-0.1c-0.5,0.2-0.8,0.6-0.9,1c-0.2,0.5-0.2,1.1-0.1,1.7c0.1,1.1,0.8,2,1.8,2.3
			c0.3,0,0.7-0.1,0.9-0.3C231.6,147.7,231.6,147.6,231.6,147.6z"/>
		<path class="st6" d="M259.7,121.3c-1-1.6-2.4-2.9-4-3.8c-3.4-2.1-7.5-3.1-11.5-2.9c-4,0.3-7.8,2.2-10.5,5.2
			c-2.1,2.5-3.3,5.5-3.7,8.8c-0.3,3.2,0,6.4,0.9,9.5c0.3,1.4,1,2.7,2,3.7c0.7,0.6,1.8,0.9,2.4,0.3c0.3-0.4,0.5-0.9,0.5-1.4
			c0.7-4.6,1.3-9.6-0.8-13.8c0.9-1.6,2.2-3,3.7-4.1c1.5-1.1,3.4-1.6,5.3-1.3c2.7,0.5,4.6,2.9,6.8,4.5c3.3,2.2,7.5,2.8,11.3,1.4
			L259.7,121.3z"/>
		<path class="st106" d="M253,148.1c-0.1,0.6-0.2,1.1-0.4,1.6c-0.2,0.5-0.7,0.9-1.2,1.1c-0.6,0.1-1.2-0.1-1.6-0.5
			c-0.4-0.4-0.7-1-0.8-1.6c-0.1-0.5,0-1.2,0.5-1.4c0.2,0,0.4,0,0.7,0l3,0.5"/>
		<path class="st6" d="M252.3,150.6c-0.5,0.1-1,0.2-1.5,0.1c-0.5-0.1-1-0.4-1.3-0.8c-0.4-0.5-0.5-1.2-0.4-1.8c0-0.2,0.1-0.3,0.2-0.5
			c0.1-0.1,0.1-0.1,0.2-0.1c0.2,0,0.3,0,0.5,0.1l0.5,0.1l1.7,0.3c0.5,0.1,1.1,0.2,1.6,0.1c-0.5-0.2-1-0.4-1.5-0.5
			c-0.5-0.1-1-0.3-1.7-0.4l-0.5-0.1c-0.2,0-0.3-0.1-0.5-0.1c-0.1,0-0.3,0-0.4,0.1c-0.1,0.1-0.2,0.2-0.3,0.3
			c-0.1,0.2-0.2,0.4-0.2,0.6c-0.2,0.8,0,1.6,0.5,2.2c0.4,0.5,1,0.8,1.6,0.8c0.4,0.1,0.8,0,1.2-0.2
			C252.2,150.8,252.3,150.6,252.3,150.6z"/>
		<path class="st105" d="M274.1,135.5l1.4-0.4l21.6,21l17.5,2.1c0,0-0.2-5.3-6.8-12.1c-5.9-6-19.7-13.2-24.3-16.9
			c-0.6-0.5-1.3-0.9-2-1.2L274.1,135.5z"/>
		<path class="st105" d="M274.1,125.5l-2.2-0.6l-5.2-2.5l-5.9,2.2c0,0,0.1,2,1.7,1.5l-6.2,2.1c0,0,0.5,1.5,0.8,1.6s-3.6,0.4-3.6,0.4
			s0,2,3.7,2c3.7,0,5.2-0.7,5.2-0.7l3,0.8l-0.1,1.8l-4.1-0.1l0.2,2.3c1.7,0.4,3.5,0.6,5.2,0.8c0,0,6.3,0.1,8-0.7
			c1.7-0.8,3.9-2,3.9-2l3.3-6.2L274.1,125.5z"/>
		<path class="st106" d="M268.5,126.5c0,0.1-0.3-0.1-0.9-0.4c-0.7-0.3-1.4-0.7-2.1-1.1h0.3l-0.2,0.2c-0.7,0.5-1.6,0.8-2.4,0.9
			c-0.7,0.1-1.1,0-1.1,0c1.1-0.3,2.2-0.7,3.3-1.3l0.2-0.1l0.1-0.1l0.1,0.1c0.7,0.5,1.5,0.9,2,1.2
			C268.3,126.2,268.6,126.5,268.5,126.5z"/>
		<path class="st106" d="M266.6,129.7c0,0-0.4,0.1-1-0.1c-0.6-0.3-1.3-0.9-2.1-1.3h0.2c-0.4,0.3-0.8,0.5-1.2,0.7
			c-1,0.5-2.2,0.8-3.4,0.8c-0.5,0.1-1,0-1.4-0.2c1.6-0.1,3.1-0.5,4.6-1.1c0.4-0.2,0.8-0.4,1.1-0.6l0.1-0.1h0.1
			c1,0.5,1.5,1.1,2.1,1.4C266.3,129.6,266.6,129.6,266.6,129.7z"/>
		<path class="st106" d="M272.2,131.6c0,0.1-0.5-0.1-1.2-0.1c-0.9,0-1.8,0.3-2.6,0.8c-0.5,0.3-0.9,0.8-1.3,1.3l-0.1,0.1H267
			c-0.7,0.2-1.4,0.3-2.1,0.3c0.6-0.3,1.3-0.5,2-0.7l-0.1,0.1c0.3-0.6,0.8-1.1,1.4-1.4c0.8-0.6,1.8-0.8,2.8-0.7
			C271.8,131.3,272.2,131.6,272.2,131.6z"/>
		<path class="st53" d="M281.6,128.1l-7.5-2.6l-2.2-0.6l-5.2-2.5l-5.9,2.2c0,0,0.1,2,1.7,1.5l-6.2,2.1c0,0,0.5,1.5,0.8,1.6
			s-3.6,0.4-3.6,0.4s0,2,3.7,2c3.7,0,5.2-0.7,5.2-0.7l3,0.8l-0.1,1.8l-3.9-0.2l0.4,2.5c1.6,0.3,3.2,0.6,4.8,0.7c0,0,6.3,0.1,8-0.7
			s3.9-2,3.9-2"/>
		<path class="st106" d="M278.3,134.3c-0.1,0-0.1,0.1-0.2,0.1l-0.6,0.3l-2.2,1.2c-0.5,0.3-1.1,0.6-1.6,0.7c-0.7,0.2-1.4,0.3-2.1,0.3
			c-1.5,0.2-3.3,0.2-5.2,0.2l0,0l-2.3-0.2c-0.9-0.1-1.7-0.2-2.6-0.4h-0.1v-0.1c-0.1-0.8-0.3-1.6-0.4-2.5l0-0.3h0.3l3.9,0.2l-0.2,0.2
			c0-0.5,0.1-1.2,0.1-1.8l0.2,0.2l-3-0.8h0.2c-1.5,0.4-3,0.7-4.5,0.7c-0.8,0-1.6,0-2.4-0.1c-0.9-0.1-1.6-0.6-2.1-1.3
			c-0.1-0.2-0.2-0.5-0.2-0.8v-0.2h0.2c0.9-0.1,1.9-0.2,2.8-0.3l0.7-0.1h0.1l0,0v0c-0.1,0-0.1,0.1-0.1,0.2c0,0.1,0.2,0.2,0.1,0.2
			c-0.1,0-0.1-0.1-0.1-0.1c-0.1-0.1-0.2-0.2-0.2-0.3c-0.2-0.4-0.4-0.8-0.5-1.3l-0.1-0.2l0.2-0.1l6.3-2l0.1,0.4
			c-0.3,0.1-0.5,0.1-0.8,0.1c-0.3,0-0.5-0.2-0.7-0.4c-0.3-0.4-0.5-0.9-0.5-1.4v-0.2l0.2-0.1l5.9-2.2h0.1h0.1l5.2,2.5l0,0l2.2,0.6
			l1.9,0.7l3,1.1l1.9,0.7c0.2,0.1,0.4,0.2,0.6,0.3c-0.2-0.1-0.5-0.1-0.7-0.2l-1.9-0.6l-3-1l-1.9-0.6l-2.2-0.6l0,0l-5.2-2.4h0.2
			l-5.9,2.2l0.1-0.2c0,0.4,0.2,0.8,0.4,1.1c0.3,0.3,0.7,0.3,1,0.2l0.1,0.4l-6.2,2.1l0.1-0.3c0.1,0.4,0.3,0.8,0.5,1.2
			c0,0.1,0.1,0.2,0.1,0.2l0,0c0,0,0,0.1-0.1,0.1l0,0c0.1-0.2,0-0.1,0.1-0.1h0.1c0,0,0.1,0.1,0.1,0.1c0,0.1,0,0.2-0.1,0.2
			c-0.1,0.1-0.1,0-0.1,0.1h-0.1h-0.2l-0.7,0.1c-0.9,0.1-1.8,0.2-2.8,0.3l0.2-0.2c0,0.2,0.1,0.4,0.2,0.5c0.4,0.6,1.1,1,1.8,1.1
			c0.7,0.1,1.5,0.2,2.3,0.1c1.5,0,2.9-0.2,4.3-0.6h0.1h0.1l3,0.8h0.2v0.2c0,0.6-0.1,1.2-0.1,1.8v0.2h-0.2l-3.9-0.2l0.2-0.2
			c0.1,0.9,0.3,1.7,0.4,2.5l-0.1-0.1c0.8,0.2,1.6,0.3,2.4,0.4l2.3,0.3l0,0c1.9,0,3.6,0,5.2-0.1c0.7,0,1.4-0.1,2.1-0.3
			c0.6-0.2,1.1-0.4,1.6-0.7l2.2-1.1L278.3,134.3C278.3,134.3,278.3,134.3,278.3,134.3z"/>
		<path class="st106" d="M270.8,127.5c-0.6,1-1.4,1.8-2.3,2.3c-0.9,0.7-1.9,1.2-3,1.4c-0.1-0.1,1.3-0.8,2.7-1.8
			C269.7,128.5,270.7,127.4,270.8,127.5z"/>
		<path class="st90" d="M314.5,157.6l-17.4-1.5l-20.5,7.8l-4.5,2.7l6.4,21.9c0,0,32.1-18.9,33.4-20.5
			C314.5,165.1,315.4,161.3,314.5,157.6z"/>
		<path class="st90" d="M221.9,173.7l-6,3.7l13.8,54.2l-2.5,31.3c3.6,3.1,12.5,5.8,29.6,4.8c17-1,28.4-8.4,28.4-8.4l-1.6-32.2
			l-3.9-36.3l-4.3-24.8l-13.1,0.9l-5.1-3l-2.3,1.1l-2.9,8.2l-7.7-5.5l-9-4.3l-3.3,6.1L221.9,173.7z"/>
		<path class="st6" d="M275.3,172.3c0.2,0.4,0.3,0.8,0.5,1.2c0.3,0.8,0.6,1.9,1.1,3.4c1.1,3.7,2,7.5,2.7,11.3
			c0.7,3.8,1.1,7.7,1.4,11.6c0.1,1.5,0.1,2.7,0.2,3.5c0,0.4,0,0.9,0,1.3c-0.1-0.4-0.1-0.9-0.2-1.3c-0.1-0.9-0.2-2.1-0.3-3.5
			c-0.3-3-0.8-7-1.6-11.5c-0.8-4.5-1.7-8.5-2.5-11.3c-0.4-1.4-0.7-2.5-0.9-3.4C275.5,173.2,275.4,172.7,275.3,172.3z"/>
		<path class="st6" d="M249.4,172.7c-0.4-0.1-0.9-0.2-1.2-0.5c-1.1-0.6-2-1.4-2.7-2.3l0.3-0.1c-0.2,2.7-0.7,5.3-1.6,7.8l-0.1,0.3
			l-0.3-0.2l-0.6-0.4c-3.1-2.1-5.9-4.1-7.9-5.5l-2.3-1.7c-0.3-0.2-0.6-0.4-0.8-0.7c0.3,0.1,0.6,0.3,0.9,0.5l2.4,1.6
			c2.1,1.4,4.9,3.3,7.9,5.4l0.6,0.4l-0.4,0.1c0.9-2.5,1.4-5.1,1.7-7.7v-0.5l0.3,0.4c0.7,1,1.5,1.8,2.5,2.4
			C248.9,172.5,249.4,172.7,249.4,172.7z"/>
		<path class="st6" d="M261.6,167.9c-0.9,1.2-1.9,2.3-2.9,3.3l-0.2,0.2l-0.2-0.2c-0.6-0.7-1.3-1.4-1.9-2c-0.4-0.3-0.7-0.6-1.1-0.9
			l-0.5-0.4c0,0-0.1,0-0.1,0c0,0,0,0-0.1,0.1l-0.8,2.1c-0.2,0.7-0.5,1.3-0.9,1.9c0.1-0.7,0.3-1.4,0.6-2c0.2-0.7,0.5-1.4,0.7-2.2
			c0-0.2,0.2-0.3,0.3-0.4c0.2-0.1,0.4,0,0.5,0.1l0.6,0.4c0.4,0.3,0.8,0.6,1.1,0.9c0.7,0.6,1.4,1.3,2,2.1h-0.3
			C259.4,169.9,260.5,168.8,261.6,167.9z"/>
		<path class="st11" d="M258.1,265.3c20.1-3.8,39.5,9.5,43.3,29.6c3.8,20.1-9.5,39.5-29.6,43.3c-7.6,1.4-15.5,0.4-22.5-2.8l0,0
			c-18.6-8.7-26.6-30.7-18-49.3C236.4,275.3,246.3,267.5,258.1,265.3L258.1,265.3z M271.3,335.8c18.8-3.5,31.1-21.6,27.6-40.4
			c-3.5-18.8-21.6-31.1-40.4-27.6c-18.8,3.5-31.1,21.6-27.6,40.4c2.1,11,9.3,20.2,19.4,24.9C256.9,336.3,264.2,337.2,271.3,335.8z"
			/>
		<path class="st2" d="M264.9,340.7c-21.6,0-39.1-17.4-39.1-39c0-21.6,17.4-39.1,39-39.1c21.6,0,39.1,17.4,39.1,39
			c0,16.4-10.2,31.1-25.6,36.8C274,339.9,269.4,340.7,264.9,340.7z M264.9,268.9c-18.1,0-32.9,14.7-32.9,32.8
			c0,18.1,14.7,32.9,32.8,32.9c2,0,4.1-0.2,6.1-0.6l0,0c10.4-2,19.2-8.8,23.7-18.4c7.6-16.5,0.5-36-16-43.7
			C274.4,270,269.7,269,264.9,268.9z"/>
		<path class="st2" d="M174.6,265.6l0.3-0.8c0.7-1.7,2.2-2.7,3.4-2.2l54.2,22.1c0.3,0.1,0.4,0.5,0.2,0.9l-2.3,5.7
			c-0.2,0.4-0.5,0.6-0.8,0.5l-54.2-22.1C174.3,269.1,173.9,267.3,174.6,265.6z"/>
		<path class="st105" d="M225.3,203.1l-6.5,21.6l3.3,44l-9.6,1.2c0,0-11-37.4-9.9-44.2c1.1-6.8,5.6-26.5,5.6-26.5L225.3,203.1z"/>
		<path class="st105" d="M222,268.3l4.5,7.7l2.8,7.2l-4.2-1.6c0,0-1.8,8.7-2.5,8.9c-0.7,0.2-2.7-0.5-2.5-2.1
			c-0.6,0.6-1.4,0.9-2.3,0.8c-1.3-0.3-1.6-1.1-1.4-2.7c0,0-1.5,1.2-2.4,0.5c-0.5-0.5-0.8-1.3-0.8-2.1c0,0-1.9,0.2-2.2-0.8
			c-0.3-1.6-0.3-3.3-0.1-4.9c0.2-1.1,1.2-5.5,1.2-5.5l0.4-3.6L222,268.3z"/>
		<path class="st106" d="M221,283.3c-0.3,0.8-0.6,1.6-0.7,2.5c-0.2,0.8-0.3,1.7-0.3,2.5c0.4-0.8,0.6-1.6,0.7-2.5
			C220.9,285,221,284.1,221,283.3z"/>
		<path class="st106" d="M217,282.3c-0.3,0.6-0.5,1.3-0.6,2c-0.2,0.7-0.3,1.4-0.2,2c0.3-0.6,0.5-1.3,0.6-2
			C217,283.7,217.1,283,217,282.3z"/>
		<path class="st106" d="M213.8,281.4c-0.2,0.5-0.3,1.1-0.3,1.7c-0.2,0.9-0.4,1.7-0.3,1.7c0.4-0.5,0.6-1,0.7-1.6
			C214,282.5,214,281.9,213.8,281.4z"/>
		<path class="st106" d="M225.4,279c-0.3,0.8-0.6,1.6-0.7,2.4c-0.3,0.8-0.4,1.6-0.5,2.5c0.4-0.7,0.7-1.5,0.9-2.4
			C225.3,280.7,225.4,279.9,225.4,279z"/>
		<path class="st90" d="M202,240.2c0-0.7-3-11-2.1-16.3s11.8-41.2,13.3-43.8c1.2-1.7,2.8-3.1,4.7-4c4.3,2.3,7.4,6.3,8.7,10.9
			c2.2,7.9,2.2,17.8,2.2,17.8l-8.8,21.8l1,12.4L202,240.2z"/>
		<path class="st6" d="M228.2,204.1c-0.1,0,0.1-1.6,0-4.2c-0.1-1.5-0.2-3-0.4-4.5c-0.6-3.7-1.7-7.2-3.3-10.5
			c-0.7-1.4-1.4-2.7-2.2-3.9c-1.4-2.2-2.5-3.4-2.4-3.4c0.3,0.2,0.6,0.5,0.8,0.8c0.7,0.8,1.3,1.6,1.9,2.4c0.9,1.3,1.7,2.6,2.3,3.9
			c1.7,3.3,2.8,6.9,3.4,10.7c0.2,1.5,0.3,3,0.3,4.6c0,1,0,2.1-0.2,3.1C228.3,203.4,228.3,203.7,228.2,204.1z"/>
		<path class="st6" d="M227.6,208.7c-0.2,0.9-0.5,1.8-0.9,2.7c-0.6,1.7-1.6,3.9-2.7,6.4l-2.8,6.3c-0.3,0.9-0.8,1.8-1.2,2.6
			c0.2-0.9,0.5-1.8,0.9-2.7c0.6-1.7,1.6-3.9,2.7-6.4l2.8-6.3C226.7,210.4,227.2,209.5,227.6,208.7z"/>
		<path class="st6" d="M220.5,227.5c-1.9-1-3.9-1.9-6-2.6c-2.1-0.6-4.3-0.9-6.5-1.1c0.6-0.1,1.3-0.2,2-0.1c1.6,0.1,3.1,0.3,4.7,0.8
			c1.5,0.5,3,1.1,4.3,1.9C219.5,226.6,220,227,220.5,227.5z"/>
		<path class="st3" d="M277.7,289.2c0.1,0.1-7,6.3-15.8,13.8s-16,13.5-16.1,13.4c-0.1-0.1,7-6.3,15.8-13.8
			C270.4,295.1,277.6,289.1,277.7,289.2z"/>
		<path class="st3" d="M286.8,289.2c0.1,0.1-5.9,5.4-13.3,11.7c-7.4,6.4-13.5,11.5-13.6,11.4c-0.1-0.1,5.9-5.4,13.3-11.7
			C280.6,294.2,286.7,289.1,286.8,289.2z"/>
		<path class="st6" d="M300.1,301.8c0,0,0-0.2-0.1-0.6s-0.1-0.9-0.1-1.7c0-0.4,0-0.8-0.1-1.2c-0.1-0.4-0.1-0.9-0.2-1.5
			c-0.1-0.5-0.2-1.1-0.3-1.7c-0.1-0.6-0.3-1.2-0.5-1.9c-0.8-3.3-2.1-6.4-3.9-9.3c-2.3-3.9-5.3-7.2-8.9-9.9l-1.5-1.1
			c-0.5-0.3-1.1-0.7-1.6-1c-0.6-0.3-1.1-0.7-1.7-1l-1.8-0.9l-0.9-0.4l-1-0.3l-2-0.7c-0.7-0.2-1.4-0.4-2.1-0.6
			c-0.7-0.2-1.4-0.4-2.1-0.5c-1.5-0.3-2.9-0.4-4.4-0.5c-0.8,0-1.5-0.1-2.3-0.1l-2.3,0.1c-0.4,0-0.8,0-1.2,0.1l-1.2,0.2
			c-0.8,0.1-1.6,0.2-2.4,0.4c-1.6,0.4-3.1,0.8-4.7,1.4c-1.6,0.6-3.1,1.2-4.6,2c-0.7,0.4-1.5,0.9-2.2,1.3c-0.4,0.2-0.7,0.4-1.1,0.7
			l-1,0.8c-2.9,2.1-5.4,4.6-7.5,7.5l-0.8,1.1l-0.7,1.2l-0.7,1.2c-0.2,0.4-0.5,0.8-0.7,1.2l-1.2,2.5c-0.3,0.9-0.6,1.7-0.9,2.6
			c-2.4,7.2-2.4,14.9,0,22.1c0.3,0.9,0.6,1.7,0.9,2.6s0.8,1.6,1.2,2.5l0.3,0.6l0.4,0.6l0.7,1.2l0.7,1.2l0.8,1.1c1,1.4,2.2,2.8,3.4,4
			c1.3,1.2,2.6,2.3,4,3.4l1,0.8c0.3,0.3,0.7,0.4,1.1,0.7c0.7,0.4,1.4,0.9,2.2,1.3c1.5,0.8,3,1.4,4.6,2c1.5,0.6,3.1,1,4.7,1.4
			c0.8,0.2,1.6,0.3,2.4,0.4l1.2,0.2c0.4,0.1,0.8,0,1.2,0.1l2.3,0.1c0.8,0,1.5-0.1,2.3-0.1c1.5-0.1,3-0.2,4.4-0.5
			c0.7-0.1,1.4-0.3,2.1-0.5c0.7-0.2,1.4-0.3,2.1-0.5l2-0.7l1-0.3l0.9-0.4l1.8-0.9c0.6-0.3,1.1-0.7,1.7-1s1.1-0.7,1.6-1l1.5-1.1
			c3.6-2.7,6.6-6.1,8.9-9.9c1.8-2.9,3.1-6,4-9.3c0.2-0.7,0.4-1.3,0.5-1.9c0.1-0.6,0.2-1.2,0.3-1.7s0.2-1,0.2-1.5
			c0-0.4,0.1-0.9,0.1-1.2c0.1-0.7,0.1-1.3,0.1-1.7C300.1,302,300.1,301.8,300.1,301.8c0,0,0,0.2,0,0.6s0,0.9-0.1,1.7
			c0,0.4,0,0.8-0.1,1.2c0,0.4-0.1,0.9-0.2,1.5l-0.3,1.7c-0.1,0.7-0.3,1.3-0.4,1.9c-0.8,3.3-2.1,6.5-3.9,9.4c-2.3,3.9-5.4,7.3-9,10.1
			l-1.5,1.1c-0.5,0.3-1.1,0.7-1.7,1c-0.6,0.3-1.1,0.7-1.7,1l-1.8,0.9l-0.9,0.4l-1,0.4l-2,0.7c-0.7,0.2-1.4,0.4-2.1,0.6
			c-0.7,0.2-1.4,0.4-2.1,0.5c-1.5,0.3-3,0.5-4.5,0.5c-0.8,0-1.5,0.1-2.3,0.1l-2.3-0.1c-0.4,0-0.8,0-1.2-0.1l-1.2-0.2
			c-0.8-0.1-1.6-0.2-2.4-0.4c-1.6-0.4-3.2-0.8-4.7-1.4c-1.6-0.6-3.1-1.2-4.6-2c-0.7-0.4-1.5-0.9-2.2-1.3c-0.4-0.2-0.8-0.4-1.1-0.7
			l-1-0.8c-1.4-1-2.8-2.2-4-3.4c-1.3-1.3-2.4-2.7-3.5-4.1l-0.8-1.1l-0.7-1.2l-0.7-1.2l-0.4-0.6l-0.3-0.6l-1.2-2.5l-1-2.6
			c-2.4-7.3-2.4-15.1,0-22.4l1-2.6c0.4-0.8,0.8-1.7,1.2-2.5c0.2-0.4,0.4-0.8,0.7-1.2l0.7-1.2l0.7-1.2l0.8-1.1
			c1.1-1.4,2.2-2.8,3.5-4.1c1.3-1.2,2.6-2.4,4-3.4l1-0.8c0.4-0.3,0.7-0.5,1.1-0.7c0.7-0.4,1.5-0.9,2.2-1.3c1.5-0.8,3-1.5,4.6-2
			c1.5-0.6,3.1-1,4.7-1.4c0.8-0.2,1.6-0.3,2.4-0.4l1.2-0.2c0.4,0,0.8,0,1.2-0.1l2.3-0.1c0.8,0,1.5,0.1,2.3,0.1
			c1.5,0.1,3,0.2,4.5,0.5c0.7,0.1,1.4,0.3,2.1,0.5c0.7,0.2,1.4,0.3,2.1,0.6l2,0.7l1,0.4l0.9,0.4l1.8,0.9c0.6,0.3,1.2,0.6,1.7,1
			c0.6,0.3,1.1,0.7,1.7,1l1.5,1.1c3.6,2.7,6.7,6.2,9,10.1c1.8,2.9,3.1,6.1,3.9,9.4c0.2,0.7,0.4,1.3,0.4,1.9c0.1,0.6,0.2,1.2,0.3,1.7
			c0.1,0.5,0.2,1,0.2,1.5c0,0.4,0,0.9,0.1,1.2c0,0.7,0,1.3,0.1,1.7C300.1,301.6,300.1,301.8,300.1,301.8z"/>
		<path class="st6" d="M287.1,320.5c0.3-0.4,0.6-0.8,0.9-1.2c0.8-1.1,1.6-2.2,2.2-3.4c4.6-7.7,5.6-17.1,2.7-25.6
			c-0.4-1.3-0.9-2.5-1.5-3.8c-0.2-0.4-0.4-0.9-0.6-1.4c0,0,0.1,0.1,0.2,0.3c0.1,0.2,0.3,0.5,0.6,1c0.6,1.2,1.2,2.4,1.6,3.7
			c3.1,8.6,2.1,18.1-2.7,25.9c-0.7,1.2-1.5,2.3-2.4,3.3c-0.3,0.4-0.6,0.6-0.7,0.8C287.3,320.4,287.2,320.5,287.1,320.5z"/>
		<path class="st6" d="M285.3,323.7c0.1,0.1-0.2,0.4-0.6,0.6c-0.4,0.2-0.8,0.3-0.9,0.2c-0.1-0.1,0.2-0.4,0.6-0.6
			C284.8,323.7,285.2,323.6,285.3,323.7z"/>
		<path class="st3" d="M239.1,316.9c-0.1-0.1-0.2-0.3-0.2-0.4c-0.1-0.3-0.3-0.7-0.5-1.2c-0.6-1.6-1.1-3.2-1.4-4.8
			c-2.4-11,0.7-22.4,8.3-30.7c1.1-1.2,2.3-2.4,3.6-3.4c0.4-0.4,0.8-0.6,1.1-0.8s0.4-0.3,0.4-0.3c0,0-0.5,0.4-1.4,1.2
			c-1.2,1.1-2.4,2.3-3.5,3.5c-7.4,8.3-10.4,19.6-8.2,30.4c0.3,1.6,0.8,3.2,1.3,4.8C238.9,316.3,239.1,316.9,239.1,316.9z"/>
		<path class="st3" d="M259.9,273c-1.4,0.4-2.8,0.5-4.2,0.3c0.7-0.3,1.4-0.4,2.1-0.4C258.5,272.8,259.2,272.8,259.9,273z"/>
	</g>
</g>
</svg>
