<svg id="menu -btn" xmlns ="http://www.w3.org/2000/svg" height="800px" width="800px" 
version="1.1" xmlns:xlink="http://www.w3.org/1999/xlink" viewBox="0 0 255 255" xml:space="preserve">
<style type="text/css">
  #line1, #line2, #line3 {
    transform: scale(0.5);
  }
  #line2 {
    transform: translateY(20px) scale(0.5);
  }
  #line3 {
    transform: translateY(40px) scale(0.5);
  }
</style>
  <g>
    <path id="line1" d="
    M 75.067, 2.72
    c -1.275, 0.037 -2.487, 0.56 -3.389, 1.461
    l -15, 15
    c -1.975, 1.93 -2.012, 5.096 -0.082, 7.071
    c 1.93, 1.975, 5.096, 2.012, 7.071, 0.082
    c 0.028 -0.027, 0.056 -0.055, 0.083 -0.083
    l 6.463 -6.463
    v 42.928
    h -10
    c -2.761 -0.039 -5.032, 2.168 -5.071, 4.929s 2.168, 5.032, 4.929, 5.071
    c 0.047, 0.001, 0.094, 0.001, 0.141, 0
    h 14.182
    c 0.535, 0.088, 1.08, 0.088, 1.615, 0
    h 9.203
    c 2.761, 0.039, 5.032 -2.168, 5.071 -4.929s  -2.168 -5.032 -4.929 -5.071
    c -0.047 -0.001 -0.094 -0.001 -0.141, 0
    h -5
    v -55
    c -0.001 -2.762 -2.241 -4.999 -5.003 -4.998
    C 75.163, 2.718, 75.115, 2.719, 75.067, 2.72
    z

    M 130.21, 2.72
    c -1.275, 0.037 -2.487, 0.56 -3.389, 1.461
    l -15, 15
    c -1.992, 1.913 -2.057, 5.078 -0.144, 7.07s 5.078, 2.057, 7.07, 0.144
    c 0.049 -0.047, 0.097 -0.095, 0.144 -0.144
    l 6.465 -6.465
    v 42.93
    h -10
    c -2.761 -0.039 -5.032, 2.168 -5.071, 4.929
    c -0.039, 2.761, 2.168, 5.032, 4.929, 5.071
    c 0.047, 0.001, 0.094, 0.001, 0.141, 0
    h 14.182
    c 0.537, 0.088, 1.084, 0.088, 1.621, 0
    h 9.197
    c 2.761, 0.039, 5.032 -2.168, 5.071 -4.929
    c 0.039 -2.761 -2.168 -5.032 -4.929 -5.071
    c -0.047 -0.001 -0.094 -0.001 -0.141, 0
    h -5
    v -55
    c -0.001 -2.762 -2.241 -4.999 -5.003 -4.998
    C 130.306, 2.718, 130.258, 2.719, 130.21, 2.72
    z

    M 17.571, 2.754
    c -9.609, 0 -17.5, 7.891 -17.5, 17.5
    v 35
    c 0, 9.609, 7.891, 17.5, 17.5, 17.5s 17.5 -7.891, 17.5 -17.5
    v -35
    C 35.071, 10.645, 27.18, 2.754, 17.571, 2.754
    z

    M 182.999, 2.754
    c -9.609, 0 -17.5, 7.891 -17.5, 17.5
    v 35
    c 0, 9.609, 7.891, 17.5, 17.5, 17.5s 17.5 -7.891, 17.5 -17.5
    v -35
    C 200.499, 10.645, 192.607, 2.754, 182.999, 2.754
    z

    M 238.142, 2.754
    c -9.609, 0 -17.5, 7.891 -17.5, 17.5
    v 35
    c 0, 9.609, 7.891, 17.5, 17.5, 17.5
    c 9.609, 0, 17.5 -7.891, 17.5 -17.5
    v -35
    C 255.642, 10.645, 247.75, 2.754, 238.142, 2.754
    z

    M 17.571, 12.754
    c 4.241, 0, 7.5, 3.259, 7.5, 7.5
    v 35
    c 0, 4.241 -3.259, 7.5 -7.5, 7.5s  -7.5 -3.259 -7.5 -7.5
    v -35
    C 10.071, 16.012, 13.33, 12.754, 17.571, 12.754
    z

    M 182.999, 12.754
    c 4.241, 0, 7.5, 3.259, 7.5, 7.5
    v 35
    c 0, 4.241 -3.259, 7.5 -7.5, 7.5s  -7.5 -3.259 -7.5 -7.5
    v -35
    C 175.499, 16.012, 178.757, 12.754, 182.999, 12.754
    z

    M 238.142, 12.754
    c 4.241, 0, 7.5, 3.259, 7.5, 7.5
    v 35
    c 0, 4.241 -3.259, 7.5 -7.5, 7.5s  -7.5 -3.259 -7.5 -7.5
    v -35
    C 230.642, 16.012, 233.9, 12.754, 238.142, 12.754
    z
    "/>

    <path id="line2" d="
    M 19.925, 92.791
    c -1.275, 0.037 -2.487, 0.56 -3.389, 1.461
    l -15, 15
    c -1.952, 1.954 -1.949, 5.121, 0.005, 7.072
    c 1.952, 1.95, 5.115, 1.95, 7.067, 0
    l 6.463 -6.463
    v 42.928
    h -10
    c -2.761 -0.039 -5.032, 2.168 -5.071, 4.929
    c -0.039, 2.761, 2.168, 5.032, 4.929, 5.071
    c 0.047, 0.001, 0.094, 0.001, 0.141, 0
    h 14.182
    c 0.537, 0.088, 1.084, 0.088, 1.621, 0
    h 9.197
    c 2.761, 0.039, 5.032 -2.168, 5.071 -4.929
    c 0.039 -2.761 -2.168 -5.032 -4.929 -5.071
    c -0.047 -0.001 -0.094 -0.001 -0.141, 0
    h -5
    v -55
    c 0 -2.762 -2.239 -5 -5.001 -5
    C 20.022, 92.789, 19.973, 92.789, 19.925, 92.791
    z

    M 130.21, 92.791
    c -1.275, 0.037 -2.487, 0.56 -3.389, 1.461
    l -15, 15
    c -1.976, 1.93 -2.013, 5.095 -0.084, 7.071
    c 1.93, 1.976, 5.095, 2.013, 7.071, 0.084
    c 0.028 -0.027, 0.056 -0.055, 0.083 -0.083
    l 6.465 -6.465
    v 42.93
    h -10
    c -2.761 -0.039 -5.032, 2.168 -5.071, 4.929
    c -0.039, 2.761, 2.168, 5.032, 4.929, 5.071
    c 0.047, 0.001, 0.094, 0.001, 0.141, 0
    h 14.182
    c 0.537, 0.088, 1.084, 0.088, 1.621, 0
    h 9.197
    c 2.761, 0.039, 5.032 -2.168, 5.071 -4.929
    c 0.039 -2.761 -2.168 -5.032 -4.929 -5.071
    c -0.047 -0.001 -0.094 -0.001 -0.141, 0
    h -5
    v -55
    c 0 -2.762 -2.239 -5 -5.001 -5
    C 130.307, 92.789, 130.258, 92.789, 130.21, 92.791
    z

    M 185.352, 92.791
    c -1.275, 0.037 -2.487, 0.56 -3.389, 1.461
    l -15, 15
    c -1.976, 1.93 -2.013, 5.095 -0.084, 7.071
    c 1.93, 1.976, 5.095, 2.013, 7.071, 0.084
    c 0.028 -0.027, 0.056 -0.055, 0.083 -0.083
    l 6.465 -6.465
    
    v 42.93
    h -10
    c -2.761 -0.039 -5.032, 2.168 -5.071, 4.929
    c -0.039, 2.761, 2.168, 5.032, 4.929, 5.071
    c 0.047, 0.001, 0.094, 0.001, 0.141, 0
    h 14.182
    c 0.537, 0.088, 1.084, 0.088, 1.621, 0
    h 9.197
    c 2.761, 0.039, 5.032 -2.168, 5.071 -4.929
    c 0.039 -2.761 -2.168 -5.032 -4.929 -5.071
    c -0.047 -0.001 -0.094 -0.001 -0.141, 0
    h -5
    v -55
    c 0 -2.762 -2.239 -5 -5.001 -5
    C 185.45, 92.789, 185.401, 92.789, 185.352, 92.791
    z

    M 72.714, 92.824
    c -9.609, 0 -17.5, 7.891 -17.5, 17.5
    v 35
    c 0, 9.609, 7.891, 17.5, 17.5, 17.5s 17.5 -7.891, 17.5 -17.5
    v -35
    C 90.214, 100.715, 82.322, 92.824, 72.714, 92.824
    z

    M 238.142, 92.824
    c -9.609, 0 -17.5, 7.891 -17.5, 17.5
    v 35
    c 0, 9.609, 7.891, 17.5, 17.5, 17.5
    c 9.609, 0, 17.5 -7.891, 17.5 -17.5
    v -35
    C 255.642, 100.715, 247.75, 92.824, 238.142, 92.824
    z

    M 72.714, 102.824
    c 4.241, 0, 7.5, 3.259, 7.5, 7.5
    v 35
    c 0, 4.241 -3.259, 7.5 -7.5, 7.5s  -7.5 -3.259 -7.5 -7.5
    v -35
    C 65.214, 106.082, 68.472, 102.824, 72.714, 102.824
    z

    M 238.142, 102.824
    c 4.241, 0, 7.5, 3.259, 7.5, 7.5
    v 35
    c 0, 4.241 -3.259, 7.5 -7.5, 7.5s  -7.5 -3.259 -7.5 -7.5
    v -35
    C 230.642, 106.082, 233.9, 102.824, 238.142, 102.824
    z
    "/>

    <path id="line3" d="
    M 19.925, 182.861
    c -1.275, 0.037 -2.487, 0.56 -3.389, 1.461
    l -15, 15
    c -1.953, 1.953 -1.953, 5.119, 0, 7.072s 5.119, 1.953, 7.072, 0
    l 6.463 -6.463
    
    v 42.926
    h -10
    c -2.761 -0.039 -5.032, 2.168 -5.071, 4.929
    c -0.039, 2.761, 2.168, 5.032, 4.929, 5.071
    c 0.047, 0.001, 0.094, 0.001, 0.141, 0
    h 14.182
    c 0.537, 0.088, 1.084, 0.088, 1.621, 0
    h 9.197
    c 2.761, 0.039, 5.032 -2.168, 5.071 -4.929
    c 0.039 -2.761 -2.168 -5.032 -4.929 -5.071
    c -0.047 -0.001 -0.094 -0.001 -0.141, 0
    h -5
    v -55
    c -0.001 -2.762 -2.241 -4.999 -5.003 -4.998
    C 20.021, 182.859, 19.973, 182.86, 19.925, 182.861
    z

    M 75.067, 182.861
    c -1.275, 0.037 -2.487, 0.56 -3.389, 1.461
    l -15, 15
    c -1.953, 1.953 -1.953, 5.119, 0, 7.072s 5.119, 1.953, 7.072, 0
    l 6.463 -6.463
    
    v 42.926
    h -10
    c -2.761 -0.039 -5.032, 2.168 -5.071, 4.929
    c -0.039, 2.761, 2.168, 5.032, 4.929, 5.071
    c 0.047, 0.001, 0.094, 0.001, 0.141, 0
    h 14.182
    c 0.535, 0.088, 1.08, 0.088, 1.615, 0
    h 9.203
    c 2.761, 0.039, 5.032 -2.168, 5.071 -4.929
    c 0.039 -2.761 -2.168 -5.032 -4.929 -5.071
    c -0.047 -0.001 -0.094 -0.001 -0.141, 0
    h -5
    v -55
    c -0.001 -2.762 -2.241 -4.999 -5.003 -4.998
    C 75.163, 182.859, 75.115, 182.86, 75.067, 182.861
    z

    M 130.21, 182.861
    c -1.275, 0.037 -2.487, 0.56 -3.389, 1.461
    l -15, 15
    c -1.976, 1.93 -2.013, 5.095 -0.084, 7.071
    c 1.93, 1.976, 5.095, 2.013, 7.071, 0.084
    c 0.028 -0.027, 0.056 -0.055, 0.083 -0.083
    l 6.465 -6.465
    v 42.928
    h -10
    c -2.761 -0.039 -5.032, 2.168 -5.071, 4.929
    c -0.039, 2.761, 2.168, 5.032, 4.929, 5.071
    c 0.047, 0.001, 0.094, 0.001, 0.141, 0
    h 14.182
    c 0.537, 0.088, 1.084, 0.088, 1.621, 0
    h 9.197
    c 2.761, 0.039, 5.032 -2.168, 5.071 -4.929
    c 0.039 -2.761 -2.168 -5.032 -4.929 -5.071
    c -0.047 -0.001 -0.094 -0.001 -0.141, 0
    h -5
    v -55
    c -0.001 -2.762 -2.241 -4.999 -5.003 -4.998
    C 130.306, 182.859, 130.258, 182.86, 130.21, 182.861
    z

    M 185.352, 182.861
    c -1.275, 0.037 -2.487, 0.56 -3.389, 1.461
    l -15, 15
    c -1.976, 1.93 -2.013, 5.095 -0.084, 7.071
    c 1.93, 1.976, 5.095, 2.013, 7.071, 0.084
    c 0.028 -0.027, 0.056 -0.055, 0.083 -0.083
    l 6.465 -6.465
    v 42.928
    h -10
    c -2.761 -0.039 -5.032, 2.168 -5.071, 4.929
    c -0.039, 2.761, 2.168, 5.032, 4.929, 5.071
    c 0.047, 0.001, 0.094, 0.001, 0.141, 0
    h 14.182
    c 0.537, 0.088, 1.084, 0.088, 1.621, 0
    h 9.197
    c 2.761, 0.039, 5.032 -2.168, 5.071 -4.929
    c 0.039 -2.761 -2.168 -5.032 -4.929 -5.071
    c -0.047 -0.001 -0.094 -0.001 -0.141, 0
    h -5
    v -55
    c -0.001 -2.762 -2.241 -4.999 -5.003 -4.998
    C 185.448, 182.859, 185.4, 182.86, 185.352, 182.861
    z

    M 238.142, 182.894
    c -9.609, 0 -17.5, 7.891 -17.5, 17.5
    v 35
    c 0, 9.609, 7.891, 17.5, 17.5, 17.5
    c 9.609, 0, 17.5 -7.891, 17.5 -17.5
    v -35
    C 255.642, 190.786, 247.75, 182.894, 238.142, 182.894
    z

    M 238.142, 192.894
    c 4.241, 0, 7.5, 3.259, 7.5, 7.5
    v 35
    c 0, 4.241 -3.259, 7.5 -7.5, 7.5
    s  -7.5 -3.259 -7.5 -7.5
    v -35
    C 230.642, 196.153, 233.9, 192.894, 238.142, 192.894
    z
    "/>
  </g>
</svg>